<svg width="140" height="49" viewBox="0 0 140 49" fill="none" xmlns="http://www.w3.org/2000/svg">
<path d="M132 0.5H8C3.58172 0.5 0 4.08172 0 8.5V40.5C0 44.9183 3.58172 48.5 8 48.5H132C136.418 48.5 140 44.9183 140 40.5V8.5C140 4.08172 136.418 0.5 132 0.5Z" fill="#2E2E2E"/>
<path fill-rule="evenodd" clip-rule="evenodd" d="M12.4834 11.542C12.2116 11.6406 12 11.9038 12 12.2439V36.7553C12 37.0926 12.2081 37.3542 12.4766 37.4547L25.0467 24.4949L12.4834 11.542Z" fill="#00D6FF"/>
<path fill-rule="evenodd" clip-rule="evenodd" d="M28.588 20.8441L13.0765 11.5993C12.8822 11.4836 12.669 11.4751 12.4834 11.5423L25.0467 24.4952L28.588 20.8441Z" fill="#00F076"/>
<path fill-rule="evenodd" clip-rule="evenodd" d="M13.0764 37.4005L28.5939 28.1522L25.0467 24.4951L12.4766 37.4549C12.6637 37.525 12.8798 37.5177 13.0764 37.4005Z" fill="#FF3A44"/>
<path fill-rule="evenodd" clip-rule="evenodd" d="M28.5938 28.1519L33.6399 25.1444C34.1199 24.8584 34.1199 24.1408 33.6399 23.8547L28.588 20.8438L25.0466 24.4949L28.5938 28.1519Z" fill="#FFD000"/>
<path fill-rule="evenodd" clip-rule="evenodd" d="M76.5106 26.7133C77.5745 26.7133 78.4255 27.233 78.9575 27.7527V27.0251H80.8723V34.9258C80.8723 38.1486 78.9575 39.5 76.617 39.5C74.3829 39.5 73.1063 38.0446 72.5745 36.9011L74.2766 36.1733C74.4893 36.9011 75.3404 37.7326 76.5106 37.7326C78 37.7326 78.9575 36.7971 78.9575 35.1337V34.51H78.8511C78.4255 35.0298 77.5745 35.5496 76.5106 35.5496C74.1702 35.5496 72.1489 33.6783 72.1489 31.1834C72.1489 28.6884 74.2766 26.7133 76.5106 26.7133ZM121.192 27.0251L123.532 32.6388H123.638L125.872 27.0251H128L122.575 39.2921H120.553L122.575 34.9258L119.064 27.0251H121.192ZM89.4894 26.8172C91.8298 26.8172 92.8937 28.5844 93.3191 29.624L93.5319 30.1438L87.468 32.6388C88 33.5744 88.6382 33.9902 89.7021 33.9902C90.7659 33.9902 91.4042 33.4705 91.9362 32.7427L93.4255 33.7823C93 34.51 91.7234 35.7575 89.7021 35.7575C87.1489 35.7575 85.2341 33.7823 85.2341 31.2873C85.2341 28.5844 87.1489 26.8172 89.4894 26.8172ZM56.8298 26.8172C59.383 26.8172 61.4042 28.5844 61.4042 31.2873C61.4042 33.8862 59.383 35.7575 56.8298 35.7575C54.2766 35.7575 52.2553 33.7823 52.2553 31.2873C52.2553 28.6884 54.2766 26.8172 56.8298 26.8172ZM66.7234 26.8172C69.2766 26.8172 71.2979 28.5844 71.2979 31.2873C71.2979 33.8862 69.2766 35.7575 66.7234 35.7575C64.1702 35.7575 62.149 33.7823 62.149 31.2873C62.149 28.6884 64.1702 26.8172 66.7234 26.8172ZM45.1276 21.9312C47.2553 21.9312 48.7446 22.7628 49.9149 23.8024L48.5319 25.1538C47.6808 24.4262 46.5107 23.8024 45.0212 23.8024C42.2553 23.8024 40.0213 25.9855 40.0213 28.7923C40.0213 31.5992 42.1489 33.7823 45.0212 33.7823C46.8298 33.7823 47.8937 33.0547 48.5319 32.4309C49.0639 31.9111 49.4894 31.0794 49.5957 30.0398H45.0212V28.1687H51.6169C51.7234 28.4805 51.7234 28.8963 51.7234 29.3122C51.7234 30.6636 51.2978 32.4309 50.0212 33.6783C48.7446 35.0298 47.2553 35.6536 45.1276 35.6536C41.2978 35.6536 38 32.5348 38 28.7923C38 25.0499 41.2978 21.9312 45.1276 21.9312ZM114.915 26.7133C117.149 26.7133 118.957 28.0647 119.17 30.3517V35.3416H117.255V34.3022H117.149C116.617 34.9258 115.979 35.5496 114.596 35.5496C112.894 35.5496 111.298 34.4061 111.298 32.6388C111.298 30.7676 113.213 29.728 115.128 29.728C115.979 29.728 116.83 30.0398 117.149 30.2477V30.1438C117.042 29.1042 116.085 28.4805 115.021 28.4805C114.277 28.4805 113.638 28.6884 113.213 29.4162L111.404 28.6884C111.936 27.337 113.425 26.7133 114.915 26.7133ZM84.1702 22.347V35.3416H82.1489V22.347H84.1702ZM110.021 22.347V35.3416H108V22.347H110.021ZM102.574 22.347C104.809 22.347 106.936 23.9063 106.936 26.4013C106.936 28.8963 104.809 30.4557 102.574 30.4557H99.8085V35.3416H97.7872V22.347H102.574ZM115.234 31.3913C114.277 31.3913 113.106 31.7032 113.106 32.7427C113.106 33.5744 114.064 33.8862 114.702 33.8862C115.766 33.8862 116.83 33.0547 117.042 31.8072C116.511 31.5993 116.085 31.3913 115.234 31.3913ZM76.617 28.4805C75.2341 28.4805 74.0638 29.624 74.0638 31.1834C74.0638 32.7427 75.2341 33.8862 76.617 33.8862C78 33.8862 79.0638 32.7427 79.0638 31.1834C79.0638 29.624 78 28.4805 76.617 28.4805ZM56.8298 28.4805C55.4467 28.4805 54.2766 29.624 54.2766 31.1834C54.2766 32.7427 55.4467 33.8862 56.8298 33.8862C58.2128 33.8862 59.383 32.7427 59.383 31.1834C59.383 29.5201 58.2128 28.4805 56.8298 28.4805ZM66.7234 28.4805C65.3404 28.4805 64.1702 29.624 64.1702 31.1834C64.1702 32.7427 65.3404 33.8862 66.7234 33.8862C68.1063 33.8862 69.2766 32.7427 69.2766 31.1834C69.2766 29.5201 68.1063 28.4805 66.7234 28.4805ZM89.4894 28.4805C88.5319 28.4805 87.1489 29.4162 87.1489 31.0794L91.1914 29.4162C90.9787 28.8963 90.234 28.4805 89.4894 28.4805ZM102.681 24.1144H99.8085V28.5844H102.681C104.064 28.5844 104.915 27.4409 105.021 26.2974C105.021 25.3618 104.17 24.1144 102.681 24.1144ZM41.7385 11.5C42.2862 11.5 42.7757 11.5922 43.207 11.7768C43.6381 11.9614 44.008 12.2167 44.3165 12.5427L43.4383 13.3825C43.2179 13.1549 42.9724 12.9811 42.7017 12.861C42.431 12.7411 42.107 12.6811 41.7291 12.6811C41.4206 12.6811 41.128 12.7351 40.8509 12.8426C40.5739 12.9503 40.3316 13.1026 40.1238 13.2994C39.9161 13.4964 39.7508 13.7346 39.628 14.0145C39.5053 14.2946 39.4438 14.6068 39.4438 14.9511C39.4438 15.2958 39.5053 15.6079 39.628 15.8878C39.7508 16.1679 39.9176 16.4061 40.1285 16.6029C40.3394 16.7999 40.5833 16.9522 40.8603 17.0597C41.1374 17.1674 41.4332 17.2213 41.7481 17.2213C42.107 17.2213 42.4105 17.1705 42.6592 17.069C42.9079 16.9675 43.1204 16.8368 43.2967 16.6768C43.4225 16.5661 43.5312 16.4262 43.6224 16.2569C43.7137 16.0879 43.7845 15.8986 43.8351 15.6894H41.7102V14.6282H45.0248C45.0437 14.702 45.0594 14.7913 45.072 14.8958C45.0845 15.0005 45.0909 15.105 45.0909 15.2096C45.0909 15.634 45.0248 16.034 44.8926 16.4092C44.7604 16.7845 44.5527 17.1198 44.2693 17.415C43.9672 17.7288 43.6051 17.9718 43.1833 18.144C42.7615 18.3161 42.2799 18.4024 41.7385 18.4024C41.2475 18.4024 40.7847 18.3161 40.3505 18.144C39.9161 17.9718 39.5384 17.732 39.2172 17.4243C38.8962 17.1167 38.6412 16.7521 38.4523 16.3308C38.2635 15.9094 38.169 15.4496 38.169 14.9511C38.169 14.4528 38.2635 13.9931 38.4523 13.5716C38.6412 13.1504 38.8962 12.7858 39.2172 12.4781C39.5384 12.1705 39.9161 11.9307 40.3505 11.7583C40.7847 11.5862 41.2475 11.5 41.7385 11.5ZM72.4189 11.5C72.9225 11.5 73.3899 11.5892 73.8213 11.7677C74.2523 11.946 74.6254 12.1906 74.9401 12.5011C75.2549 12.8119 75.5021 13.178 75.6815 13.5993C75.861 14.0208 75.9506 14.4713 75.9506 14.9511C75.9506 15.4311 75.861 15.8817 75.6815 16.3031C75.5021 16.7245 75.2549 17.0906 74.9401 17.4011C74.6254 17.7119 74.2523 17.9565 73.8213 18.1347C73.3899 18.3132 72.9225 18.4024 72.4189 18.4024C71.9151 18.4024 71.4477 18.3132 71.0166 18.1347C70.5853 17.9565 70.2124 17.7119 69.8975 17.4011C69.5827 17.0906 69.3357 16.7245 69.1563 16.3031C68.9769 15.8817 68.8872 15.4311 68.8872 14.9511C68.8872 14.4713 68.9769 14.0208 69.1563 13.5993C69.3357 13.178 69.5827 12.8119 69.8975 12.5011C70.2124 12.1906 70.5853 11.946 71.0166 11.7677C71.4477 11.5892 71.9151 11.5 72.4189 11.5ZM50.4357 11.6476V12.8288H47.4234V14.3606H50.1335V15.5418H47.4234V17.0736H50.4357V18.2548H46.1485V11.6476H50.4357ZM56.2054 11.6476V12.8288H54.3167V18.2548H53.0419V12.8288H51.1532V11.6476H56.2054ZM60.464 11.6476V18.2548H59.1892V11.6476H60.464ZM66.4225 11.6476V12.8288H64.534V18.2548H63.2591V12.8288H61.3704V11.6476H66.4225ZM78.4624 11.6476L81.182 16.077H81.2576L81.182 14.8035V11.6476H82.4474V18.2548H81.1064L78.2357 13.5763H78.1602L78.2357 14.8497V18.2548H76.9799V11.6476H78.4624ZM72.4189 12.6811C72.104 12.6811 71.8099 12.7364 71.536 12.8472C71.2621 12.9579 71.0228 13.1118 70.8183 13.3086C70.6136 13.5056 70.4532 13.744 70.3367 14.0237C70.2201 14.3038 70.162 14.6129 70.162 14.9511C70.162 15.2896 70.2201 15.5988 70.3367 15.8785C70.4532 16.1585 70.6136 16.3969 70.8183 16.5938C71.0228 16.7907 71.2621 16.9445 71.536 17.0552C71.8099 17.1659 72.104 17.2213 72.4189 17.2213C72.7336 17.2213 73.0279 17.1659 73.3018 17.0552C73.5757 16.9445 73.8148 16.7907 74.0196 16.5938C74.224 16.3969 74.3846 16.1585 74.5012 15.8785C74.6175 15.5988 74.6758 15.2896 74.6758 14.9511C74.6758 14.6129 74.6175 14.3038 74.5012 14.0237C74.3846 13.744 74.224 13.5056 74.0196 13.3086C73.8148 13.1118 73.5757 12.9579 73.3018 12.8472C73.0279 12.7364 72.7336 12.6811 72.4189 12.6811Z" fill="white"/>
</svg>
