<svg width="140" height="49" viewBox="0 0 140 49" fill="none" xmlns="http://www.w3.org/2000/svg">
<path d="M132 0.5H8C3.58172 0.5 0 4.08172 0 8.5V40.5C0 44.9183 3.58172 48.5 8 48.5H132C136.418 48.5 140 44.9183 140 40.5V8.5C140 4.08172 136.418 0.5 132 0.5Z" fill="#2E2E2E"/>
<path fill-rule="evenodd" clip-rule="evenodd" d="M28.3347 17.5865C30.082 17.5865 31.9334 18.5524 33.2528 20.2237C28.9305 22.6289 29.6325 28.8985 34 30.5744C33.3986 31.9279 33.1108 32.5319 32.3369 33.7281C31.2564 35.3985 29.7341 37.4781 27.8478 37.4955C26.1713 37.5113 25.7409 36.3874 23.4661 36.4002C21.1912 36.4128 20.716 37.5152 19.0394 37.4998C17.1529 37.482 15.7103 35.6038 14.63 33.9342C11.6093 29.2644 11.2936 23.7842 13.1563 20.8708C14.4805 18.8003 16.5686 17.5883 18.5327 17.5883C20.5321 17.5883 21.7891 18.7019 23.4422 18.7019C25.0457 18.7019 26.0233 17.5865 28.3347 17.5865ZM27.8274 11.5C28.0588 13.0799 27.4205 14.6265 26.5812 15.7211C25.6814 16.8941 24.1319 17.8024 22.6343 17.7554C22.3609 16.2433 23.0629 14.6873 23.9134 13.638C24.8506 12.4823 26.4558 11.5959 27.8274 11.5Z" fill="white"/>
<path fill-rule="evenodd" clip-rule="evenodd" d="M63.2681 25.5263C64.4982 25.5263 65.5219 26.0002 66.3493 26.9773C67.1691 27.9497 67.5818 29.2311 67.5818 30.8212C67.5818 32.6035 67.1001 33.998 66.1334 35.0324C65.272 35.946 64.1964 36.4051 62.918 36.4051C61.5338 36.4051 60.6122 35.9116 59.9389 34.9187V40.5H57.6496V29.1519C57.6496 28.0349 57.5966 27.0058 57.5379 25.6564H59.5764L59.7043 27.4106H59.7448C60.5214 26.1962 61.6923 25.5263 63.2681 25.5263ZM74.7244 25.5263C75.9553 25.5263 76.9817 26.0002 77.8041 26.9773C78.6286 27.9497 79.039 29.2311 79.039 30.8212C79.039 32.6035 78.5572 33.998 77.5905 35.0324C76.7269 35.946 75.6496 36.4051 74.3678 36.4051C72.9876 36.4051 72.0583 35.9116 71.385 34.9187V40.5H69.0958V29.1519C69.0958 28.0349 69.0533 27.0058 68.9975 25.6564H71.0303L71.1645 27.4106H71.2043C71.9821 26.1962 73.151 25.5263 74.7244 25.5263ZM105.003 25.5076C106.54 25.5076 107.769 26.0112 108.699 27.0339C109.583 28.0173 110.027 29.2973 110.027 30.858C110.027 32.4684 109.572 33.7821 108.656 34.8173C107.695 35.8754 106.422 36.4051 104.838 36.4051C103.305 36.4051 102.082 35.8966 101.174 34.8785C100.267 33.8636 99.8145 32.5754 99.8145 31.0292C99.8145 29.4112 100.282 28.0833 101.218 27.0529C102.157 26.0167 103.416 25.5076 105.003 25.5076ZM96.7013 23.1172V25.6564H99.1252V27.5456H96.7013V32.5376C96.7013 33.8269 97.1004 34.4659 98.002 34.4659C98.4166 34.4659 98.7296 34.4357 99.0039 34.3647L99.056 36.1237C98.5975 36.2958 97.9909 36.3829 97.2469 36.3829C96.3361 36.3829 95.5913 36.1071 95.0778 35.544C94.558 34.9876 94.2774 34.0475 94.2774 32.7286V27.5456H92.7961V25.6564H94.2774V23.8055L96.7013 23.1172ZM88.4407 21.462C89.7559 21.462 90.8512 21.6932 91.7253 22.1487L91.1405 24.0418C90.3252 23.5987 89.3986 23.374 88.3651 23.374C87.5481 23.374 86.9075 23.5823 86.4466 23.9743C86.0615 24.3379 85.8678 24.7748 85.8678 25.2891C85.8678 25.8587 86.0899 26.3339 86.5324 26.712C86.9198 27.0545 87.621 27.4251 88.6329 27.826C89.8818 28.3239 90.794 28.9152 91.3827 29.591C91.9674 30.2643 92.2622 31.1016 92.2622 32.1032C92.2622 33.3374 91.8318 34.3435 90.9797 35.1134C90.0336 35.9604 88.7218 36.3814 87.0391 36.3814C85.4796 36.3814 84.2326 36.0789 83.2911 35.4796L83.8293 33.5448C84.8441 34.1441 85.9591 34.4483 87.1723 34.4483C88.0488 34.4483 88.7264 34.2484 89.2133 33.8572C89.697 33.4644 89.9405 32.9381 89.9405 32.2704C89.9405 31.6907 89.74 31.1958 89.3419 30.792C88.9377 30.3915 88.2779 30.0215 87.3469 29.6742C84.8175 28.7308 83.5504 27.3475 83.5504 25.5273C83.5504 24.3379 83.9923 23.36 84.888 22.601C85.7822 21.8432 86.9657 21.462 88.4407 21.462ZM122.665 25.4826C124.172 25.4826 125.308 26.0404 126.077 27.1567C126.69 28.0481 127 29.1898 127 30.4946C127 30.907 126.97 31.324 126.915 31.5938H119.962C119.989 32.5384 120.326 33.3667 120.972 33.9101C121.556 34.3986 122.314 34.6215 123.245 34.6215C124.277 34.6215 125.211 34.4465 126.056 34.1117L126.421 35.7212C125.438 36.1549 124.269 36.362 122.921 36.362C121.308 36.362 120.038 35.8869 119.115 34.9341C118.193 33.9814 117.729 32.701 117.729 31.0968C117.729 29.5171 118.16 28.208 119.016 27.1569C119.921 26.0406 121.137 25.4826 122.665 25.4826ZM51.5304 21.6081L56.2104 36.0469H53.7408L52.3903 31.8637H47.6898L46.4007 36.0469H44L48.652 21.6081H51.5304ZM117.035 25.5478V27.76C116.9 27.7182 116.543 27.701 116.287 27.701C115.472 27.701 114.836 28.0088 114.391 28.624C114.004 29.1699 113.803 29.8478 113.803 30.6861V36.0469H111.514V29.0048C111.514 27.8078 111.464 26.7359 111.424 25.6564H113.44L113.526 27.8155H113.59C113.832 27.1408 114.216 26.5272 114.748 26.1148C115.263 25.7379 115.841 25.5328 116.442 25.5328C116.654 25.5328 116.9 25.5196 117.035 25.5478ZM104.919 27.2061C103.991 27.2061 103.283 27.6185 102.799 28.4489C102.38 29.1322 102.174 29.9666 102.174 30.9531C102.174 31.9149 102.38 32.7346 102.799 33.4196C103.294 34.2484 103.996 34.6609 104.901 34.6609C105.782 34.6609 106.479 34.2429 106.977 33.3938C107.409 32.7004 107.625 31.8682 107.625 30.9132C107.625 29.957 107.418 29.1322 107.005 28.4489C106.512 27.6185 105.821 27.2061 104.919 27.2061ZM73.974 27.3506C73.4 27.3506 72.8871 27.5391 72.42 27.9186C71.9552 28.3034 71.6418 28.8015 71.4979 29.4182C71.4265 29.7072 71.385 29.9415 71.385 30.1292V31.8682C71.385 32.6294 71.6219 33.2729 72.0889 33.7961C72.5528 34.3144 73.1623 34.5777 73.9027 34.5777C74.78 34.5777 75.4603 34.2429 75.9472 33.5675C76.4347 32.8933 76.68 32.005 76.68 30.8982C76.68 29.883 76.4499 29.0436 75.9937 28.386C75.4894 27.701 74.8167 27.3506 73.974 27.3506ZM62.5139 27.3506C61.9429 27.3506 61.4269 27.5391 60.9604 27.9186C60.4943 28.3034 60.1901 28.8015 60.0462 29.4182C59.9758 29.7072 59.9389 29.9415 59.9389 30.1292V31.8682C59.9389 32.6294 60.1687 33.2729 60.6365 33.7961C61.1006 34.3144 61.7068 34.5777 62.4494 34.5777C63.3199 34.5777 64.0047 34.2429 64.4901 33.5675C64.9764 32.8933 65.2176 32.005 65.2176 30.8982C65.2176 29.883 64.9917 29.0436 64.5334 28.386C64.0303 27.701 63.359 27.3506 62.5139 27.3506ZM50.028 23.6323H49.9874C49.8417 24.307 49.616 25.205 49.2985 26.4107L48.0965 30.2444H51.9791L50.7612 26.4107C50.6295 26.022 50.3837 24.9817 50.028 23.6323ZM122.494 27.0922C121.738 27.0922 121.123 27.4805 120.649 28.1075C120.263 28.608 120.032 29.1649 119.962 29.9745H124.789C124.802 29.1649 124.655 28.6316 124.341 28.1272C123.939 27.4846 123.322 27.0922 122.494 27.0922ZM55.0239 12.7453C56.5566 12.7453 57.5819 13.8258 57.5819 15.3933C57.5819 17.2892 56.25 18.1365 54.9394 18.1365C53.4808 18.1365 52.3604 17.1304 52.3604 15.478C52.3604 13.7834 53.4702 12.7453 55.0239 12.7453ZM77.5812 12.7453C79.1139 12.7453 80.1391 13.8258 80.1391 15.3933C80.1391 17.2892 78.8073 18.1365 77.4966 18.1365C76.0381 18.1365 74.9176 17.1304 74.9176 15.478C74.9176 13.7834 76.0275 12.7453 77.5812 12.7453ZM97.2422 12.7453C98.7748 12.7453 99.8001 13.8258 99.8001 15.3933C99.8001 17.2892 98.4683 18.1365 97.1577 18.1365C95.699 18.1365 94.5786 17.1304 94.5786 15.478C94.5786 13.7834 95.6885 12.7453 97.2422 12.7453ZM83.0779 12.7453C84.7268 12.7453 85.2025 13.7939 85.2025 14.9166V16.7809C85.2025 17.2468 85.2236 17.7024 85.2764 18.02H84.1032L84.0187 17.4482H83.987C83.6699 17.8506 83.1308 18.1365 82.4649 18.1365C81.429 18.1365 80.8478 17.3846 80.8478 16.6009C80.8478 15.298 81.9998 14.6414 83.9025 14.6519V14.5671C83.9025 14.2283 83.765 13.6668 82.856 13.6668C82.3486 13.6668 81.8202 13.8258 81.4713 14.0482L81.2177 13.2009C81.5981 12.9678 82.264 12.7453 83.0779 12.7453ZM91.3227 10.5V16.569C91.3227 17.0987 91.3438 17.6705 91.365 18.02H90.2023L90.1495 17.2045H90.1282C89.8219 17.7765 89.1981 18.1365 88.4477 18.1365C87.2217 18.1365 86.2492 17.088 86.2492 15.4992C86.2387 13.7727 87.3168 12.7453 88.5535 12.7453C89.2616 12.7453 89.769 13.042 90.0015 13.4232H90.0227V10.5H91.3227ZM121.047 12.7453C122.717 12.7453 123.266 14.1222 123.266 15.2556C123.266 15.4992 123.245 15.6899 123.224 15.8063H119.778C119.81 16.7385 120.539 17.141 121.364 17.141C121.966 17.141 122.4 17.0563 122.791 16.9078L122.981 17.8082C122.537 17.9883 121.924 18.126 121.184 18.126C119.514 18.126 118.531 17.0987 118.531 15.5204C118.531 14.0905 119.398 12.7453 121.047 12.7453ZM110.593 11.3895V12.8619H111.829V13.8363H110.593V16.1136C110.593 16.7385 110.762 17.0668 111.259 17.0668C111.48 17.0668 111.649 17.035 111.766 17.0033L111.787 17.9989C111.597 18.0731 111.259 18.126 110.846 18.126C110.371 18.126 109.969 17.9671 109.726 17.7024C109.451 17.4056 109.324 16.9397 109.324 16.2619V13.8363H108.584V12.8619H109.324V11.6968L110.593 11.3895ZM47.5929 10.8283C48.9247 10.8283 49.8443 11.1036 50.4995 11.6544C51.1866 12.2158 51.6094 13.0631 51.6094 14.2812C51.6094 15.5522 51.1761 16.5055 50.4995 17.1197C49.7914 17.7658 48.6605 18.0941 47.2758 18.0941C46.5148 18.0941 45.944 18.0519 45.5213 17.9989V10.9765C46.092 10.8812 46.8213 10.8283 47.5929 10.8283ZM59.3474 12.8619L59.8865 15.2026C60.0028 15.7534 60.119 16.3148 60.2141 16.8761H60.2353C60.341 16.3148 60.5101 15.7429 60.6581 15.2132L61.324 12.8619H62.3809L63.0257 15.1497C63.1842 15.7534 63.3217 16.3148 63.4379 16.8761H63.459C63.5436 16.3148 63.6598 15.7534 63.7973 15.1497L64.368 12.8619H65.647L64.0297 18.02H62.8249L62.2118 15.9229C62.0533 15.3827 61.937 14.8955 61.8208 14.2705H61.7996C61.6939 14.9061 61.5566 15.4146 61.4086 15.9229L60.7532 18.02H59.5377L58.0156 12.8619H59.3474ZM69.3153 12.7453C70.2136 12.7453 71.1437 13.328 71.1437 14.959V18.02H69.8437V15.1073C69.8437 14.3659 69.569 13.8046 68.8607 13.8046C68.3428 13.8046 67.9835 14.1753 67.846 14.5671C67.8037 14.6837 67.7932 14.8426 67.7932 14.9909V18.02H66.4826V14.3977C66.4826 13.8046 66.4721 13.3067 66.4403 12.8619H67.5818L67.6452 13.6351H67.6769C67.8989 13.2326 68.4591 12.7453 69.3153 12.7453ZM73.8395 10.5V18.02H72.5289V10.5H73.8395ZM103.701 12.7453C104.599 12.7453 105.529 13.328 105.529 14.959V18.02H104.229V15.1073C104.229 14.3659 103.954 13.8046 103.246 13.8046C102.728 13.8046 102.369 14.1753 102.231 14.5671C102.189 14.6837 102.179 14.8426 102.179 14.9909V18.02H100.868V14.3977C100.868 13.8046 100.857 13.3067 100.826 12.8619H101.967L102.031 13.6351H102.062C102.284 13.2326 102.845 12.7453 103.701 12.7453ZM114.123 10.5V13.5715H114.144C114.303 13.328 114.514 13.1266 114.789 12.9783C115.043 12.83 115.349 12.7453 115.677 12.7453C116.554 12.7453 117.474 13.328 117.474 14.9802V18.02H116.174V15.1285C116.174 14.3765 115.899 13.8151 115.18 13.8151C114.673 13.8151 114.313 14.1541 114.176 14.546C114.134 14.6519 114.123 14.7895 114.123 14.9378V18.02H112.813V10.5H114.123ZM82.1373 16.4631C82.1373 16.9715 82.4649 17.2045 82.8771 17.2045C83.3951 17.2045 83.7756 16.8655 83.8918 16.4948C83.9235 16.3995 83.9341 16.2936 83.9341 16.2088V15.4992C83.0145 15.478 82.1373 15.6792 82.1373 16.4631ZM97.2104 13.6987C96.291 13.6987 95.9209 14.5883 95.9209 15.4463C95.9209 16.4419 96.4072 17.1939 97.1999 17.1939C97.9398 17.1939 98.4577 16.4631 98.4577 15.4251C98.4577 14.62 98.0984 13.6987 97.2104 13.6987ZM54.9922 13.6987C54.0728 13.6987 53.7027 14.5883 53.7027 15.4463C53.7027 16.4419 54.189 17.1939 54.9817 17.1939C55.7216 17.1939 56.2395 16.4631 56.2395 15.4251C56.2395 14.62 55.8801 13.6987 54.9922 13.6987ZM77.5496 13.6987C76.63 13.6987 76.26 14.5883 76.26 15.4463C76.26 16.4419 76.7463 17.1939 77.5389 17.1939C78.2789 17.1939 78.7968 16.4631 78.7968 15.4251C78.7968 14.62 78.4374 13.6987 77.5496 13.6987ZM88.8705 13.7516C88.0355 13.7516 87.5705 14.4929 87.5705 15.4568C87.5705 16.3995 88.0355 17.088 88.86 17.088C89.3884 17.088 89.8535 16.7278 89.9804 16.1665C90.012 16.05 90.0227 15.9229 90.0227 15.7853V15.0121C90.0227 14.9061 90.012 14.779 89.9909 14.6731C89.8747 14.1646 89.4625 13.7516 88.8705 13.7516ZM47.7092 11.8451C47.2969 11.8451 47.0009 11.8768 46.8213 11.9192V17.0244C47.0009 17.0563 47.2758 17.0563 47.5401 17.0563C49.2312 17.0668 50.2353 16.1346 50.2353 14.3236C50.246 12.7453 49.3369 11.8451 47.7092 11.8451ZM120.973 13.6351C120.169 13.6351 119.831 14.3659 119.778 14.8955H122.04C122.051 14.4188 121.839 13.6351 120.973 13.6351Z" fill="white"/>
</svg>
