<svg width="974" height="228" viewBox="0 0 974 228" fill="none" xmlns="http://www.w3.org/2000/svg">
<g clip-path="url(#clip0_2053_5921)">
<rect x="0.5" y="0.5" width="973" height="227" rx="16" fill="#00142E"/>
<g style="mix-blend-mode:plus-lighter" opacity="0.15">
<path d="M873.013 149.82C866.627 152.674 859.135 149.815 856.285 143.437L841.711 110.824C838.86 104.445 841.728 96.9567 848.115 94.1027C854.501 91.2488 861.993 94.1075 864.843 100.486L879.412 133.086C882.262 139.465 879.394 146.953 873.008 149.807L873.013 149.82Z" fill="#F1F6FE"/>
<path d="M809.767 201.076C805.767 202.864 800.948 202.535 797.154 199.783L768.227 178.848C762.557 174.751 761.298 166.829 765.41 161.173C769.515 155.504 777.446 154.239 783.102 158.342L812.029 179.277C817.699 183.374 818.958 191.297 814.852 196.965C813.498 198.828 811.727 200.216 809.773 201.09L809.767 201.076Z" fill="#F1F6FE"/>
<path d="M953.395 137.014C951.428 137.893 949.226 138.281 946.935 138.047C939.973 137.325 934.916 131.115 935.64 124.145L939.341 88.629C940.07 81.6719 946.29 76.6141 953.252 77.3369C960.214 78.0597 965.271 84.2696 964.541 91.2267L960.841 126.742C960.359 131.404 957.389 135.214 953.39 137.001L953.395 137.014Z" fill="#F1F6FE"/>
<path d="M862.186 346.296C857.098 348.57 851.889 349.483 846.323 348.435C831.532 345.648 824.45 329.8 822.121 324.587C798.182 271.018 827.912 205.455 888.406 178.421C948.9 151.388 1017.58 172.976 1041.51 226.545C1043.84 231.758 1050.93 247.606 1043.14 260.484C1034.85 274.195 1016.67 275.361 995.613 276.693C977.209 277.862 956.349 279.201 937.255 287.734C918.161 296.267 903.261 310.908 890.1 323.844C880.372 333.408 871.491 342.122 862.18 346.283L862.186 346.296ZM851.42 321.959C851.525 321.912 851.63 321.865 851.748 321.813C856.076 319.879 864.843 311.263 871.393 304.832C885.427 291.033 902.888 273.881 926.374 263.386C949.861 252.89 974.292 251.337 993.928 250.073C1003.33 249.469 1015.9 248.678 1019.99 246.612C1019.9 245.395 1019.42 242.593 1017.12 237.432C999.184 197.301 946.32 181.736 899.281 202.757C852.242 223.777 828.567 273.53 846.506 313.674C848.813 318.835 850.579 321.062 851.427 321.94L851.42 321.959Z" fill="#F1F6FE"/>
</g>
<g style="mix-blend-mode:plus-lighter" opacity="0.15">
<path d="M129.376 36.3018C125.376 34.5144 120.557 34.8434 116.763 37.5948C111.093 41.6921 109.834 49.6145 113.94 55.2834L134.913 84.2188C139.025 89.8745 146.949 91.153 152.606 87.0498C158.276 82.9525 159.535 75.0301 155.429 69.3613L134.456 40.4259C133.101 38.5635 131.33 37.175 129.376 36.3018Z" fill="#F1F6FE"/>
<path d="M53.3586 65.34C51.3916 64.461 49.189 64.0738 46.8979 64.3071C39.9357 65.0298 34.8794 71.2397 35.6034 78.2099L39.3037 113.725C40.0335 120.683 46.2532 125.74 53.2153 125.018C60.1775 124.295 65.2338 118.085 64.504 111.128L60.8037 75.6123C60.3225 70.9505 57.3525 67.1405 53.3528 65.3531L53.3586 65.34Z" fill="#F1F6FE"/>
<path d="M-37.8511 -143.941C-42.9393 -146.215 -48.1477 -147.128 -53.7135 -146.08C-68.5046 -143.293 -75.5868 -127.445 -77.9163 -122.232C-101.855 -68.6627 -72.1251 -3.09921 -11.631 23.9342C48.8631 50.9676 117.539 29.3795 141.478 -24.1897C143.807 -29.4026 150.89 -45.2507 143.099 -58.1288C134.815 -71.84 116.63 -73.0055 95.5766 -74.3371C77.1726 -75.5062 56.312 -76.846 37.2183 -85.3785C18.1246 -93.9111 3.22377 -108.552 -9.93726 -121.489C-19.6654 -131.053 -28.5462 -139.767 -37.857 -143.928L-37.8511 -143.941ZM-48.6167 -119.604C-48.5118 -119.557 -48.4069 -119.51 -48.2888 -119.457C-43.9613 -117.523 -35.194 -108.907 -28.6441 -102.476C-14.6095 -88.6777 2.8507 -71.5258 26.3376 -61.0301C49.8244 -50.5343 74.2556 -48.9817 93.8915 -47.7177C103.297 -47.113 115.86 -46.3227 119.956 -44.2569C119.868 -43.0391 119.387 -40.2372 117.08 -35.0767C99.1468 5.05437 46.2832 20.6196 -0.756078 -0.40118C-47.7954 -21.4219 -71.4699 -71.1746 -53.5304 -111.319C-51.2243 -116.479 -49.458 -118.707 -48.6094 -119.585L-48.6167 -119.604Z" fill="#F1F6FE"/>
</g>
<path d="M164.768 81.1364V117.5H157.08V88.4339H156.866L148.539 93.6541V86.8359L157.541 81.1364H164.768ZM187.718 118.299C184.664 118.287 182.036 117.536 179.835 116.044C177.645 114.553 175.958 112.392 174.774 109.563C173.602 106.734 173.022 103.331 173.034 99.3537C173.034 95.3883 173.62 92.0088 174.792 89.2152C175.976 86.4216 177.663 84.2969 179.852 82.8409C182.054 81.3731 184.676 80.6392 187.718 80.6392C190.76 80.6392 193.376 81.3731 195.566 82.8409C197.768 84.3087 199.461 86.4394 200.644 89.233C201.828 92.0147 202.414 95.3883 202.402 99.3537C202.402 103.343 201.81 106.752 200.627 109.581C199.455 112.41 197.774 114.57 195.584 116.062C193.394 117.553 190.772 118.299 187.718 118.299ZM187.718 111.925C189.801 111.925 191.465 110.877 192.707 108.782C193.95 106.687 194.566 103.544 194.554 99.3537C194.554 96.5956 194.27 94.2992 193.702 92.4645C193.145 90.6297 192.352 89.2507 191.323 88.3274C190.305 87.4041 189.103 86.9425 187.718 86.9425C185.647 86.9425 183.989 87.9782 182.747 90.0497C181.504 92.1212 180.876 95.2225 180.864 99.3537C180.864 102.147 181.143 104.479 181.699 106.349C182.267 108.208 183.066 109.605 184.096 110.54C185.126 111.463 186.333 111.925 187.718 111.925ZM222.192 118.299C219.138 118.287 216.51 117.536 214.308 116.044C212.119 114.553 210.432 112.392 209.248 109.563C208.076 106.734 207.496 103.331 207.508 99.3537C207.508 95.3883 208.094 92.0088 209.266 89.2152C210.45 86.4216 212.136 84.2969 214.326 82.8409C216.528 81.3731 219.15 80.6392 222.192 80.6392C225.234 80.6392 227.85 81.3731 230.04 82.8409C232.242 84.3087 233.934 86.4394 235.118 89.233C236.302 92.0147 236.888 95.3883 236.876 99.3537C236.876 103.343 236.284 106.752 235.1 109.581C233.928 112.41 232.248 114.57 230.058 116.062C227.868 117.553 225.246 118.299 222.192 118.299ZM222.192 111.925C224.275 111.925 225.938 110.877 227.181 108.782C228.424 106.687 229.04 103.544 229.028 99.3537C229.028 96.5956 228.744 94.2992 228.176 92.4645C227.619 90.6297 226.826 89.2507 225.796 88.3274C224.778 87.4041 223.577 86.9425 222.192 86.9425C220.12 86.9425 218.463 87.9782 217.22 90.0497C215.977 92.1212 215.35 95.2225 215.338 99.3537C215.338 102.147 215.616 104.479 216.173 106.349C216.741 108.208 217.54 109.605 218.57 110.54C219.6 111.463 220.807 111.925 222.192 111.925ZM242.621 117.5V81.1364H250.309V97.1697H250.789L263.875 81.1364H273.09L259.595 97.4183L273.25 117.5H264.052L254.091 102.55L250.309 107.166V117.5H242.621Z" fill="#FAFCFF"/>
<path d="M142.119 153.5V143.318H145.748C146.537 143.318 147.191 143.454 147.712 143.726C148.235 143.998 148.626 144.374 148.885 144.854C149.143 145.332 149.273 145.884 149.273 146.51C149.273 147.133 149.142 147.682 148.88 148.156C148.621 148.626 148.23 148.992 147.707 149.254C147.186 149.516 146.532 149.647 145.743 149.647H142.994V148.325H145.604C146.101 148.325 146.505 148.253 146.817 148.111C147.132 147.968 147.362 147.761 147.508 147.489C147.654 147.218 147.727 146.891 147.727 146.51C147.727 146.125 147.652 145.792 147.503 145.511C147.357 145.229 147.127 145.013 146.812 144.864C146.5 144.712 146.091 144.636 145.584 144.636H143.655V153.5H142.119ZM147.145 148.906L149.661 153.5H147.911L145.445 148.906H147.145ZM154.232 153.654C153.48 153.654 152.832 153.493 152.288 153.172C151.748 152.847 151.33 152.391 151.035 151.805C150.744 151.215 150.598 150.524 150.598 149.732C150.598 148.949 150.744 148.26 151.035 147.663C151.33 147.067 151.741 146.601 152.268 146.266C152.799 145.932 153.419 145.764 154.128 145.764C154.559 145.764 154.976 145.835 155.381 145.978C155.785 146.121 156.148 146.344 156.469 146.649C156.791 146.954 157.044 147.35 157.23 147.837C157.416 148.321 157.508 148.91 157.508 149.602V150.129H151.438V149.016H156.052C156.052 148.625 155.972 148.278 155.813 147.977C155.654 147.672 155.43 147.431 155.142 147.256C154.857 147.08 154.522 146.992 154.138 146.992C153.72 146.992 153.356 147.095 153.044 147.3C152.736 147.503 152.497 147.768 152.328 148.096C152.162 148.421 152.08 148.774 152.08 149.155V150.025C152.08 150.535 152.169 150.969 152.348 151.327C152.53 151.685 152.784 151.959 153.109 152.148C153.433 152.333 153.813 152.426 154.247 152.426C154.529 152.426 154.786 152.386 155.018 152.307C155.25 152.224 155.45 152.101 155.619 151.939C155.788 151.777 155.918 151.576 156.007 151.337L157.414 151.591C157.301 152.005 157.099 152.368 156.808 152.68C156.519 152.988 156.156 153.228 155.719 153.401C155.285 153.57 154.789 153.654 154.232 153.654ZM162.374 156.523C161.767 156.523 161.245 156.443 160.807 156.284C160.373 156.125 160.019 155.915 159.744 155.653C159.468 155.391 159.263 155.104 159.127 154.793L160.405 154.266C160.494 154.411 160.614 154.566 160.763 154.728C160.915 154.894 161.121 155.035 161.379 155.151C161.641 155.267 161.977 155.325 162.388 155.325C162.952 155.325 163.418 155.187 163.785 154.912C164.153 154.64 164.337 154.206 164.337 153.609V152.108H164.243C164.153 152.27 164.024 152.451 163.855 152.65C163.689 152.849 163.461 153.021 163.169 153.167C162.877 153.313 162.498 153.386 162.03 153.386C161.427 153.386 160.884 153.245 160.4 152.963C159.919 152.678 159.538 152.259 159.256 151.705C158.978 151.148 158.839 150.464 158.839 149.652C158.839 148.84 158.976 148.144 159.251 147.564C159.53 146.984 159.911 146.54 160.395 146.232C160.879 145.92 161.427 145.764 162.04 145.764C162.514 145.764 162.897 145.844 163.189 146.003C163.481 146.159 163.708 146.341 163.87 146.55C164.036 146.759 164.163 146.942 164.253 147.102H164.362V145.864H165.819V153.669C165.819 154.325 165.666 154.864 165.361 155.285C165.057 155.706 164.644 156.017 164.124 156.219C163.606 156.422 163.023 156.523 162.374 156.523ZM162.359 152.153C162.786 152.153 163.147 152.053 163.442 151.854C163.741 151.652 163.966 151.364 164.119 150.989C164.274 150.612 164.352 150.159 164.352 149.632C164.352 149.118 164.276 148.666 164.124 148.275C163.971 147.884 163.747 147.579 163.452 147.36C163.157 147.138 162.793 147.027 162.359 147.027C161.911 147.027 161.538 147.143 161.24 147.375C160.942 147.604 160.716 147.915 160.564 148.31C160.415 148.704 160.34 149.145 160.34 149.632C160.34 150.133 160.416 150.572 160.569 150.95C160.721 151.327 160.947 151.622 161.245 151.835C161.547 152.047 161.918 152.153 162.359 152.153ZM167.826 153.5V145.864H169.313V153.5H167.826ZM168.577 144.685C168.319 144.685 168.097 144.599 167.911 144.427C167.729 144.251 167.638 144.042 167.638 143.8C167.638 143.555 167.729 143.346 167.911 143.174C168.097 142.998 168.319 142.911 168.577 142.911C168.836 142.911 169.056 142.998 169.238 143.174C169.424 143.346 169.517 143.555 169.517 143.8C169.517 144.042 169.424 144.251 169.238 144.427C169.056 144.599 168.836 144.685 168.577 144.685ZM177.049 147.728L175.702 147.967C175.645 147.794 175.556 147.63 175.433 147.474C175.314 147.319 175.152 147.191 174.946 147.092C174.741 146.992 174.484 146.942 174.175 146.942C173.755 146.942 173.403 147.037 173.122 147.226C172.84 147.411 172.699 147.652 172.699 147.947C172.699 148.202 172.793 148.407 172.982 148.563C173.171 148.719 173.476 148.847 173.897 148.946L175.11 149.224C175.813 149.387 176.336 149.637 176.681 149.975C177.026 150.313 177.198 150.752 177.198 151.293C177.198 151.75 177.066 152.158 176.8 152.516C176.539 152.87 176.172 153.149 175.702 153.351C175.234 153.553 174.693 153.654 174.076 153.654C173.221 153.654 172.523 153.472 171.983 153.107C171.443 152.739 171.111 152.217 170.989 151.541L172.425 151.322C172.515 151.697 172.699 151.98 172.977 152.173C173.256 152.362 173.619 152.456 174.066 152.456C174.553 152.456 174.943 152.355 175.234 152.153C175.526 151.947 175.672 151.697 175.672 151.402C175.672 151.163 175.582 150.963 175.403 150.8C175.228 150.638 174.958 150.515 174.593 150.433L173.3 150.149C172.588 149.987 172.061 149.728 171.72 149.374C171.381 149.019 171.212 148.57 171.212 148.026C171.212 147.576 171.338 147.181 171.59 146.843C171.842 146.505 172.19 146.241 172.634 146.053C173.078 145.86 173.587 145.764 174.161 145.764C174.986 145.764 175.635 145.943 176.109 146.301C176.583 146.656 176.897 147.131 177.049 147.728ZM182.411 145.864V147.057H178.24V145.864H182.411ZM179.359 144.034H180.845V151.258C180.845 151.546 180.888 151.763 180.974 151.909C181.061 152.052 181.172 152.149 181.308 152.202C181.447 152.252 181.598 152.277 181.76 152.277C181.879 152.277 181.984 152.269 182.073 152.252C182.163 152.236 182.232 152.222 182.282 152.212L182.55 153.44C182.464 153.473 182.342 153.507 182.183 153.54C182.023 153.576 181.825 153.596 181.586 153.599C181.195 153.606 180.83 153.536 180.492 153.391C180.154 153.245 179.881 153.019 179.672 152.714C179.463 152.41 179.359 152.027 179.359 151.566V144.034ZM187.279 153.654C186.526 153.654 185.878 153.493 185.335 153.172C184.795 152.847 184.377 152.391 184.082 151.805C183.79 151.215 183.645 150.524 183.645 149.732C183.645 148.949 183.79 148.26 184.082 147.663C184.377 147.067 184.788 146.601 185.315 146.266C185.845 145.932 186.465 145.764 187.174 145.764C187.605 145.764 188.023 145.835 188.427 145.978C188.832 146.121 189.194 146.344 189.516 146.649C189.837 146.954 190.091 147.35 190.277 147.837C190.462 148.321 190.555 148.91 190.555 149.602V150.129H184.485V149.016H189.098C189.098 148.625 189.019 148.278 188.86 147.977C188.701 147.672 188.477 147.431 188.189 147.256C187.904 147.08 187.569 146.992 187.184 146.992C186.767 146.992 186.402 147.095 186.091 147.3C185.782 147.503 185.544 147.768 185.375 148.096C185.209 148.421 185.126 148.774 185.126 149.155V150.025C185.126 150.535 185.216 150.969 185.395 151.327C185.577 151.685 185.83 151.959 186.155 152.148C186.48 152.333 186.86 152.426 187.294 152.426C187.575 152.426 187.832 152.386 188.064 152.307C188.296 152.224 188.497 152.101 188.666 151.939C188.835 151.777 188.964 151.576 189.054 151.337L190.461 151.591C190.348 152.005 190.146 152.368 189.854 152.68C189.566 152.988 189.203 153.228 188.765 153.401C188.331 153.57 187.836 153.654 187.279 153.654ZM192.218 153.5V145.864H193.655V147.077H193.735C193.874 146.666 194.119 146.343 194.471 146.107C194.825 145.869 195.226 145.749 195.674 145.749C195.766 145.749 195.876 145.753 196.002 145.759C196.131 145.766 196.232 145.774 196.305 145.784V147.206C196.245 147.189 196.139 147.171 195.987 147.151C195.834 147.128 195.682 147.116 195.529 147.116C195.178 147.116 194.865 147.191 194.59 147.34C194.318 147.486 194.103 147.69 193.944 147.952C193.784 148.21 193.705 148.505 193.705 148.837V153.5H192.218ZM200.623 153.654C199.871 153.654 199.223 153.493 198.679 153.172C198.139 152.847 197.721 152.391 197.426 151.805C197.135 151.215 196.989 150.524 196.989 149.732C196.989 148.949 197.135 148.26 197.426 147.663C197.721 147.067 198.132 146.601 198.659 146.266C199.19 145.932 199.81 145.764 200.519 145.764C200.95 145.764 201.367 145.835 201.772 145.978C202.176 146.121 202.539 146.344 202.86 146.649C203.182 146.954 203.435 147.35 203.621 147.837C203.807 148.321 203.899 148.91 203.899 149.602V150.129H197.829V149.016H202.443C202.443 148.625 202.363 148.278 202.204 147.977C202.045 147.672 201.821 147.431 201.533 147.256C201.248 147.08 200.913 146.992 200.529 146.992C200.111 146.992 199.747 147.095 199.435 147.3C199.127 147.503 198.888 147.768 198.719 148.096C198.553 148.421 198.47 148.774 198.47 149.155V150.025C198.47 150.535 198.56 150.969 198.739 151.327C198.921 151.685 199.175 151.959 199.5 152.148C199.824 152.333 200.204 152.426 200.638 152.426C200.92 152.426 201.177 152.386 201.409 152.307C201.641 152.224 201.841 152.101 202.01 151.939C202.179 151.777 202.309 151.576 202.398 151.337L203.805 151.591C203.692 152.005 203.49 152.368 203.198 152.68C202.91 152.988 202.547 153.228 202.11 153.401C201.676 153.57 201.18 153.654 200.623 153.654ZM208.421 153.649C207.805 153.649 207.255 153.492 206.771 153.177C206.29 152.859 205.912 152.406 205.637 151.82C205.366 151.23 205.23 150.522 205.23 149.697C205.23 148.871 205.367 148.165 205.642 147.579C205.921 146.992 206.302 146.543 206.786 146.232C207.27 145.92 207.818 145.764 208.431 145.764C208.905 145.764 209.287 145.844 209.575 146.003C209.867 146.159 210.092 146.341 210.251 146.55C210.413 146.759 210.539 146.942 210.629 147.102H210.718V143.318H212.205V153.5H210.753V152.312H210.629C210.539 152.474 210.41 152.66 210.241 152.869C210.075 153.077 209.847 153.26 209.555 153.415C209.263 153.571 208.885 153.649 208.421 153.649ZM208.75 152.381C209.177 152.381 209.538 152.269 209.833 152.043C210.132 151.815 210.357 151.498 210.51 151.094C210.665 150.689 210.743 150.219 210.743 149.682C210.743 149.152 210.667 148.687 210.514 148.29C210.362 147.892 210.138 147.582 209.843 147.36C209.548 147.138 209.184 147.027 208.75 147.027C208.302 147.027 207.929 147.143 207.631 147.375C207.333 147.607 207.107 147.924 206.955 148.325C206.806 148.726 206.731 149.178 206.731 149.682C206.731 150.192 206.807 150.651 206.96 151.059C207.112 151.467 207.338 151.79 207.636 152.028C207.938 152.264 208.309 152.381 208.75 152.381ZM218.06 153.5V145.864H219.546V153.5H218.06ZM218.81 144.685C218.552 144.685 218.33 144.599 218.144 144.427C217.962 144.251 217.871 144.042 217.871 143.8C217.871 143.555 217.962 143.346 218.144 143.174C218.33 142.998 218.552 142.911 218.81 142.911C219.069 142.911 219.289 142.998 219.471 143.174C219.657 143.346 219.75 143.555 219.75 143.8C219.75 144.042 219.657 144.251 219.471 144.427C219.289 144.599 219.069 144.685 218.81 144.685ZM223.046 148.966V153.5H221.56V145.864H222.987V147.107H223.081C223.257 146.702 223.532 146.377 223.906 146.132C224.284 145.887 224.76 145.764 225.333 145.764C225.854 145.764 226.309 145.874 226.7 146.092C227.092 146.308 227.395 146.629 227.61 147.057C227.826 147.484 227.933 148.013 227.933 148.643V153.5H226.447V148.822C226.447 148.268 226.303 147.836 226.014 147.524C225.726 147.209 225.33 147.052 224.826 147.052C224.482 147.052 224.175 147.126 223.906 147.276C223.641 147.425 223.431 147.643 223.275 147.932C223.123 148.217 223.046 148.562 223.046 148.966ZM236.2 145.864L233.431 153.5H231.84L229.066 145.864H230.662L232.596 151.74H232.675L234.604 145.864H236.2ZM240.643 153.654C239.89 153.654 239.242 153.493 238.699 153.172C238.159 152.847 237.741 152.391 237.446 151.805C237.154 151.215 237.008 150.524 237.008 149.732C237.008 148.949 237.154 148.26 237.446 147.663C237.741 147.067 238.152 146.601 238.679 146.266C239.209 145.932 239.829 145.764 240.538 145.764C240.969 145.764 241.387 145.835 241.791 145.978C242.196 146.121 242.558 146.344 242.88 146.649C243.201 146.954 243.455 147.35 243.641 147.837C243.826 148.321 243.919 148.91 243.919 149.602V150.129H237.849V149.016H242.462C242.462 148.625 242.383 148.278 242.224 147.977C242.065 147.672 241.841 147.431 241.553 147.256C241.267 147.08 240.933 146.992 240.548 146.992C240.131 146.992 239.766 147.095 239.455 147.3C239.146 147.503 238.908 147.768 238.739 148.096C238.573 148.421 238.49 148.774 238.49 149.155V150.025C238.49 150.535 238.58 150.969 238.758 151.327C238.941 151.685 239.194 151.959 239.519 152.148C239.844 152.333 240.223 152.426 240.658 152.426C240.939 152.426 241.196 152.386 241.428 152.307C241.66 152.224 241.861 152.101 242.03 151.939C242.199 151.777 242.328 151.576 242.418 151.337L243.825 151.591C243.712 152.005 243.51 152.368 243.218 152.68C242.93 152.988 242.567 153.228 242.129 153.401C241.695 153.57 241.2 153.654 240.643 153.654ZM251.305 147.728L249.957 147.967C249.901 147.794 249.812 147.63 249.689 147.474C249.57 147.319 249.407 147.191 249.202 147.092C248.996 146.992 248.739 146.942 248.431 146.942C248.01 146.942 247.659 147.037 247.377 147.226C247.095 147.411 246.954 147.652 246.954 147.947C246.954 148.202 247.049 148.407 247.238 148.563C247.427 148.719 247.732 148.847 248.153 148.946L249.366 149.224C250.068 149.387 250.592 149.637 250.937 149.975C251.281 150.313 251.454 150.752 251.454 151.293C251.454 151.75 251.321 152.158 251.056 152.516C250.794 152.87 250.428 153.149 249.957 153.351C249.49 153.553 248.948 153.654 248.332 153.654C247.477 153.654 246.779 153.472 246.239 153.107C245.698 152.739 245.367 152.217 245.244 151.541L246.681 151.322C246.771 151.697 246.954 151.98 247.233 152.173C247.511 152.362 247.874 152.456 248.322 152.456C248.809 152.456 249.198 152.355 249.49 152.153C249.782 151.947 249.928 151.697 249.928 151.402C249.928 151.163 249.838 150.963 249.659 150.8C249.483 150.638 249.213 150.515 248.849 150.433L247.556 150.149C246.843 149.987 246.316 149.728 245.975 149.374C245.637 149.019 245.468 148.57 245.468 148.026C245.468 147.576 245.594 147.181 245.846 146.843C246.098 146.505 246.446 146.241 246.89 146.053C247.334 145.86 247.843 145.764 248.416 145.764C249.241 145.764 249.891 145.943 250.365 146.301C250.839 146.656 251.152 147.131 251.305 147.728ZM256.667 145.864V147.057H252.496V145.864H256.667ZM253.614 144.034H255.101V151.258C255.101 151.546 255.144 151.763 255.23 151.909C255.316 152.052 255.427 152.149 255.563 152.202C255.702 152.252 255.853 152.277 256.016 152.277C256.135 152.277 256.239 152.269 256.329 152.252C256.418 152.236 256.488 152.222 256.538 152.212L256.806 153.44C256.72 153.473 256.597 153.507 256.438 153.54C256.279 153.576 256.08 153.596 255.842 153.599C255.45 153.606 255.086 153.536 254.748 153.391C254.41 153.245 254.136 153.019 253.927 152.714C253.719 152.41 253.614 152.027 253.614 151.566V144.034ZM261.46 153.654C260.744 153.654 260.119 153.49 259.585 153.162C259.052 152.834 258.638 152.375 258.343 151.785C258.048 151.195 257.9 150.505 257.9 149.717C257.9 148.924 258.048 148.232 258.343 147.638C258.638 147.045 259.052 146.585 259.585 146.256C260.119 145.928 260.744 145.764 261.46 145.764C262.176 145.764 262.8 145.928 263.334 146.256C263.868 146.585 264.282 147.045 264.577 147.638C264.872 148.232 265.019 148.924 265.019 149.717C265.019 150.505 264.872 151.195 264.577 151.785C264.282 152.375 263.868 152.834 263.334 153.162C262.8 153.49 262.176 153.654 261.46 153.654ZM261.465 152.406C261.929 152.406 262.313 152.284 262.618 152.038C262.923 151.793 263.148 151.467 263.294 151.059C263.443 150.651 263.518 150.202 263.518 149.712C263.518 149.224 263.443 148.777 263.294 148.369C263.148 147.958 262.923 147.629 262.618 147.38C262.313 147.131 261.929 147.007 261.465 147.007C260.997 147.007 260.61 147.131 260.301 147.38C259.996 147.629 259.769 147.958 259.62 148.369C259.474 148.777 259.402 149.224 259.402 149.712C259.402 150.202 259.474 150.651 259.62 151.059C259.769 151.467 259.996 151.793 260.301 152.038C260.61 152.284 260.997 152.406 261.465 152.406ZM266.693 153.5V145.864H268.129V147.077H268.209C268.348 146.666 268.593 146.343 268.945 146.107C269.299 145.869 269.701 145.749 270.148 145.749C270.241 145.749 270.35 145.753 270.476 145.759C270.605 145.766 270.706 145.774 270.779 145.784V147.206C270.72 147.189 270.614 147.171 270.461 147.151C270.309 147.128 270.156 147.116 270.004 147.116C269.652 147.116 269.339 147.191 269.064 147.34C268.792 147.486 268.577 147.69 268.418 147.952C268.259 148.21 268.179 148.505 268.179 148.837V153.5H266.693ZM277.802 147.728L276.455 147.967C276.398 147.794 276.309 147.63 276.186 147.474C276.067 147.319 275.905 147.191 275.699 147.092C275.494 146.992 275.237 146.942 274.928 146.942C274.508 146.942 274.156 147.037 273.874 147.226C273.593 147.411 273.452 147.652 273.452 147.947C273.452 148.202 273.546 148.407 273.735 148.563C273.924 148.719 274.229 148.847 274.65 148.946L275.863 149.224C276.566 149.387 277.089 149.637 277.434 149.975C277.779 150.313 277.951 150.752 277.951 151.293C277.951 151.75 277.819 152.158 277.553 152.516C277.292 152.87 276.925 153.149 276.455 153.351C275.987 153.553 275.446 153.654 274.829 153.654C273.974 153.654 273.276 153.472 272.736 153.107C272.196 152.739 271.864 152.217 271.742 151.541L273.178 151.322C273.268 151.697 273.452 151.98 273.73 152.173C274.009 152.362 274.372 152.456 274.819 152.456C275.306 152.456 275.696 152.355 275.987 152.153C276.279 151.947 276.425 151.697 276.425 151.402C276.425 151.163 276.335 150.963 276.156 150.8C275.981 150.638 275.711 150.515 275.346 150.433L274.053 150.149C273.341 149.987 272.814 149.728 272.473 149.374C272.134 149.019 271.965 148.57 271.965 148.026C271.965 147.576 272.091 147.181 272.343 146.843C272.595 146.505 272.943 146.241 273.387 146.053C273.831 145.86 274.34 145.764 274.914 145.764C275.739 145.764 276.388 145.943 276.862 146.301C277.336 146.656 277.65 147.131 277.802 147.728Z" fill="#E6EEF6"/>
<path d="M386.314 111.96V86.8182H392.67V111.96H386.314ZM376.921 102.567V96.2109H402.063V102.567H376.921ZM440.11 81.1364V117.5H433.47L417.649 94.6129H417.383V117.5H409.695V81.1364H416.442L432.138 104.006H432.458V81.1364H440.11ZM460.255 117.997C458.385 117.985 456.58 117.672 454.84 117.056C453.112 116.441 451.561 115.44 450.188 114.055C448.815 112.67 447.726 110.836 446.921 108.551C446.128 106.267 445.731 103.461 445.731 100.135C445.743 97.081 446.092 94.3525 446.779 91.9496C447.477 89.5348 448.472 87.487 449.762 85.8061C451.064 84.1252 452.62 82.8468 454.431 81.9709C456.243 81.0831 458.273 80.6392 460.522 80.6392C462.948 80.6392 465.091 81.1127 466.949 82.0597C468.808 82.9948 470.299 84.2673 471.424 85.8771C472.56 87.487 473.247 89.2921 473.483 91.2926H465.902C465.606 90.026 464.984 89.0317 464.037 88.3097C463.09 87.5876 461.918 87.2266 460.522 87.2266C458.154 87.2266 456.355 88.2564 455.124 90.3161C453.905 92.3757 453.283 95.1752 453.26 98.7145H453.508C454.053 97.6373 454.787 96.7199 455.71 95.9624C456.645 95.1929 457.704 94.607 458.888 94.2045C460.084 93.7902 461.344 93.5831 462.67 93.5831C464.824 93.5831 466.742 94.0921 468.423 95.1101C470.104 96.1162 471.43 97.5012 472.4 99.2649C473.371 101.029 473.856 103.047 473.856 105.32C473.856 107.782 473.282 109.972 472.134 111.889C470.998 113.807 469.405 115.31 467.358 116.399C465.322 117.476 462.954 118.009 460.255 117.997ZM460.22 111.96C461.404 111.96 462.463 111.676 463.398 111.108C464.333 110.54 465.067 109.77 465.6 108.8C466.132 107.829 466.399 106.74 466.399 105.533C466.399 104.325 466.132 103.242 465.6 102.283C465.079 101.325 464.357 100.561 463.434 99.9929C462.51 99.4247 461.457 99.1406 460.273 99.1406C459.385 99.1406 458.563 99.3063 457.805 99.6378C457.059 99.9692 456.402 100.431 455.834 101.023C455.278 101.615 454.84 102.301 454.52 103.082C454.201 103.852 454.041 104.674 454.041 105.55C454.041 106.722 454.307 107.794 454.84 108.764C455.384 109.735 456.118 110.51 457.042 111.09C457.977 111.67 459.036 111.96 460.22 111.96ZM492.923 117.997C490.188 117.997 487.756 117.553 485.625 116.665C483.506 115.766 481.843 114.541 480.636 112.99C479.428 111.439 478.825 109.682 478.825 107.717C478.825 106.201 479.168 104.811 479.854 103.544C480.553 102.266 481.5 101.206 482.695 100.366C483.891 99.5135 485.228 98.969 486.708 98.7322V98.4837C484.767 98.093 483.192 97.152 481.985 95.6605C480.778 94.1572 480.174 92.4112 480.174 90.4226C480.174 88.5405 480.724 86.8655 481.825 85.3977C482.926 83.9181 484.435 82.758 486.353 81.9176C488.282 81.0653 490.472 80.6392 492.923 80.6392C495.373 80.6392 497.557 81.0653 499.474 81.9176C501.404 82.7699 502.919 83.9358 504.02 85.4155C505.121 86.8833 505.677 88.5523 505.689 90.4226C505.677 92.4231 505.062 94.169 503.842 95.6605C502.623 97.152 501.061 98.093 499.155 98.4837V98.7322C500.611 98.969 501.931 99.5135 503.114 100.366C504.31 101.206 505.257 102.266 505.955 103.544C506.665 104.811 507.026 106.201 507.038 107.717C507.026 109.682 506.417 111.439 505.209 112.99C504.002 114.541 502.333 115.766 500.202 116.665C498.084 117.553 495.657 117.997 492.923 117.997ZM492.923 112.351C494.142 112.351 495.207 112.132 496.119 111.694C497.03 111.244 497.74 110.629 498.249 109.847C498.77 109.054 499.031 108.143 499.031 107.113C499.031 106.059 498.764 105.13 498.232 104.325C497.699 103.509 496.977 102.869 496.065 102.408C495.154 101.934 494.106 101.697 492.923 101.697C491.751 101.697 490.703 101.934 489.78 102.408C488.857 102.869 488.129 103.509 487.596 104.325C487.075 105.13 486.815 106.059 486.815 107.113C486.815 108.143 487.069 109.054 487.578 109.847C488.087 110.629 488.803 111.244 489.727 111.694C490.65 112.132 491.715 112.351 492.923 112.351ZM492.923 96.1044C493.941 96.1044 494.846 95.8973 495.639 95.483C496.432 95.0687 497.054 94.4946 497.504 93.7607C497.953 93.0268 498.178 92.1804 498.178 91.2216C498.178 90.2746 497.953 89.446 497.504 88.7358C497.054 88.0137 496.438 87.4515 495.657 87.049C494.876 86.6347 493.964 86.4276 492.923 86.4276C491.893 86.4276 490.981 86.6347 490.188 87.049C489.395 87.4515 488.774 88.0137 488.324 88.7358C487.886 89.446 487.667 90.2746 487.667 91.2216C487.667 92.1804 487.892 93.0268 488.342 93.7607C488.791 94.4946 489.413 95.0687 490.206 95.483C490.999 95.8973 491.905 96.1044 492.923 96.1044ZM515.931 117.962C514.759 117.962 513.753 117.547 512.912 116.719C512.084 115.878 511.669 114.872 511.669 113.7C511.669 112.54 512.084 111.546 512.912 110.717C513.753 109.889 514.759 109.474 515.931 109.474C517.067 109.474 518.061 109.889 518.914 110.717C519.766 111.546 520.192 112.54 520.192 113.7C520.192 114.482 519.991 115.198 519.588 115.849C519.198 116.488 518.683 117.003 518.044 117.393C517.404 117.772 516.7 117.962 515.931 117.962ZM526.381 117.5V111.96L539.325 99.9751C540.426 98.9098 541.349 97.951 542.095 97.0987C542.852 96.2464 543.426 95.4119 543.817 94.5952C544.208 93.7666 544.403 92.8729 544.403 91.9141C544.403 90.8487 544.16 89.9313 543.675 89.1619C543.19 88.3807 542.527 87.7829 541.686 87.3686C540.846 86.9425 539.893 86.7294 538.828 86.7294C537.715 86.7294 536.744 86.9543 535.916 87.4041C535.087 87.8539 534.448 88.4991 533.998 89.3395C533.548 90.1799 533.324 91.1802 533.324 92.3402H526.026C526.026 89.9609 526.565 87.8954 527.642 86.1435C528.719 84.3916 530.228 83.0362 532.169 82.0774C534.111 81.1186 536.348 80.6392 538.881 80.6392C541.485 80.6392 543.752 81.1009 545.681 82.0241C547.623 82.9356 549.132 84.2022 550.209 85.8239C551.286 87.4455 551.825 89.304 551.825 91.3991C551.825 92.7723 551.553 94.1276 551.008 95.4652C550.475 96.8028 549.523 98.2884 548.15 99.9219C546.776 101.544 544.841 103.491 542.343 105.763L537.034 110.966V111.214H552.304V117.5H526.381ZM558.138 81.1364H567.62L577.634 105.568H578.06L588.074 81.1364H597.556V117.5H590.098V93.8317H589.797L580.386 117.322H575.308L565.897 93.7429H565.596V117.5H558.138V81.1364Z" fill="#FAFCFF"/>
<path d="M407.415 153.5H404.119V143.318H407.519C408.517 143.318 409.374 143.522 410.089 143.93C410.805 144.334 411.354 144.916 411.735 145.675C412.12 146.43 412.312 147.337 412.312 148.394C412.312 149.455 412.118 150.366 411.73 151.129C411.346 151.891 410.789 152.478 410.06 152.888C409.33 153.296 408.449 153.5 407.415 153.5ZM405.655 152.158H407.33C408.106 152.158 408.75 152.012 409.264 151.72C409.778 151.425 410.162 150.999 410.418 150.442C410.673 149.882 410.8 149.2 410.8 148.394C410.8 147.595 410.673 146.918 410.418 146.361C410.166 145.804 409.79 145.381 409.289 145.093C408.789 144.805 408.167 144.661 407.425 144.661H405.655V152.158ZM414.117 153.5V145.864H415.603V153.5H414.117ZM414.868 144.685C414.609 144.685 414.387 144.599 414.201 144.427C414.019 144.251 413.928 144.042 413.928 143.8C413.928 143.555 414.019 143.346 414.201 143.174C414.387 142.998 414.609 142.911 414.868 142.911C415.126 142.911 415.346 142.998 415.529 143.174C415.714 143.346 415.807 143.555 415.807 143.8C415.807 144.042 415.714 144.251 415.529 144.427C415.346 144.599 415.126 144.685 414.868 144.685ZM424.15 145.864L421.381 153.5H419.79L417.016 145.864H418.611L420.545 151.74H420.625L422.554 145.864H424.15ZM425.561 153.5V145.864H427.047V153.5H425.561ZM426.312 144.685C426.053 144.685 425.831 144.599 425.645 144.427C425.463 144.251 425.372 144.042 425.372 143.8C425.372 143.555 425.463 143.346 425.645 143.174C425.831 142.998 426.053 142.911 426.312 142.911C426.57 142.911 426.79 142.998 426.973 143.174C427.158 143.346 427.251 143.555 427.251 143.8C427.251 144.042 427.158 144.251 426.973 144.427C426.79 144.599 426.57 144.685 426.312 144.685ZM431.92 153.649C431.303 153.649 430.753 153.492 430.269 153.177C429.789 152.859 429.411 152.406 429.136 151.82C428.864 151.23 428.728 150.522 428.728 149.697C428.728 148.871 428.866 148.165 429.141 147.579C429.419 146.992 429.8 146.543 430.284 146.232C430.768 145.92 431.317 145.764 431.93 145.764C432.404 145.764 432.785 145.844 433.073 146.003C433.365 146.159 433.59 146.341 433.749 146.55C433.912 146.759 434.038 146.942 434.127 147.102H434.217V143.318H435.703V153.5H434.251V152.312H434.127C434.038 152.474 433.908 152.66 433.739 152.869C433.574 153.077 433.345 153.26 433.053 153.415C432.762 153.571 432.384 153.649 431.92 153.649ZM432.248 152.381C432.675 152.381 433.037 152.269 433.332 152.043C433.63 151.815 433.855 151.498 434.008 151.094C434.164 150.689 434.242 150.219 434.242 149.682C434.242 149.152 434.165 148.687 434.013 148.29C433.86 147.892 433.637 147.582 433.342 147.36C433.047 147.138 432.682 147.027 432.248 147.027C431.8 147.027 431.428 147.143 431.129 147.375C430.831 147.607 430.606 147.924 430.453 148.325C430.304 148.726 430.229 149.178 430.229 149.682C430.229 150.192 430.306 150.651 430.458 151.059C430.611 151.467 430.836 151.79 431.134 152.028C431.436 152.264 431.807 152.381 432.248 152.381ZM441.13 153.654C440.378 153.654 439.73 153.493 439.186 153.172C438.646 152.847 438.228 152.391 437.933 151.805C437.642 151.215 437.496 150.524 437.496 149.732C437.496 148.949 437.642 148.26 437.933 147.663C438.228 147.067 438.639 146.601 439.166 146.266C439.697 145.932 440.316 145.764 441.026 145.764C441.456 145.764 441.874 145.835 442.278 145.978C442.683 146.121 443.046 146.344 443.367 146.649C443.689 146.954 443.942 147.35 444.128 147.837C444.313 148.321 444.406 148.91 444.406 149.602V150.129H438.336V149.016H442.95C442.95 148.625 442.87 148.278 442.711 147.977C442.552 147.672 442.328 147.431 442.04 147.256C441.755 147.08 441.42 146.992 441.036 146.992C440.618 146.992 440.253 147.095 439.942 147.3C439.634 147.503 439.395 147.768 439.226 148.096C439.06 148.421 438.977 148.774 438.977 149.155V150.025C438.977 150.535 439.067 150.969 439.246 151.327C439.428 151.685 439.682 151.959 440.006 152.148C440.331 152.333 440.711 152.426 441.145 152.426C441.427 152.426 441.684 152.386 441.916 152.307C442.148 152.224 442.348 152.101 442.517 151.939C442.686 151.777 442.815 151.576 442.905 151.337L444.312 151.591C444.199 152.005 443.997 152.368 443.705 152.68C443.417 152.988 443.054 153.228 442.617 153.401C442.182 153.57 441.687 153.654 441.13 153.654ZM447.556 148.966V153.5H446.07V145.864H447.496V147.107H447.591C447.767 146.702 448.042 146.377 448.416 146.132C448.794 145.887 449.27 145.764 449.843 145.764C450.363 145.764 450.819 145.874 451.21 146.092C451.601 146.308 451.905 146.629 452.12 147.057C452.335 147.484 452.443 148.013 452.443 148.643V153.5H450.957V148.822C450.957 148.268 450.813 147.836 450.524 147.524C450.236 147.209 449.84 147.052 449.336 147.052C448.991 147.052 448.685 147.126 448.416 147.276C448.151 147.425 447.941 147.643 447.785 147.932C447.632 148.217 447.556 148.562 447.556 148.966ZM457.309 153.649C456.693 153.649 456.143 153.492 455.659 153.177C455.178 152.859 454.8 152.406 454.525 151.82C454.254 151.23 454.118 150.522 454.118 149.697C454.118 148.871 454.255 148.165 454.53 147.579C454.809 146.992 455.19 146.543 455.674 146.232C456.158 145.92 456.706 145.764 457.319 145.764C457.793 145.764 458.175 145.844 458.463 146.003C458.755 146.159 458.98 146.341 459.139 146.55C459.301 146.759 459.427 146.942 459.517 147.102H459.606V143.318H461.093V153.5H459.641V152.312H459.517C459.427 152.474 459.298 152.66 459.129 152.869C458.963 153.077 458.735 153.26 458.443 153.415C458.151 153.571 457.773 153.649 457.309 153.649ZM457.638 152.381C458.065 152.381 458.426 152.269 458.721 152.043C459.02 151.815 459.245 151.498 459.398 151.094C459.553 150.689 459.631 150.219 459.631 149.682C459.631 149.152 459.555 148.687 459.403 148.29C459.25 147.892 459.026 147.582 458.731 147.36C458.436 147.138 458.072 147.027 457.638 147.027C457.19 147.027 456.817 147.143 456.519 147.375C456.221 147.607 455.995 147.924 455.843 148.325C455.694 148.726 455.619 149.178 455.619 149.682C455.619 150.192 455.695 150.651 455.848 151.059C456 151.467 456.226 151.79 456.524 152.028C456.826 152.264 457.197 152.381 457.638 152.381ZM468.951 147.728L467.603 147.967C467.547 147.794 467.458 147.63 467.335 147.474C467.216 147.319 467.053 147.191 466.848 147.092C466.642 146.992 466.385 146.942 466.077 146.942C465.656 146.942 465.305 147.037 465.023 147.226C464.741 147.411 464.601 147.652 464.601 147.947C464.601 148.202 464.695 148.407 464.884 148.563C465.073 148.719 465.378 148.847 465.799 148.946L467.012 149.224C467.715 149.387 468.238 149.637 468.583 149.975C468.928 150.313 469.1 150.752 469.1 151.293C469.1 151.75 468.967 152.158 468.702 152.516C468.44 152.87 468.074 153.149 467.603 153.351C467.136 153.553 466.594 153.654 465.978 153.654C465.123 153.654 464.425 153.472 463.885 153.107C463.344 152.739 463.013 152.217 462.89 151.541L464.327 151.322C464.417 151.697 464.601 151.98 464.879 152.173C465.157 152.362 465.52 152.456 465.968 152.456C466.455 152.456 466.844 152.355 467.136 152.153C467.428 151.947 467.574 151.697 467.574 151.402C467.574 151.163 467.484 150.963 467.305 150.8C467.13 150.638 466.859 150.515 466.495 150.433L465.202 150.149C464.49 149.987 463.963 149.728 463.621 149.374C463.283 149.019 463.114 148.57 463.114 148.026C463.114 147.576 463.24 147.181 463.492 146.843C463.744 146.505 464.092 146.241 464.536 146.053C464.98 145.86 465.489 145.764 466.062 145.764C466.888 145.764 467.537 145.943 468.011 146.301C468.485 146.656 468.798 147.131 468.951 147.728ZM477.46 152.854V146.132H478.798V152.854H477.46ZM474.771 150.159V148.822H481.492V150.159H474.771ZM487.525 153.5V145.864H489.011V153.5H487.525ZM488.275 144.685C488.017 144.685 487.795 144.599 487.609 144.427C487.427 144.251 487.336 144.042 487.336 143.8C487.336 143.555 487.427 143.346 487.609 143.174C487.795 142.998 488.017 142.911 488.275 142.911C488.534 142.911 488.754 142.998 488.937 143.174C489.122 143.346 489.215 143.555 489.215 143.8C489.215 144.042 489.122 144.251 488.937 144.427C488.754 144.599 488.534 144.685 488.275 144.685ZM492.512 148.966V153.5H491.025V145.864H492.452V147.107H492.546C492.722 146.702 492.997 146.377 493.372 146.132C493.749 145.887 494.225 145.764 494.798 145.764C495.319 145.764 495.775 145.874 496.166 146.092C496.557 146.308 496.86 146.629 497.075 147.057C497.291 147.484 497.399 148.013 497.399 148.643V153.5H495.912V148.822C495.912 148.268 495.768 147.836 495.48 147.524C495.191 147.209 494.795 147.052 494.291 147.052C493.947 147.052 493.64 147.126 493.372 147.276C493.106 147.425 492.896 147.643 492.74 147.932C492.588 148.217 492.512 148.562 492.512 148.966ZM502.971 145.864V147.057H498.8V145.864H502.971ZM499.918 144.034H501.405V151.258C501.405 151.546 501.448 151.763 501.534 151.909C501.62 152.052 501.731 152.149 501.867 152.202C502.006 152.252 502.157 152.277 502.32 152.277C502.439 152.277 502.543 152.269 502.633 152.252C502.722 152.236 502.792 152.222 502.842 152.212L503.11 153.44C503.024 153.473 502.901 153.507 502.742 153.54C502.583 153.576 502.384 153.596 502.146 153.599C501.754 153.606 501.39 153.536 501.052 153.391C500.714 153.245 500.44 153.019 500.232 152.714C500.023 152.41 499.918 152.027 499.918 151.566V144.034ZM507.838 153.654C507.086 153.654 506.438 153.493 505.894 153.172C505.354 152.847 504.937 152.391 504.642 151.805C504.35 151.215 504.204 150.524 504.204 149.732C504.204 148.949 504.35 148.26 504.642 147.663C504.937 147.067 505.348 146.601 505.875 146.266C506.405 145.932 507.025 145.764 507.734 145.764C508.165 145.764 508.582 145.835 508.987 145.978C509.391 146.121 509.754 146.344 510.076 146.649C510.397 146.954 510.651 147.35 510.836 147.837C511.022 148.321 511.115 148.91 511.115 149.602V150.129H505.044V149.016H509.658C509.658 148.625 509.578 148.278 509.419 147.977C509.26 147.672 509.037 147.431 508.748 147.256C508.463 147.08 508.128 146.992 507.744 146.992C507.326 146.992 506.962 147.095 506.65 147.3C506.342 147.503 506.103 147.768 505.934 148.096C505.769 148.421 505.686 148.774 505.686 149.155V150.025C505.686 150.535 505.775 150.969 505.954 151.327C506.136 151.685 506.39 151.959 506.715 152.148C507.04 152.333 507.419 152.426 507.853 152.426C508.135 152.426 508.392 152.386 508.624 152.307C508.856 152.224 509.056 152.101 509.225 151.939C509.394 151.777 509.524 151.576 509.613 151.337L511.02 151.591C510.908 152.005 510.705 152.368 510.414 152.68C510.125 152.988 509.762 153.228 509.325 153.401C508.891 153.57 508.395 153.654 507.838 153.654ZM512.778 153.5V145.864H514.215V147.077H514.294C514.434 146.666 514.679 146.343 515.03 146.107C515.385 145.869 515.786 145.749 516.233 145.749C516.326 145.749 516.435 145.753 516.561 145.759C516.691 145.766 516.792 145.774 516.865 145.784V147.206C516.805 147.189 516.699 147.171 516.546 147.151C516.394 147.128 516.242 147.116 516.089 147.116C515.738 147.116 515.425 147.191 515.149 147.34C514.878 147.486 514.662 147.69 514.503 147.952C514.344 148.21 514.264 148.505 514.264 148.837V153.5H512.778ZM521.183 153.654C520.43 153.654 519.782 153.493 519.239 153.172C518.699 152.847 518.281 152.391 517.986 151.805C517.694 151.215 517.549 150.524 517.549 149.732C517.549 148.949 517.694 148.26 517.986 147.663C518.281 147.067 518.692 146.601 519.219 146.266C519.749 145.932 520.369 145.764 521.078 145.764C521.509 145.764 521.927 145.835 522.331 145.978C522.736 146.121 523.098 146.344 523.42 146.649C523.741 146.954 523.995 147.35 524.181 147.837C524.366 148.321 524.459 148.91 524.459 149.602V150.129H518.389V149.016H523.002C523.002 148.625 522.923 148.278 522.764 147.977C522.605 147.672 522.381 147.431 522.093 147.256C521.808 147.08 521.473 146.992 521.088 146.992C520.671 146.992 520.306 147.095 519.995 147.3C519.686 147.503 519.448 147.768 519.279 148.096C519.113 148.421 519.03 148.774 519.03 149.155V150.025C519.03 150.535 519.12 150.969 519.299 151.327C519.481 151.685 519.734 151.959 520.059 152.148C520.384 152.333 520.764 152.426 521.198 152.426C521.479 152.426 521.736 152.386 521.968 152.307C522.2 152.224 522.401 152.101 522.57 151.939C522.739 151.777 522.868 151.576 522.958 151.337L524.365 151.591C524.252 152.005 524.05 152.368 523.758 152.68C523.47 152.988 523.107 153.228 522.669 153.401C522.235 153.57 521.74 153.654 521.183 153.654ZM531.845 147.728L530.497 147.967C530.441 147.794 530.352 147.63 530.229 147.474C530.11 147.319 529.947 147.191 529.742 147.092C529.536 146.992 529.279 146.942 528.971 146.942C528.55 146.942 528.199 147.037 527.917 147.226C527.635 147.411 527.495 147.652 527.495 147.947C527.495 148.202 527.589 148.407 527.778 148.563C527.967 148.719 528.272 148.847 528.693 148.946L529.906 149.224C530.608 149.387 531.132 149.637 531.477 149.975C531.821 150.313 531.994 150.752 531.994 151.293C531.994 151.75 531.861 152.158 531.596 152.516C531.334 152.87 530.968 153.149 530.497 153.351C530.03 153.553 529.488 153.654 528.872 153.654C528.017 153.654 527.319 153.472 526.779 153.107C526.238 152.739 525.907 152.217 525.784 151.541L527.221 151.322C527.311 151.697 527.495 151.98 527.773 152.173C528.051 152.362 528.414 152.456 528.862 152.456C529.349 152.456 529.738 152.355 530.03 152.153C530.322 151.947 530.468 151.697 530.468 151.402C530.468 151.163 530.378 150.963 530.199 150.8C530.023 150.638 529.753 150.515 529.389 150.433L528.096 150.149C527.384 149.987 526.857 149.728 526.515 149.374C526.177 149.019 526.008 148.57 526.008 148.026C526.008 147.576 526.134 147.181 526.386 146.843C526.638 146.505 526.986 146.241 527.43 146.053C527.874 145.86 528.383 145.764 528.956 145.764C529.781 145.764 530.431 145.943 530.905 146.301C531.379 146.656 531.692 147.131 531.845 147.728ZM537.207 145.864V147.057H533.036V145.864H537.207ZM534.154 144.034H535.641V151.258C535.641 151.546 535.684 151.763 535.77 151.909C535.856 152.052 535.967 152.149 536.103 152.202C536.242 152.252 536.393 152.277 536.556 152.277C536.675 152.277 536.779 152.269 536.869 152.252C536.958 152.236 537.028 152.222 537.078 152.212L537.346 153.44C537.26 153.473 537.137 153.507 536.978 153.54C536.819 153.576 536.62 153.596 536.382 153.599C535.99 153.606 535.626 153.536 535.288 153.391C534.95 153.245 534.676 153.019 534.468 152.714C534.259 152.41 534.154 152.027 534.154 151.566V144.034ZM542.584 156.364V145.864H544.036V147.102H544.16C544.246 146.942 544.371 146.759 544.533 146.55C544.696 146.341 544.921 146.159 545.209 146.003C545.498 145.844 545.879 145.764 546.353 145.764C546.969 145.764 547.519 145.92 548.003 146.232C548.487 146.543 548.867 146.992 549.142 147.579C549.42 148.165 549.559 148.871 549.559 149.697C549.559 150.522 549.422 151.23 549.147 151.82C548.872 152.406 548.494 152.859 548.013 153.177C547.533 153.492 546.984 153.649 546.368 153.649C545.904 153.649 545.524 153.571 545.229 153.415C544.938 153.26 544.709 153.077 544.543 152.869C544.377 152.66 544.25 152.474 544.16 152.312H544.071V156.364H542.584ZM544.041 149.682C544.041 150.219 544.119 150.689 544.275 151.094C544.43 151.498 544.656 151.815 544.951 152.043C545.246 152.269 545.607 152.381 546.035 152.381C546.479 152.381 546.85 152.264 547.148 152.028C547.447 151.79 547.672 151.467 547.824 151.059C547.98 150.651 548.058 150.192 548.058 149.682C548.058 149.178 547.982 148.726 547.829 148.325C547.68 147.924 547.455 147.607 547.153 147.375C546.855 147.143 546.482 147.027 546.035 147.027C545.604 147.027 545.239 147.138 544.941 147.36C544.646 147.582 544.422 147.892 544.27 148.29C544.117 148.687 544.041 149.152 544.041 149.682ZM553.461 153.669C552.977 153.669 552.54 153.58 552.149 153.401C551.758 153.218 551.448 152.955 551.219 152.61C550.994 152.265 550.881 151.843 550.881 151.342C550.881 150.911 550.964 150.557 551.13 150.278C551.295 150 551.519 149.78 551.801 149.617C552.082 149.455 552.397 149.332 552.745 149.249C553.093 149.166 553.448 149.103 553.809 149.06C554.267 149.007 554.638 148.964 554.923 148.931C555.208 148.895 555.415 148.837 555.544 148.757C555.674 148.678 555.738 148.548 555.738 148.369V148.335C555.738 147.9 555.616 147.564 555.37 147.325C555.128 147.087 554.767 146.967 554.287 146.967C553.786 146.967 553.392 147.078 553.103 147.3C552.818 147.519 552.621 147.763 552.512 148.031L551.115 147.713C551.28 147.249 551.522 146.875 551.84 146.589C552.162 146.301 552.532 146.092 552.949 145.963C553.367 145.83 553.806 145.764 554.267 145.764C554.572 145.764 554.895 145.801 555.236 145.874C555.581 145.943 555.902 146.072 556.201 146.261C556.502 146.45 556.749 146.72 556.941 147.072C557.134 147.42 557.23 147.872 557.23 148.429V153.5H555.778V152.456H555.718C555.622 152.648 555.478 152.837 555.286 153.023C555.094 153.208 554.847 153.362 554.545 153.485C554.243 153.608 553.882 153.669 553.461 153.669ZM553.784 152.476C554.195 152.476 554.547 152.395 554.838 152.232C555.133 152.07 555.357 151.858 555.51 151.596C555.665 151.331 555.743 151.047 555.743 150.746V149.761C555.69 149.814 555.587 149.864 555.435 149.911C555.286 149.954 555.115 149.992 554.923 150.025C554.731 150.055 554.543 150.083 554.361 150.109C554.179 150.133 554.026 150.152 553.904 150.169C553.615 150.205 553.352 150.267 553.113 150.353C552.878 150.439 552.689 150.563 552.546 150.726C552.407 150.885 552.338 151.097 552.338 151.362C552.338 151.73 552.474 152.009 552.745 152.197C553.017 152.383 553.363 152.476 553.784 152.476ZM559.224 153.5V145.864H560.71V153.5H559.224ZM559.974 144.685C559.716 144.685 559.494 144.599 559.308 144.427C559.126 144.251 559.035 144.042 559.035 143.8C559.035 143.555 559.126 143.346 559.308 143.174C559.494 142.998 559.716 142.911 559.974 142.911C560.233 142.911 560.453 142.998 560.636 143.174C560.821 143.346 560.914 143.555 560.914 143.8C560.914 144.042 560.821 144.251 560.636 144.427C560.453 144.599 560.233 144.685 559.974 144.685ZM565.583 153.649C564.966 153.649 564.416 153.492 563.932 153.177C563.451 152.859 563.074 152.406 562.799 151.82C562.527 151.23 562.391 150.522 562.391 149.697C562.391 148.871 562.528 148.165 562.804 147.579C563.082 146.992 563.463 146.543 563.947 146.232C564.431 145.92 564.979 145.764 565.593 145.764C566.067 145.764 566.448 145.844 566.736 146.003C567.028 146.159 567.253 146.341 567.412 146.55C567.575 146.759 567.701 146.942 567.79 147.102H567.88V143.318H569.366V153.5H567.914V152.312H567.79C567.701 152.474 567.571 152.66 567.402 152.869C567.237 153.077 567.008 153.26 566.716 153.415C566.424 153.571 566.047 153.649 565.583 153.649ZM565.911 152.381C566.338 152.381 566.7 152.269 566.995 152.043C567.293 151.815 567.518 151.498 567.671 151.094C567.826 150.689 567.904 150.219 567.904 149.682C567.904 149.152 567.828 148.687 567.676 148.29C567.523 147.892 567.299 147.582 567.005 147.36C566.71 147.138 566.345 147.027 565.911 147.027C565.463 147.027 565.09 147.143 564.792 147.375C564.494 147.607 564.268 147.924 564.116 148.325C563.967 148.726 563.892 149.178 563.892 149.682C563.892 150.192 563.969 150.651 564.121 151.059C564.273 151.467 564.499 151.79 564.797 152.028C565.099 152.264 565.47 152.381 565.911 152.381Z" fill="#E6EEF6"/>
<path d="M746.076 81.1364V117.5H739.435L723.615 94.6129H723.349V117.5H715.661V81.1364H722.408L738.104 104.006H738.423V81.1364H746.076ZM765.546 117.997C763.037 117.997 760.8 117.536 758.835 116.612C756.881 115.689 755.331 114.416 754.183 112.795C753.034 111.173 752.437 109.315 752.389 107.219H759.847C759.93 108.628 760.521 109.77 761.622 110.646C762.723 111.522 764.031 111.96 765.546 111.96C766.754 111.96 767.819 111.694 768.742 111.161C769.677 110.617 770.405 109.865 770.926 108.906C771.459 107.936 771.725 106.823 771.725 105.568C771.725 104.29 771.453 103.165 770.908 102.195C770.376 101.224 769.636 100.466 768.689 99.9219C767.742 99.3774 766.659 99.0992 765.44 99.0874C764.374 99.0874 763.339 99.3063 762.332 99.7443C761.338 100.182 760.563 100.78 760.006 101.538L753.171 100.312L754.893 81.1364H777.123V87.4219H761.232L760.291 96.5305H760.504C761.143 95.6309 762.108 94.8852 763.398 94.2933C764.688 93.7015 766.132 93.4055 767.73 93.4055C769.92 93.4055 771.873 93.9205 773.59 94.9503C775.306 95.9801 776.661 97.3946 777.656 99.1939C778.65 100.981 779.141 103.041 779.129 105.373C779.141 107.823 778.573 110.001 777.425 111.907C776.288 113.801 774.696 115.292 772.649 116.381C770.613 117.459 768.245 117.997 765.546 117.997ZM784.755 117.5V81.1364H799.314C801.989 81.1364 804.221 81.5329 806.008 82.326C807.796 83.1191 809.139 84.2199 810.039 85.6286C810.938 87.0253 811.388 88.6352 811.388 90.4581C811.388 91.8786 811.104 93.1274 810.536 94.2045C809.968 95.2699 809.186 96.1458 808.192 96.8324C807.21 97.5071 806.085 97.9865 804.819 98.2706V98.6257C806.204 98.6849 807.5 99.0755 808.707 99.7976C809.926 100.52 810.915 101.532 811.672 102.834C812.43 104.124 812.809 105.663 812.809 107.45C812.809 109.38 812.329 111.102 811.37 112.617C810.423 114.121 809.021 115.31 807.162 116.186C805.304 117.062 803.013 117.5 800.291 117.5H784.755ZM792.443 111.214H798.711C800.853 111.214 802.416 110.806 803.398 109.989C804.381 109.161 804.872 108.06 804.872 106.687C804.872 105.681 804.629 104.793 804.144 104.023C803.659 103.254 802.966 102.65 802.066 102.212C801.179 101.774 800.119 101.555 798.888 101.555H792.443V111.214ZM792.443 96.353H798.142C799.196 96.353 800.131 96.1695 800.948 95.8026C801.776 95.4238 802.427 94.8911 802.901 94.2045C803.386 93.518 803.629 92.6953 803.629 91.7365C803.629 90.4226 803.161 89.3632 802.226 88.5582C801.303 87.7533 799.989 87.3509 798.284 87.3509H792.443V96.353Z" fill="#FAFCFF"/>
<path d="M717.116 144.641V143.318H724.996V144.641H721.82V153.5H720.288V144.641H717.116ZM728.742 153.654C728.026 153.654 727.401 153.49 726.867 153.162C726.334 152.834 725.919 152.375 725.624 151.785C725.329 151.195 725.182 150.505 725.182 149.717C725.182 148.924 725.329 148.232 725.624 147.638C725.919 147.045 726.334 146.585 726.867 146.256C727.401 145.928 728.026 145.764 728.742 145.764C729.458 145.764 730.082 145.928 730.616 146.256C731.15 146.585 731.564 147.045 731.859 147.638C732.154 148.232 732.301 148.924 732.301 149.717C732.301 150.505 732.154 151.195 731.859 151.785C731.564 152.375 731.15 152.834 730.616 153.162C730.082 153.49 729.458 153.654 728.742 153.654ZM728.747 152.406C729.211 152.406 729.595 152.284 729.9 152.038C730.205 151.793 730.43 151.467 730.576 151.059C730.725 150.651 730.8 150.202 730.8 149.712C730.8 149.224 730.725 148.777 730.576 148.369C730.43 147.958 730.205 147.629 729.9 147.38C729.595 147.131 729.211 147.007 728.747 147.007C728.279 147.007 727.891 147.131 727.583 147.38C727.278 147.629 727.051 147.958 726.902 148.369C726.756 148.777 726.683 149.224 726.683 149.712C726.683 150.202 726.756 150.651 726.902 151.059C727.051 151.467 727.278 151.793 727.583 152.038C727.891 152.284 728.279 152.406 728.747 152.406ZM737.539 145.864V147.057H733.368V145.864H737.539ZM734.487 144.034H735.973V151.258C735.973 151.546 736.016 151.763 736.102 151.909C736.189 152.052 736.3 152.149 736.435 152.202C736.575 152.252 736.726 152.277 736.888 152.277C737.007 152.277 737.112 152.269 737.201 152.252C737.291 152.236 737.36 152.222 737.41 152.212L737.678 153.44C737.592 153.473 737.47 153.507 737.31 153.54C737.151 153.576 736.953 153.596 736.714 153.599C736.323 153.606 735.958 153.536 735.62 153.391C735.282 153.245 735.009 153.019 734.8 152.714C734.591 152.41 734.487 152.027 734.487 151.566V144.034ZM741.42 153.669C740.936 153.669 740.498 153.58 740.107 153.401C739.716 153.218 739.406 152.955 739.178 152.61C738.952 152.265 738.84 151.843 738.84 151.342C738.84 150.911 738.922 150.557 739.088 150.278C739.254 150 739.478 149.78 739.759 149.617C740.041 149.455 740.356 149.332 740.704 149.249C741.052 149.166 741.407 149.103 741.768 149.06C742.225 149.007 742.596 148.964 742.881 148.931C743.167 148.895 743.374 148.837 743.503 148.757C743.632 148.678 743.697 148.548 743.697 148.369V148.335C743.697 147.9 743.574 147.564 743.329 147.325C743.087 147.087 742.726 146.967 742.245 146.967C741.745 146.967 741.35 147.078 741.062 147.3C740.777 147.519 740.58 147.763 740.47 148.031L739.073 147.713C739.239 147.249 739.481 146.875 739.799 146.589C740.121 146.301 740.49 146.092 740.908 145.963C741.325 145.83 741.765 145.764 742.225 145.764C742.53 145.764 742.853 145.801 743.195 145.874C743.539 145.943 743.861 146.072 744.159 146.261C744.461 146.45 744.708 146.72 744.9 147.072C745.092 147.42 745.188 147.872 745.188 148.429V153.5H743.737V152.456H743.677C743.581 152.648 743.437 152.837 743.244 153.023C743.052 153.208 742.805 153.362 742.504 153.485C742.202 153.608 741.841 153.669 741.42 153.669ZM741.743 152.476C742.154 152.476 742.505 152.395 742.797 152.232C743.092 152.07 743.316 151.858 743.468 151.596C743.624 151.331 743.702 151.047 743.702 150.746V149.761C743.649 149.814 743.546 149.864 743.394 149.911C743.244 149.954 743.074 149.992 742.881 150.025C742.689 150.055 742.502 150.083 742.32 150.109C742.137 150.133 741.985 150.152 741.862 150.169C741.574 150.205 741.31 150.267 741.072 150.353C740.837 150.439 740.648 150.563 740.505 150.726C740.366 150.885 740.296 151.097 740.296 151.362C740.296 151.73 740.432 152.009 740.704 152.197C740.976 152.383 741.322 152.476 741.743 152.476ZM748.669 143.318V153.5H747.182V143.318H748.669ZM756.057 143.318V153.5H754.521V143.318H756.057ZM759.676 148.966V153.5H758.189V145.864H759.616V147.107H759.71C759.886 146.702 760.161 146.377 760.536 146.132C760.914 145.887 761.389 145.764 761.963 145.764C762.483 145.764 762.939 145.874 763.33 146.092C763.721 146.308 764.024 146.629 764.24 147.057C764.455 147.484 764.563 148.013 764.563 148.643V153.5H763.076V148.822C763.076 148.268 762.932 147.836 762.644 147.524C762.355 147.209 761.959 147.052 761.455 147.052C761.111 147.052 760.804 147.126 760.536 147.276C760.271 147.425 760.06 147.643 759.904 147.932C759.752 148.217 759.676 148.562 759.676 148.966ZM772.83 145.864L770.06 153.5H768.469L765.695 145.864H767.291L769.225 151.74H769.305L771.234 145.864H772.83ZM777.272 153.654C776.52 153.654 775.872 153.493 775.328 153.172C774.788 152.847 774.37 152.391 774.075 151.805C773.784 151.215 773.638 150.524 773.638 149.732C773.638 148.949 773.784 148.26 774.075 147.663C774.37 147.067 774.781 146.601 775.308 146.266C775.838 145.932 776.458 145.764 777.168 145.764C777.598 145.764 778.016 145.835 778.42 145.978C778.825 146.121 779.188 146.344 779.509 146.649C779.831 146.954 780.084 147.35 780.27 147.837C780.455 148.321 780.548 148.91 780.548 149.602V150.129H774.478V149.016H779.092C779.092 148.625 779.012 148.278 778.853 147.977C778.694 147.672 778.47 147.431 778.182 147.256C777.897 147.08 777.562 146.992 777.177 146.992C776.76 146.992 776.395 147.095 776.084 147.3C775.776 147.503 775.537 147.768 775.368 148.096C775.202 148.421 775.119 148.774 775.119 149.155V150.025C775.119 150.535 775.209 150.969 775.388 151.327C775.57 151.685 775.824 151.959 776.148 152.148C776.473 152.333 776.853 152.426 777.287 152.426C777.569 152.426 777.825 152.386 778.057 152.307C778.289 152.224 778.49 152.101 778.659 151.939C778.828 151.777 778.957 151.576 779.047 151.337L780.454 151.591C780.341 152.005 780.139 152.368 779.847 152.68C779.559 152.988 779.196 153.228 778.758 153.401C778.324 153.57 777.829 153.654 777.272 153.654ZM787.934 147.728L786.587 147.967C786.53 147.794 786.441 147.63 786.318 147.474C786.199 147.319 786.036 147.191 785.831 147.092C785.625 146.992 785.369 146.942 785.06 146.942C784.639 146.942 784.288 147.037 784.006 147.226C783.725 147.411 783.584 147.652 783.584 147.947C783.584 148.202 783.678 148.407 783.867 148.563C784.056 148.719 784.361 148.847 784.782 148.946L785.995 149.224C786.698 149.387 787.221 149.637 787.566 149.975C787.911 150.313 788.083 150.752 788.083 151.293C788.083 151.75 787.95 152.158 787.685 152.516C787.423 152.87 787.057 153.149 786.587 153.351C786.119 153.553 785.577 153.654 784.961 153.654C784.106 153.654 783.408 153.472 782.868 153.107C782.328 152.739 781.996 152.217 781.873 151.541L783.31 151.322C783.4 151.697 783.584 151.98 783.862 152.173C784.141 152.362 784.503 152.456 784.951 152.456C785.438 152.456 785.828 152.355 786.119 152.153C786.411 151.947 786.557 151.697 786.557 151.402C786.557 151.163 786.467 150.963 786.288 150.8C786.113 150.638 785.842 150.515 785.478 150.433L784.185 150.149C783.473 149.987 782.946 149.728 782.604 149.374C782.266 149.019 782.097 148.57 782.097 148.026C782.097 147.576 782.223 147.181 782.475 146.843C782.727 146.505 783.075 146.241 783.519 146.053C783.963 145.86 784.472 145.764 785.045 145.764C785.871 145.764 786.52 145.943 786.994 146.301C787.468 146.656 787.781 147.131 787.934 147.728ZM793.296 145.864V147.057H789.125V145.864H793.296ZM790.243 144.034H791.73V151.258C791.73 151.546 791.773 151.763 791.859 151.909C791.945 152.052 792.056 152.149 792.192 152.202C792.332 152.252 792.482 152.277 792.645 152.277C792.764 152.277 792.868 152.269 792.958 152.252C793.047 152.236 793.117 152.222 793.167 152.212L793.435 153.44C793.349 153.473 793.226 153.507 793.067 153.54C792.908 153.576 792.709 153.596 792.471 153.599C792.08 153.606 791.715 153.536 791.377 153.391C791.039 153.245 790.766 153.019 790.557 152.714C790.348 152.41 790.243 152.027 790.243 151.566V144.034ZM798.164 153.654C797.411 153.654 796.763 153.493 796.22 153.172C795.679 152.847 795.262 152.391 794.967 151.805C794.675 151.215 794.529 150.524 794.529 149.732C794.529 148.949 794.675 148.26 794.967 147.663C795.262 147.067 795.673 146.601 796.2 146.266C796.73 145.932 797.35 145.764 798.059 145.764C798.49 145.764 798.908 145.835 799.312 145.978C799.716 146.121 800.079 146.344 800.401 146.649C800.722 146.954 800.976 147.35 801.161 147.837C801.347 148.321 801.44 148.91 801.44 149.602V150.129H795.37V149.016H799.983C799.983 148.625 799.904 148.278 799.745 147.977C799.585 147.672 799.362 147.431 799.073 147.256C798.788 147.08 798.454 146.992 798.069 146.992C797.651 146.992 797.287 147.095 796.975 147.3C796.667 147.503 796.428 147.768 796.259 148.096C796.094 148.421 796.011 148.774 796.011 149.155V150.025C796.011 150.535 796.1 150.969 796.279 151.327C796.462 151.685 796.715 151.959 797.04 152.148C797.365 152.333 797.744 152.426 798.178 152.426C798.46 152.426 798.717 152.386 798.949 152.307C799.181 152.224 799.382 152.101 799.551 151.939C799.72 151.777 799.849 151.576 799.938 151.337L801.345 151.591C801.233 152.005 801.031 152.368 800.739 152.68C800.45 152.988 800.088 153.228 799.65 153.401C799.216 153.57 798.72 153.654 798.164 153.654ZM805.962 153.649C805.345 153.649 804.795 153.492 804.311 153.177C803.831 152.859 803.453 152.406 803.178 151.82C802.906 151.23 802.77 150.522 802.77 149.697C802.77 148.871 802.908 148.165 803.183 147.579C803.461 146.992 803.842 146.543 804.326 146.232C804.81 145.92 805.359 145.764 805.972 145.764C806.446 145.764 806.827 145.844 807.115 146.003C807.407 146.159 807.632 146.341 807.791 146.55C807.954 146.759 808.08 146.942 808.169 147.102H808.259V143.318H809.745V153.5H808.294V152.312H808.169C808.08 152.474 807.95 152.66 807.781 152.869C807.616 153.077 807.387 153.26 807.095 153.415C806.804 153.571 806.426 153.649 805.962 153.649ZM806.29 152.381C806.718 152.381 807.079 152.269 807.374 152.043C807.672 151.815 807.897 151.498 808.05 151.094C808.206 150.689 808.284 150.219 808.284 149.682C808.284 149.152 808.207 148.687 808.055 148.29C807.902 147.892 807.679 147.582 807.384 147.36C807.089 147.138 806.724 147.027 806.29 147.027C805.843 147.027 805.47 147.143 805.171 147.375C804.873 147.607 804.648 147.924 804.495 148.325C804.346 148.726 804.271 149.178 804.271 149.682C804.271 150.192 804.348 150.651 804.5 151.059C804.653 151.467 804.878 151.79 805.176 152.028C805.478 152.264 805.849 152.381 806.29 152.381Z" fill="#E6EEF6"/>
</g>
<defs>
<clipPath id="clip0_2053_5921">
<rect x="0.5" y="0.5" width="973" height="227" rx="16" fill="white"/>
</clipPath>
</defs>
</svg>
