<svg width="852" height="142" viewBox="0 0 852 142" fill="none" xmlns="http://www.w3.org/2000/svg">
<g clip-path="url(#clip0_2083_4930)">
<rect width="852" height="142" rx="8" fill="#1A3E6C"/>
<path d="M395.311 83.2715V51.4806C395.311 42.4535 397.075 33.2302 400.605 23.8107C404.134 14.3912 408.791 5.51129 414.575 -2.82893C420.36 -11.1692 426.634 -18.1357 433.399 -23.7285L461.046 -7.39151C455.556 1.24306 451.046 10.2701 447.517 19.6896C444.085 29.1092 442.37 39.608 442.37 51.1862V83.2715H395.311ZM469.575 83.2715V51.4806C469.575 42.4535 471.34 33.2302 474.87 23.8107C478.399 14.3912 483.056 5.51129 488.84 -2.82893C494.625 -11.1692 500.899 -18.1357 507.664 -23.7285L535.311 -7.39151C529.821 1.24306 525.311 10.2701 521.781 19.6896C518.35 29.1092 516.634 39.608 516.634 51.1862V83.2715H469.575Z" fill="#ADADAD" fill-opacity="0.15" style="mix-blend-mode:plus-lighter"/>
<path d="M27.7216 65V47.5455H38.9034V50.196H30.8835V54.9347H38.1364V57.5852H30.8835V65H27.7216ZM46.5542 65.2557C45.2417 65.2557 44.1082 64.983 43.1537 64.4375C42.2048 63.8864 41.4747 63.108 40.9633 62.1023C40.452 61.0909 40.1963 59.9006 40.1963 58.5312C40.1963 57.1847 40.452 56.0028 40.9633 54.9858C41.4804 53.9631 42.202 53.1676 43.1281 52.5994C44.0542 52.0256 45.1423 51.7386 46.3923 51.7386C47.1991 51.7386 47.9605 51.8693 48.6764 52.1307C49.398 52.3864 50.0344 52.7841 50.5855 53.3239C51.1423 53.8636 51.5798 54.5511 51.898 55.3864C52.2162 56.2159 52.3753 57.2045 52.3753 58.3523V59.2983H41.6452V57.2188H49.4179C49.4122 56.6278 49.2844 56.1023 49.0344 55.642C48.7844 55.1761 48.4349 54.8097 47.9861 54.5426C47.5429 54.2756 47.0258 54.142 46.4349 54.142C45.8042 54.142 45.2503 54.2955 44.773 54.6023C44.2957 54.9034 43.9236 55.3011 43.6565 55.7955C43.3952 56.2841 43.2616 56.821 43.2559 57.4062V59.2216C43.2559 59.983 43.3952 60.6364 43.6736 61.1818C43.952 61.7216 44.3412 62.1364 44.8412 62.4261C45.3412 62.7102 45.9264 62.8523 46.5969 62.8523C47.0457 62.8523 47.452 62.7898 47.8156 62.6648C48.1792 62.5341 48.4946 62.3438 48.7616 62.0938C49.0287 61.8438 49.2304 61.5341 49.3667 61.1648L52.2474 61.4886C52.0656 62.25 51.719 62.9148 51.2077 63.483C50.702 64.0455 50.0542 64.483 49.2645 64.7955C48.4747 65.1023 47.5713 65.2557 46.5542 65.2557ZM58.1426 47.5455V65H55.0574V47.5455H58.1426ZM61.3872 65V51.9091H64.4724V65H61.3872ZM62.9383 50.0511C62.4497 50.0511 62.0292 49.8892 61.6769 49.5653C61.3247 49.2358 61.1485 48.8409 61.1485 48.3807C61.1485 47.9148 61.3247 47.5199 61.6769 47.196C62.0292 46.8665 62.4497 46.7017 62.9383 46.7017C63.4326 46.7017 63.8531 46.8665 64.1997 47.196C64.5519 47.5199 64.7281 47.9148 64.7281 48.3807C64.7281 48.8409 64.5519 49.2358 64.1997 49.5653C63.8531 49.8892 63.4326 50.0511 62.9383 50.0511ZM70.2397 51.9091L72.8817 56.7415L75.5664 51.9091H78.8306L74.8846 58.4545L78.8988 65H75.6516L72.8817 60.2869L70.1374 65H66.8647L70.8533 58.4545L66.967 51.9091H70.2397ZM87.4505 65V47.5455H98.8027V50.196H90.6124V54.9347H98.2147V57.5852H90.6124V62.3494H98.8709V65H87.4505ZM101.964 65V51.9091H104.913V54.1335H105.066C105.339 53.3835 105.791 52.7983 106.422 52.3778C107.052 51.9517 107.805 51.7386 108.68 51.7386C109.566 51.7386 110.314 51.9545 110.922 52.3864C111.535 52.8125 111.967 53.3949 112.217 54.1335H112.353C112.643 53.4062 113.132 52.8267 113.819 52.3949C114.513 51.9574 115.334 51.7386 116.282 51.7386C117.487 51.7386 118.47 52.1193 119.231 52.8807C119.993 53.642 120.373 54.7528 120.373 56.2131V65H117.28V56.6903C117.28 55.8778 117.064 55.2841 116.632 54.9091C116.2 54.5284 115.672 54.3381 115.047 54.3381C114.302 54.3381 113.72 54.571 113.299 55.0369C112.885 55.4972 112.677 56.0966 112.677 56.8352V65H109.652V56.5625C109.652 55.8864 109.447 55.3466 109.038 54.9432C108.635 54.5398 108.106 54.3381 107.453 54.3381C107.01 54.3381 106.606 54.4517 106.243 54.679C105.879 54.9006 105.589 55.2159 105.373 55.625C105.157 56.0284 105.049 56.5 105.049 57.0398V65H101.964ZM123.575 65V51.9091H126.524V54.1335H126.678C126.95 53.3835 127.402 52.7983 128.033 52.3778C128.663 51.9517 129.416 51.7386 130.291 51.7386C131.178 51.7386 131.925 51.9545 132.533 52.3864C133.146 52.8125 133.578 53.3949 133.828 54.1335H133.964C134.254 53.4062 134.743 52.8267 135.43 52.3949C136.124 51.9574 136.945 51.7386 137.893 51.7386C139.098 51.7386 140.081 52.1193 140.842 52.8807C141.604 53.642 141.984 54.7528 141.984 56.2131V65H138.891V56.6903C138.891 55.8778 138.675 55.2841 138.243 54.9091C137.811 54.5284 137.283 54.3381 136.658 54.3381C135.913 54.3381 135.331 54.571 134.911 55.0369C134.496 55.4972 134.288 56.0966 134.288 56.8352V65H131.263V56.5625C131.263 55.8864 131.058 55.3466 130.649 54.9432C130.246 54.5398 129.717 54.3381 129.064 54.3381C128.621 54.3381 128.217 54.4517 127.854 54.679C127.49 54.9006 127.2 55.2159 126.984 55.625C126.768 56.0284 126.661 56.5 126.661 57.0398V65H123.575ZM148.953 65.2642C148.124 65.2642 147.377 65.1165 146.712 64.821C146.053 64.5199 145.53 64.0767 145.144 63.4915C144.763 62.9062 144.573 62.1847 144.573 61.3267C144.573 60.5881 144.709 59.9773 144.982 59.4943C145.255 59.0114 145.627 58.625 146.098 58.3352C146.57 58.0455 147.101 57.8267 147.692 57.679C148.289 57.5256 148.905 57.4148 149.541 57.3466C150.309 57.267 150.931 57.196 151.408 57.1335C151.885 57.0653 152.232 56.9631 152.448 56.8267C152.669 56.6847 152.78 56.4659 152.78 56.1705V56.1193C152.78 55.4773 152.59 54.9801 152.209 54.6278C151.828 54.2756 151.28 54.0994 150.564 54.0994C149.809 54.0994 149.209 54.2642 148.766 54.5938C148.328 54.9233 148.033 55.3125 147.88 55.7614L144.999 55.3523C145.226 54.5568 145.601 53.892 146.124 53.358C146.647 52.8182 147.286 52.4148 148.041 52.1477C148.797 51.875 149.632 51.7386 150.547 51.7386C151.178 51.7386 151.806 51.8125 152.431 51.9602C153.056 52.108 153.627 52.3523 154.144 52.6932C154.661 53.0284 155.076 53.4858 155.388 54.0653C155.706 54.6449 155.865 55.3693 155.865 56.2386V65H152.899V63.2017H152.797C152.61 63.5653 152.345 63.9062 152.005 64.2244C151.669 64.5369 151.246 64.7898 150.735 64.983C150.229 65.1705 149.635 65.2642 148.953 65.2642ZM149.755 62.9972C150.374 62.9972 150.911 62.875 151.365 62.6307C151.82 62.3807 152.169 62.0511 152.414 61.642C152.664 61.233 152.789 60.7869 152.789 60.304V58.7614C152.692 58.8409 152.527 58.9148 152.294 58.983C152.067 59.0511 151.811 59.1108 151.527 59.1619C151.243 59.2131 150.962 59.2585 150.684 59.2983C150.405 59.3381 150.164 59.3722 149.959 59.4006C149.499 59.4631 149.087 59.5653 148.723 59.7074C148.36 59.8494 148.073 60.0483 147.862 60.304C147.652 60.554 147.547 60.8778 147.547 61.2756C147.547 61.8438 147.755 62.2727 148.169 62.5625C148.584 62.8523 149.112 62.9972 149.755 62.9972ZM162.125 57.3295V65H159.04V51.9091H161.988V54.1335H162.142C162.443 53.4006 162.923 52.8182 163.582 52.3864C164.247 51.9545 165.068 51.7386 166.045 51.7386C166.949 51.7386 167.736 51.9318 168.406 52.3182C169.082 52.7045 169.605 53.2642 169.974 53.9972C170.349 54.7301 170.534 55.6193 170.528 56.6648V65H167.443V57.142C167.443 56.267 167.216 55.5824 166.761 55.0881C166.312 54.5937 165.69 54.3466 164.895 54.3466C164.355 54.3466 163.875 54.4659 163.454 54.7045C163.04 54.9375 162.713 55.2756 162.474 55.7188C162.241 56.1619 162.125 56.6989 162.125 57.3295Z" fill="white"/>
<path d="M35.4261 89H34.1932C34.1203 88.6454 33.9927 88.3338 33.8104 88.0653C33.6314 87.7969 33.4126 87.5715 33.1541 87.3892C32.8989 87.2036 32.6155 87.0644 32.304 86.9716C31.9924 86.8788 31.6676 86.8324 31.3295 86.8324C30.7131 86.8324 30.1546 86.9882 29.6541 87.2997C29.157 87.6113 28.7609 88.0703 28.4659 88.6768C28.1742 89.2834 28.0284 90.0275 28.0284 90.9091C28.0284 91.7907 28.1742 92.5348 28.4659 93.1413C28.7609 93.7479 29.157 94.2069 29.6541 94.5185C30.1546 94.83 30.7131 94.9858 31.3295 94.9858C31.6676 94.9858 31.9924 94.9394 32.304 94.8466C32.6155 94.7538 32.8989 94.6162 33.1541 94.4339C33.4126 94.2483 33.6314 94.0213 33.8104 93.7528C33.9927 93.4811 34.1203 93.1695 34.1932 92.8182H35.4261C35.3333 93.3385 35.1643 93.8042 34.919 94.2152C34.6738 94.6262 34.3688 94.9759 34.0043 95.2642C33.6397 95.5492 33.2304 95.7663 32.7763 95.9155C32.3255 96.0646 31.8433 96.1392 31.3295 96.1392C30.4612 96.1392 29.6889 95.9271 29.0128 95.5028C28.3366 95.0786 27.8047 94.4754 27.4169 93.6932C27.0291 92.911 26.8352 91.983 26.8352 90.9091C26.8352 89.8352 27.0291 88.9072 27.4169 88.125C27.8047 87.3428 28.3366 86.7396 29.0128 86.3153C29.6889 85.8911 30.4612 85.679 31.3295 85.679C31.8433 85.679 32.3255 85.7536 32.7763 85.9027C33.2304 86.0518 33.6397 86.2706 34.0043 86.5589C34.3688 86.844 34.6738 87.192 34.919 87.603C35.1643 88.0107 35.3333 88.4763 35.4261 89ZM37.4325 96V85.8182H43.5774V86.9119H38.6655V90.3523H43.2592V91.446H38.6655V94.9062H43.6569V96H37.4325ZM54.4046 90.9091C54.4046 91.983 54.2107 92.911 53.8229 93.6932C53.4351 94.4754 52.9032 95.0786 52.227 95.5028C51.5509 95.9271 50.7787 96.1392 49.9103 96.1392C49.0419 96.1392 48.2697 95.9271 47.5935 95.5028C46.9174 95.0786 46.3854 94.4754 45.9976 93.6932C45.6099 92.911 45.416 91.983 45.416 90.9091C45.416 89.8352 45.6099 88.9072 45.9976 88.125C46.3854 87.3428 46.9174 86.7396 47.5935 86.3153C48.2697 85.8911 49.0419 85.679 49.9103 85.679C50.7787 85.679 51.5509 85.8911 52.227 86.3153C52.9032 86.7396 53.4351 87.3428 53.8229 88.125C54.2107 88.9072 54.4046 89.8352 54.4046 90.9091ZM53.2114 90.9091C53.2114 90.0275 53.0639 89.2834 52.7689 88.6768C52.4773 88.0703 52.0812 87.6113 51.5807 87.2997C51.0836 86.9882 50.5268 86.8324 49.9103 86.8324C49.2938 86.8324 48.7353 86.9882 48.2349 87.2997C47.7377 87.6113 47.3416 88.0703 47.0466 88.6768C46.755 89.2834 46.6091 90.0275 46.6091 90.9091C46.6091 91.7907 46.755 92.5348 47.0466 93.1413C47.3416 93.7479 47.7377 94.2069 48.2349 94.5185C48.7353 94.83 49.2938 94.9858 49.9103 94.9858C50.5268 94.9858 51.0836 94.83 51.5807 94.5185C52.0812 94.2069 52.4773 93.7479 52.7689 93.1413C53.0639 92.5348 53.2114 91.7907 53.2114 90.9091ZM57.4401 94.608L57.3605 95.1449C57.3042 95.5227 57.218 95.9271 57.102 96.358C56.9893 96.7888 56.8717 97.1948 56.749 97.576C56.6264 97.9571 56.5253 98.2604 56.4458 98.4858H55.5509C55.594 98.2737 55.6503 97.9936 55.7199 97.6456C55.7895 97.2976 55.8591 96.9081 55.9287 96.4773C56.0016 96.0497 56.0613 95.6122 56.1077 95.1648L56.1674 94.608H57.4401ZM63.7385 96V85.8182H67.2982C68.0074 85.8182 68.5924 85.9408 69.0531 86.1861C69.5138 86.428 69.8569 86.7545 70.0823 87.1655C70.3076 87.5732 70.4203 88.0256 70.4203 88.5227C70.4203 88.9602 70.3424 89.3215 70.1867 89.6065C70.0342 89.8916 69.832 90.117 69.5801 90.2827C69.3315 90.4484 69.0614 90.571 68.7698 90.6506V90.75C69.0813 90.7699 69.3945 90.8793 69.7094 91.0781C70.0242 91.277 70.2877 91.562 70.4999 91.9332C70.712 92.3045 70.818 92.7585 70.818 93.2955C70.818 93.8059 70.702 94.2649 70.47 94.6726C70.238 95.0803 69.8718 95.4034 69.3713 95.642C68.8708 95.8807 68.2196 96 67.4175 96H63.7385ZM64.9715 94.9062H67.4175C68.2229 94.9062 68.7946 94.7505 69.1327 94.4389C69.4741 94.1241 69.6448 93.7429 69.6448 93.2955C69.6448 92.9508 69.5569 92.6326 69.3813 92.3409C69.2056 92.0459 68.9554 91.8106 68.6305 91.6349C68.3057 91.456 67.9213 91.3665 67.4771 91.3665H64.9715V94.9062ZM64.9715 90.2926H67.2584C67.6296 90.2926 67.9644 90.2197 68.2626 90.0739C68.5643 89.928 68.8029 89.7225 68.9786 89.4574C69.1575 89.1922 69.247 88.8807 69.247 88.5227C69.247 88.0753 69.0912 87.6958 68.7797 87.3842C68.4681 87.0694 67.9743 86.9119 67.2982 86.9119H64.9715V90.2926ZM72.6989 96V88.3636H73.8722V96H72.6989ZM73.2955 87.0909C73.0668 87.0909 72.8696 87.013 72.7039 86.8572C72.5414 86.7015 72.4602 86.5142 72.4602 86.2955C72.4602 86.0767 72.5414 85.8894 72.7039 85.7337C72.8696 85.5779 73.0668 85.5 73.2955 85.5C73.5242 85.5 73.7197 85.5779 73.8821 85.7337C74.0478 85.8894 74.1307 86.0767 74.1307 86.2955C74.1307 86.5142 74.0478 86.7015 73.8821 86.8572C73.7197 87.013 73.5242 87.0909 73.2955 87.0909ZM76.1942 96V85.8182H77.3675V89.5767H77.467C77.5531 89.4441 77.6725 89.2751 77.8249 89.0696C77.9807 88.8608 78.2028 88.6752 78.4911 88.5128C78.7828 88.3471 79.1772 88.2642 79.6743 88.2642C80.3173 88.2642 80.8841 88.425 81.3746 88.7464C81.8652 89.0679 82.248 89.5237 82.5231 90.1136C82.7982 90.7036 82.9357 91.3996 82.9357 92.2017C82.9357 93.0104 82.7982 93.7114 82.5231 94.3047C82.248 94.8946 81.8668 95.352 81.3796 95.6768C80.8924 95.9983 80.3306 96.1591 79.6942 96.1591C79.2037 96.1591 78.8109 96.0779 78.516 95.9155C78.221 95.7498 77.994 95.5625 77.8349 95.3537C77.6758 95.1416 77.5531 94.9659 77.467 94.8267H77.3278V96H76.1942ZM77.3476 92.1818C77.3476 92.7585 77.4322 93.2673 77.6012 93.7081C77.7702 94.1456 78.0172 94.4886 78.342 94.7372C78.6668 94.9825 79.0645 95.1051 79.5351 95.1051C80.0257 95.1051 80.435 94.9759 80.7631 94.7173C81.0946 94.4555 81.3431 94.1042 81.5089 93.6634C81.6779 93.2192 81.7624 92.7254 81.7624 92.1818C81.7624 91.6449 81.6796 91.161 81.5138 90.7301C81.3514 90.2959 81.1045 89.9529 80.7731 89.701C80.4449 89.4458 80.0323 89.3182 79.5351 89.3182C79.0579 89.3182 78.6568 89.4392 78.332 89.6811C78.0072 89.9197 77.7619 90.2545 77.5962 90.6854C77.4305 91.1129 77.3476 91.6117 77.3476 92.1818ZM89.557 92.8778V88.3636H90.7303V96H89.557V94.7074H89.4774C89.2984 95.0952 89.02 95.425 88.6422 95.6967C88.2643 95.9652 87.7871 96.0994 87.2104 96.0994C86.7331 96.0994 86.3089 95.995 85.9376 95.7862C85.5664 95.5741 85.2748 95.2559 85.0626 94.8317C84.8505 94.4041 84.7445 93.8655 84.7445 93.2159V88.3636H85.9178V93.1364C85.9178 93.6932 86.0735 94.1373 86.3851 94.4688C86.6999 94.8002 87.101 94.9659 87.5882 94.9659C87.8799 94.9659 88.1765 94.8913 88.4781 94.7422C88.783 94.593 89.0383 94.3643 89.2437 94.0561C89.4526 93.7479 89.557 93.3551 89.557 92.8778ZM97.0038 96V85.8182H98.2368V94.9062H102.97V96H97.0038ZM102.982 86.9119V85.8182H110.619V86.9119H107.417V96H106.184V86.9119H102.982ZM115.678 96H112.536V85.8182H115.817C116.805 85.8182 117.65 86.022 118.352 86.4297C119.055 86.834 119.594 87.4157 119.968 88.1747C120.343 88.9304 120.53 89.8352 120.53 90.8892C120.53 91.9498 120.341 92.8629 119.963 93.6286C119.585 94.3909 119.035 94.9775 118.313 95.3885C117.59 95.7962 116.712 96 115.678 96ZM113.769 94.9062H115.598C116.44 94.9062 117.138 94.7438 117.691 94.419C118.245 94.0942 118.657 93.6319 118.929 93.032C119.201 92.4321 119.337 91.7178 119.337 90.8892C119.337 90.0672 119.203 89.3596 118.934 88.7663C118.666 88.1697 118.265 87.7124 117.731 87.3942C117.197 87.0727 116.533 86.9119 115.737 86.9119H113.769V94.9062Z" fill="white"/>
<path d="M483.676 47V46.1051C483.676 45.8333 483.724 45.545 483.82 45.2401C483.92 44.9318 484.062 44.6352 484.248 44.3501C484.437 44.0618 484.664 43.8116 484.929 43.5994L485.565 44.1165C485.357 44.4148 485.174 44.7263 485.018 45.0511C484.866 45.3726 484.79 45.7173 484.79 46.0852V47H483.676ZM486.222 47V46.1051C486.222 45.8333 486.27 45.545 486.366 45.2401C486.465 44.9318 486.608 44.6352 486.793 44.3501C486.982 44.0618 487.209 43.8116 487.474 43.5994L488.111 44.1165C487.902 44.4148 487.72 44.7263 487.564 45.0511C487.411 45.3726 487.335 45.7173 487.335 46.0852V47H486.222ZM490.812 43.8182V54H489.579V43.8182H490.812ZM494.173 43.8182V44.7131C494.173 44.9848 494.123 45.2749 494.024 45.5831C493.928 45.888 493.785 46.1847 493.596 46.473C493.411 46.758 493.185 47.0066 492.92 47.2188L492.284 46.7017C492.493 46.4034 492.673 46.0935 492.826 45.772C492.982 45.4472 493.059 45.1009 493.059 44.733V43.8182H494.173ZM502.186 46.3636L499.362 54H498.169L495.345 46.3636H496.618L498.726 52.4489H498.806L500.914 46.3636H502.186ZM506.677 54.1591C505.941 54.1591 505.307 53.9967 504.773 53.6719C504.243 53.3438 503.834 52.8864 503.545 52.2997C503.26 51.7098 503.118 51.0237 503.118 50.2415C503.118 49.4593 503.26 48.7699 503.545 48.1733C503.834 47.5734 504.235 47.1061 504.748 46.7713C505.265 46.4332 505.869 46.2642 506.558 46.2642C506.956 46.2642 507.348 46.3305 507.736 46.4631C508.124 46.5956 508.477 46.8111 508.795 47.1094C509.113 47.4044 509.367 47.7955 509.556 48.2827C509.745 48.7699 509.839 49.3698 509.839 50.0824V50.5795H503.953V49.5653H508.646C508.646 49.1345 508.56 48.75 508.387 48.4119C508.218 48.0739 507.977 47.8071 507.662 47.6115C507.35 47.416 506.982 47.3182 506.558 47.3182C506.091 47.3182 505.686 47.4342 505.345 47.6662C505.007 47.8949 504.747 48.1932 504.564 48.5611C504.382 48.929 504.291 49.3234 504.291 49.7443V50.4205C504.291 50.9972 504.39 51.486 504.589 51.8871C504.791 52.2848 505.071 52.5881 505.429 52.7969C505.787 53.0024 506.203 53.1051 506.677 53.1051C506.986 53.1051 507.264 53.062 507.512 52.9759C507.764 52.8864 507.981 52.7538 508.164 52.5781C508.346 52.3991 508.487 52.1771 508.586 51.9119L509.72 52.2301C509.601 52.6146 509.4 52.9527 509.118 53.2443C508.837 53.5327 508.489 53.758 508.074 53.9205C507.66 54.0795 507.194 54.1591 506.677 54.1591ZM515.749 54V43.8182H516.922V47.5767H517.021C517.107 47.4441 517.227 47.2751 517.379 47.0696C517.535 46.8608 517.757 46.6752 518.045 46.5128C518.337 46.3471 518.732 46.2642 519.229 46.2642C519.872 46.2642 520.438 46.425 520.929 46.7464C521.42 47.0679 521.802 47.5237 522.077 48.1136C522.353 48.7036 522.49 49.3996 522.49 50.2017C522.49 51.0104 522.353 51.7114 522.077 52.3047C521.802 52.8946 521.421 53.352 520.934 53.6768C520.447 53.9983 519.885 54.1591 519.249 54.1591C518.758 54.1591 518.365 54.0779 518.07 53.9155C517.775 53.7498 517.548 53.5625 517.389 53.3537C517.23 53.1416 517.107 52.9659 517.021 52.8267H516.882V54H515.749ZM516.902 50.1818C516.902 50.7585 516.987 51.2673 517.156 51.7081C517.325 52.1456 517.572 52.4886 517.896 52.7372C518.221 52.9825 518.619 53.1051 519.09 53.1051C519.58 53.1051 519.989 52.9759 520.317 52.7173C520.649 52.4555 520.898 52.1042 521.063 51.6634C521.232 51.2192 521.317 50.7254 521.317 50.1818C521.317 49.6449 521.234 49.161 521.068 48.7301C520.906 48.2959 520.659 47.9529 520.327 47.701C519.999 47.4458 519.587 47.3182 519.09 47.3182C518.612 47.3182 518.211 47.4392 517.886 47.6811C517.562 47.9197 517.316 48.2545 517.151 48.6854C516.985 49.1129 516.902 49.6117 516.902 50.1818ZM529.111 50.8778V46.3636H530.285V54H529.111V52.7074H529.032C528.853 53.0952 528.574 53.425 528.197 53.6967C527.819 53.9652 527.341 54.0994 526.765 54.0994C526.287 54.0994 525.863 53.995 525.492 53.7862C525.121 53.5741 524.829 53.2559 524.617 52.8317C524.405 52.4041 524.299 51.8655 524.299 51.2159V46.3636H525.472V51.1364C525.472 51.6932 525.628 52.1373 525.939 52.4688C526.254 52.8002 526.655 52.9659 527.143 52.9659C527.434 52.9659 527.731 52.8913 528.032 52.7422C528.337 52.593 528.593 52.3643 528.798 52.0561C529.007 51.7479 529.111 51.3551 529.111 50.8778ZM532.448 54V46.3636H533.621V54H532.448ZM533.044 45.0909C532.815 45.0909 532.618 45.013 532.453 44.8572C532.29 44.7015 532.209 44.5142 532.209 44.2955C532.209 44.0767 532.29 43.8894 532.453 43.7337C532.618 43.5779 532.815 43.5 533.044 43.5C533.273 43.5 533.468 43.5779 533.631 43.7337C533.797 43.8894 533.879 44.0767 533.879 44.2955C533.879 44.5142 533.797 44.7015 533.631 44.8572C533.468 45.013 533.273 45.0909 533.044 45.0909ZM536.957 43.8182V54H535.784V43.8182H536.957ZM542.441 46.3636V47.358H538.484V46.3636H542.441ZM539.637 44.5341H540.81V51.8125C540.81 52.1439 540.859 52.3925 540.955 52.5582C541.054 52.7206 541.18 52.83 541.332 52.8864C541.488 52.9394 541.652 52.9659 541.825 52.9659C541.954 52.9659 542.06 52.9593 542.143 52.946C542.226 52.9295 542.292 52.9162 542.342 52.9062L542.58 53.9602C542.501 53.9901 542.39 54.0199 542.247 54.0497C542.105 54.0829 541.924 54.0994 541.705 54.0994C541.374 54.0994 541.049 54.0282 540.731 53.8857C540.416 53.7431 540.154 53.526 539.945 53.2344C539.74 52.9427 539.637 52.5748 539.637 52.1307V44.5341ZM550.419 54.179C549.935 54.179 549.496 54.0878 549.101 53.9055C548.707 53.7199 548.394 53.4531 548.162 53.1051C547.93 52.7538 547.814 52.3295 547.814 51.8324C547.814 51.3949 547.9 51.0402 548.072 50.7685C548.244 50.4934 548.475 50.2779 548.763 50.1222C549.052 49.9664 549.37 49.8504 549.718 49.7741C550.069 49.6946 550.422 49.6316 550.777 49.5852C551.241 49.5256 551.617 49.4808 551.905 49.451C552.197 49.4179 552.409 49.3632 552.542 49.2869C552.677 49.2107 552.745 49.0781 552.745 48.8892V48.8494C552.745 48.3589 552.611 47.9777 552.343 47.706C552.078 47.4342 551.675 47.2983 551.135 47.2983C550.574 47.2983 550.135 47.4209 549.817 47.6662C549.499 47.9115 549.275 48.1733 549.146 48.4517L548.032 48.054C548.231 47.59 548.496 47.2287 548.828 46.9702C549.163 46.7083 549.527 46.526 549.922 46.4233C550.319 46.3172 550.71 46.2642 551.095 46.2642C551.34 46.2642 551.622 46.294 551.94 46.3537C552.262 46.41 552.571 46.5277 552.87 46.7067C553.171 46.8857 553.422 47.1558 553.62 47.517C553.819 47.8783 553.919 48.3622 553.919 48.9688V54H552.745V52.9659H552.686C552.606 53.1316 552.474 53.3089 552.288 53.4979C552.102 53.6868 551.855 53.8475 551.547 53.9801C551.239 54.1127 550.863 54.179 550.419 54.179ZM550.598 53.125C551.062 53.125 551.453 53.0339 551.771 52.8516C552.092 52.6693 552.334 52.4339 552.497 52.1456C552.663 51.8572 552.745 51.554 552.745 51.2358V50.1619C552.696 50.2216 552.586 50.2763 552.417 50.326C552.252 50.3724 552.059 50.4138 551.841 50.4503C551.625 50.4834 551.415 50.5133 551.209 50.5398C551.007 50.563 550.843 50.5829 550.717 50.5994C550.412 50.6392 550.127 50.7038 549.862 50.7933C549.6 50.8795 549.388 51.0104 549.226 51.1861C549.066 51.3584 548.987 51.5937 548.987 51.892C548.987 52.2997 549.138 52.608 549.439 52.8168C549.744 53.0223 550.13 53.125 550.598 53.125ZM563.108 57.0227C562.541 57.0227 562.054 56.9498 561.646 56.804C561.239 56.6615 560.899 56.4725 560.627 56.2372C560.359 56.0052 560.145 55.7566 559.986 55.4915L560.921 54.8352C561.027 54.9744 561.161 55.1335 561.323 55.3125C561.486 55.4948 561.708 55.6522 561.99 55.7848C562.275 55.9207 562.647 55.9886 563.108 55.9886C563.725 55.9886 564.233 55.8395 564.634 55.5412C565.035 55.2429 565.236 54.7756 565.236 54.1392V52.5881H565.137C565.05 52.7273 564.928 52.8996 564.769 53.1051C564.613 53.3073 564.387 53.4879 564.092 53.647C563.801 53.8028 563.406 53.8807 562.909 53.8807C562.293 53.8807 561.739 53.7348 561.249 53.4432C560.762 53.1515 560.375 52.7273 560.09 52.1705C559.809 51.6136 559.668 50.9375 559.668 50.142C559.668 49.3598 559.805 48.6787 560.08 48.0987C560.356 47.5154 560.738 47.0646 561.229 46.7464C561.719 46.425 562.286 46.2642 562.929 46.2642C563.426 46.2642 563.821 46.3471 564.112 46.5128C564.407 46.6752 564.633 46.8608 564.789 47.0696C564.948 47.2751 565.07 47.4441 565.156 47.5767H565.276V46.3636H566.409V54.2188C566.409 54.875 566.26 55.4086 565.962 55.8196C565.667 56.2339 565.269 56.5372 564.769 56.7294C564.271 56.925 563.718 57.0227 563.108 57.0227ZM563.068 52.8267C563.539 52.8267 563.937 52.719 564.262 52.5036C564.586 52.2881 564.833 51.9782 565.002 51.5739C565.171 51.1695 565.256 50.6856 565.256 50.1222C565.256 49.572 565.173 49.0864 565.007 48.6655C564.842 48.2446 564.596 47.9148 564.271 47.6761C563.947 47.4375 563.546 47.3182 563.068 47.3182C562.571 47.3182 562.157 47.4441 561.825 47.696C561.497 47.9479 561.25 48.286 561.085 48.7102C560.922 49.1345 560.841 49.6051 560.841 50.1222C560.841 50.6525 560.924 51.1214 561.09 51.5291C561.259 51.9335 561.507 52.2517 561.835 52.4837C562.167 52.7124 562.578 52.8267 563.068 52.8267ZM568.571 54V46.3636H569.704V47.517H569.784C569.923 47.1392 570.175 46.8326 570.54 46.5973C570.904 46.362 571.315 46.2443 571.773 46.2443C571.859 46.2443 571.967 46.246 572.096 46.2493C572.225 46.2526 572.323 46.2576 572.389 46.2642V47.4574C572.349 47.4474 572.258 47.4325 572.116 47.4126C571.977 47.3894 571.829 47.3778 571.673 47.3778C571.302 47.3778 570.971 47.4557 570.679 47.6115C570.391 47.764 570.162 47.9761 569.993 48.2479C569.827 48.5163 569.744 48.8229 569.744 49.1676V54H568.571ZM576.664 54.1591C575.974 54.1591 575.37 53.995 574.849 53.6669C574.332 53.3388 573.928 52.8797 573.636 52.2898C573.348 51.6998 573.204 51.0104 573.204 50.2216C573.204 49.4261 573.348 48.7318 573.636 48.1385C573.928 47.5452 574.332 47.0845 574.849 46.7564C575.37 46.4283 575.974 46.2642 576.664 46.2642C577.353 46.2642 577.956 46.4283 578.473 46.7564C578.994 47.0845 579.398 47.5452 579.687 48.1385C579.978 48.7318 580.124 49.4261 580.124 50.2216C580.124 51.0104 579.978 51.6998 579.687 52.2898C579.398 52.8797 578.994 53.3388 578.473 53.6669C577.956 53.995 577.353 54.1591 576.664 54.1591ZM576.664 53.1051C577.187 53.1051 577.618 52.9709 577.956 52.7024C578.294 52.4339 578.545 52.081 578.707 51.6435C578.87 51.206 578.951 50.732 578.951 50.2216C578.951 49.7112 578.87 49.2356 578.707 48.7947C578.545 48.3539 578.294 47.9976 577.956 47.7259C577.618 47.4541 577.187 47.3182 576.664 47.3182C576.14 47.3182 575.709 47.4541 575.371 47.7259C575.033 47.9976 574.783 48.3539 574.62 48.7947C574.458 49.2356 574.377 49.7112 574.377 50.2216C574.377 50.732 574.458 51.206 574.62 51.6435C574.783 52.081 575.033 52.4339 575.371 52.7024C575.709 52.9709 576.14 53.1051 576.664 53.1051ZM583.399 54L581.073 46.3636H582.306L583.956 52.2102H584.036L585.666 46.3636H586.919L588.53 52.1903H588.61L590.26 46.3636H591.493L589.166 54H588.013L586.343 48.1335H586.223L584.553 54H583.399ZM593.058 54V46.3636H594.232V54H593.058ZM593.655 45.0909C593.426 45.0909 593.229 45.013 593.063 44.8572C592.901 44.7015 592.82 44.5142 592.82 44.2955C592.82 44.0767 592.901 43.8894 593.063 43.7337C593.229 43.5779 593.426 43.5 593.655 43.5C593.884 43.5 594.079 43.5779 594.242 43.7337C594.407 43.8894 594.49 44.0767 594.49 44.2955C594.49 44.5142 594.407 44.7015 594.242 44.8572C594.079 45.013 593.884 45.0909 593.655 45.0909ZM597.568 49.4062V54H596.395V46.3636H597.528V47.5568H597.628C597.806 47.169 598.078 46.8575 598.443 46.6222C598.807 46.3835 599.278 46.2642 599.855 46.2642C600.372 46.2642 600.824 46.3703 601.212 46.5824C601.6 46.7912 601.901 47.1094 602.117 47.5369C602.332 47.9612 602.44 48.4981 602.44 49.1477V54H601.267V49.2273C601.267 48.6274 601.111 48.16 600.799 47.8253C600.488 47.4872 600.06 47.3182 599.517 47.3182C599.142 47.3182 598.807 47.3994 598.512 47.5618C598.221 47.7242 597.99 47.9612 597.821 48.2727C597.652 48.5843 597.568 48.9621 597.568 49.4062ZM607.68 57.0227C607.114 57.0227 606.626 56.9498 606.219 56.804C605.811 56.6615 605.471 56.4725 605.2 56.2372C604.931 56.0052 604.717 55.7566 604.558 55.4915L605.493 54.8352C605.599 54.9744 605.733 55.1335 605.896 55.3125C606.058 55.4948 606.28 55.6522 606.562 55.7848C606.847 55.9207 607.22 55.9886 607.68 55.9886C608.297 55.9886 608.806 55.8395 609.207 55.5412C609.608 55.2429 609.808 54.7756 609.808 54.1392V52.5881H609.709C609.623 52.7273 609.5 52.8996 609.341 53.1051C609.185 53.3073 608.96 53.4879 608.665 53.647C608.373 53.8028 607.979 53.8807 607.482 53.8807C606.865 53.8807 606.312 53.7348 605.821 53.4432C605.334 53.1515 604.948 52.7273 604.663 52.1705C604.381 51.6136 604.24 50.9375 604.24 50.142C604.24 49.3598 604.378 48.6787 604.653 48.0987C604.928 47.5154 605.311 47.0646 605.801 46.7464C606.292 46.425 606.858 46.2642 607.501 46.2642C607.999 46.2642 608.393 46.3471 608.685 46.5128C608.98 46.6752 609.205 46.8608 609.361 47.0696C609.52 47.2751 609.643 47.4441 609.729 47.5767H609.848V46.3636H610.982V54.2188C610.982 54.875 610.832 55.4086 610.534 55.8196C610.239 56.2339 609.841 56.5372 609.341 56.7294C608.844 56.925 608.29 57.0227 607.68 57.0227ZM607.641 52.8267C608.111 52.8267 608.509 52.719 608.834 52.5036C609.159 52.2881 609.406 51.9782 609.575 51.5739C609.744 51.1695 609.828 50.6856 609.828 50.1222C609.828 49.572 609.745 49.0864 609.58 48.6655C609.414 48.2446 609.169 47.9148 608.844 47.6761C608.519 47.4375 608.118 47.3182 607.641 47.3182C607.143 47.3182 606.729 47.4441 606.398 47.696C606.07 47.9479 605.823 48.286 605.657 48.7102C605.495 49.1345 605.413 49.6051 605.413 50.1222C605.413 50.6525 605.496 51.1214 605.662 51.5291C605.831 51.9335 606.08 52.2517 606.408 52.4837C606.739 52.7124 607.15 52.8267 607.641 52.8267ZM617.095 56.8636V46.3636H618.228V47.5767H618.367C618.454 47.4441 618.573 47.2751 618.725 47.0696C618.881 46.8608 619.103 46.6752 619.392 46.5128C619.683 46.3471 620.078 46.2642 620.575 46.2642C621.218 46.2642 621.785 46.425 622.275 46.7464C622.766 47.0679 623.148 47.5237 623.424 48.1136C623.699 48.7036 623.836 49.3996 623.836 50.2017C623.836 51.0104 623.699 51.7114 623.424 52.3047C623.148 52.8946 622.767 53.352 622.28 53.6768C621.793 53.9983 621.231 54.1591 620.595 54.1591C620.104 54.1591 619.711 54.0779 619.416 53.9155C619.122 53.7498 618.894 53.5625 618.735 53.3537C618.576 53.1416 618.454 52.9659 618.367 52.8267H618.268V56.8636H617.095ZM618.248 50.1818C618.248 50.7585 618.333 51.2673 618.502 51.7081C618.671 52.1456 618.918 52.4886 619.242 52.7372C619.567 52.9825 619.965 53.1051 620.436 53.1051C620.926 53.1051 621.336 52.9759 621.664 52.7173C621.995 52.4555 622.244 52.1042 622.409 51.6634C622.578 51.2192 622.663 50.7254 622.663 50.1818C622.663 49.6449 622.58 49.161 622.414 48.7301C622.252 48.2959 622.005 47.9529 621.674 47.701C621.345 47.4458 620.933 47.3182 620.436 47.3182C619.958 47.3182 619.557 47.4392 619.233 47.6811C618.908 47.9197 618.662 48.2545 618.497 48.6854C618.331 49.1129 618.248 49.6117 618.248 50.1818ZM628.742 54.1591C628.053 54.1591 627.448 53.995 626.928 53.6669C626.411 53.3388 626.006 52.8797 625.715 52.2898C625.426 51.6998 625.282 51.0104 625.282 50.2216C625.282 49.4261 625.426 48.7318 625.715 48.1385C626.006 47.5452 626.411 47.0845 626.928 46.7564C627.448 46.4283 628.053 46.2642 628.742 46.2642C629.432 46.2642 630.035 46.4283 630.552 46.7564C631.072 47.0845 631.477 47.5452 631.765 48.1385C632.057 48.7318 632.203 49.4261 632.203 50.2216C632.203 51.0104 632.057 51.6998 631.765 52.2898C631.477 52.8797 631.072 53.3388 630.552 53.6669C630.035 53.995 629.432 54.1591 628.742 54.1591ZM628.742 53.1051C629.266 53.1051 629.697 52.9709 630.035 52.7024C630.373 52.4339 630.623 52.081 630.786 51.6435C630.948 51.206 631.029 50.732 631.029 50.2216C631.029 49.7112 630.948 49.2356 630.786 48.7947C630.623 48.3539 630.373 47.9976 630.035 47.7259C629.697 47.4541 629.266 47.3182 628.742 47.3182C628.219 47.3182 627.788 47.4541 627.45 47.7259C627.112 47.9976 626.861 48.3539 626.699 48.7947C626.537 49.2356 626.455 49.7112 626.455 50.2216C626.455 50.732 626.537 51.206 626.699 51.6435C626.861 52.081 627.112 52.4339 627.45 52.7024C627.788 52.9709 628.219 53.1051 628.742 53.1051ZM634.008 54V46.3636H635.141V47.517H635.221C635.36 47.1392 635.612 46.8326 635.976 46.5973C636.341 46.362 636.752 46.2443 637.209 46.2443C637.295 46.2443 637.403 46.246 637.532 46.2493C637.662 46.2526 637.759 46.2576 637.826 46.2642V47.4574C637.786 47.4474 637.695 47.4325 637.552 47.4126C637.413 47.3894 637.266 47.3778 637.11 47.3778C636.739 47.3778 636.407 47.4557 636.115 47.6115C635.827 47.764 635.598 47.9761 635.429 48.2479C635.264 48.5163 635.181 48.8229 635.181 49.1676V54H634.008ZM643.03 46.3636V47.358H639.073V46.3636H643.03ZM640.226 44.5341H641.399V51.8125C641.399 52.1439 641.447 52.3925 641.544 52.5582C641.643 52.7206 641.769 52.83 641.921 52.8864C642.077 52.9394 642.241 52.9659 642.414 52.9659C642.543 52.9659 642.649 52.9593 642.732 52.946C642.815 52.9295 642.881 52.9162 642.931 52.9062L643.169 53.9602C643.09 53.9901 642.979 54.0199 642.836 54.0497C642.694 54.0829 642.513 54.0994 642.294 54.0994C641.963 54.0994 641.638 54.0282 641.32 53.8857C641.005 53.7431 640.743 53.526 640.534 53.2344C640.329 52.9427 640.226 52.5748 640.226 52.1307V44.5341ZM648.21 46.3636V47.358H644.093V46.3636H648.21ZM645.326 54V45.3097C645.326 44.8722 645.429 44.5076 645.634 44.2159C645.84 43.9242 646.107 43.7055 646.435 43.5597C646.763 43.4138 647.109 43.3409 647.474 43.3409C647.762 43.3409 647.997 43.3641 648.18 43.4105C648.362 43.4569 648.498 43.5 648.587 43.5398L648.249 44.554C648.19 44.5341 648.107 44.5092 648.001 44.4794C647.898 44.4496 647.762 44.4347 647.593 44.4347C647.205 44.4347 646.925 44.5324 646.753 44.728C646.584 44.9235 646.499 45.2102 646.499 45.5881V54H645.326ZM652.656 54.1591C651.966 54.1591 651.361 53.995 650.841 53.6669C650.324 53.3388 649.92 52.8797 649.628 52.2898C649.34 51.6998 649.195 51.0104 649.195 50.2216C649.195 49.4261 649.34 48.7318 649.628 48.1385C649.92 47.5452 650.324 47.0845 650.841 46.7564C651.361 46.4283 651.966 46.2642 652.656 46.2642C653.345 46.2642 653.948 46.4283 654.465 46.7564C654.986 47.0845 655.39 47.5452 655.678 48.1385C655.97 48.7318 656.116 49.4261 656.116 50.2216C656.116 51.0104 655.97 51.6998 655.678 52.2898C655.39 52.8797 654.986 53.3388 654.465 53.6669C653.948 53.995 653.345 54.1591 652.656 54.1591ZM652.656 53.1051C653.179 53.1051 653.61 52.9709 653.948 52.7024C654.286 52.4339 654.537 52.081 654.699 51.6435C654.861 51.206 654.943 50.732 654.943 50.2216C654.943 49.7112 654.861 49.2356 654.699 48.7947C654.537 48.3539 654.286 47.9976 653.948 47.7259C653.61 47.4541 653.179 47.3182 652.656 47.3182C652.132 47.3182 651.701 47.4541 651.363 47.7259C651.025 47.9976 650.775 48.3539 650.612 48.7947C650.45 49.2356 650.369 49.7112 650.369 50.2216C650.369 50.732 650.45 51.206 650.612 51.6435C650.775 52.081 651.025 52.4339 651.363 52.7024C651.701 52.9709 652.132 53.1051 652.656 53.1051ZM659.094 43.8182V54H657.921V43.8182H659.094ZM661.257 54V46.3636H662.431V54H661.257ZM661.854 45.0909C661.625 45.0909 661.428 45.013 661.262 44.8572C661.1 44.7015 661.019 44.5142 661.019 44.2955C661.019 44.0767 661.1 43.8894 661.262 43.7337C661.428 43.5779 661.625 43.5 661.854 43.5C662.082 43.5 662.278 43.5779 662.44 43.7337C662.606 43.8894 662.689 44.0767 662.689 44.2955C662.689 44.5142 662.606 44.7015 662.44 44.8572C662.278 45.013 662.082 45.0909 661.854 45.0909ZM667.696 54.1591C667.006 54.1591 666.401 53.995 665.881 53.6669C665.364 53.3388 664.96 52.8797 664.668 52.2898C664.38 51.6998 664.236 51.0104 664.236 50.2216C664.236 49.4261 664.38 48.7318 664.668 48.1385C664.96 47.5452 665.364 47.0845 665.881 46.7564C666.401 46.4283 667.006 46.2642 667.696 46.2642C668.385 46.2642 668.988 46.4283 669.505 46.7564C670.026 47.0845 670.43 47.5452 670.718 48.1385C671.01 48.7318 671.156 49.4261 671.156 50.2216C671.156 51.0104 671.01 51.6998 670.718 52.2898C670.43 52.8797 670.026 53.3388 669.505 53.6669C668.988 53.995 668.385 54.1591 667.696 54.1591ZM667.696 53.1051C668.219 53.1051 668.65 52.9709 668.988 52.7024C669.326 52.4339 669.577 52.081 669.739 51.6435C669.901 51.206 669.983 50.732 669.983 50.2216C669.983 49.7112 669.901 49.2356 669.739 48.7947C669.577 48.3539 669.326 47.9976 668.988 47.7259C668.65 47.4541 668.219 47.3182 667.696 47.3182C667.172 47.3182 666.741 47.4541 666.403 47.7259C666.065 47.9976 665.815 48.3539 665.652 48.7947C665.49 49.2356 665.409 49.7112 665.409 50.2216C665.409 50.732 665.49 51.206 665.652 51.6435C665.815 52.081 666.065 52.4339 666.403 52.7024C666.741 52.9709 667.172 53.1051 667.696 53.1051ZM678.643 54L676.316 46.3636H677.549L679.199 52.2102H679.279L680.91 46.3636H682.162L683.773 52.1903H683.853L685.503 46.3636H686.736L684.41 54H683.256L681.586 48.1335H681.466L679.796 54H678.643ZM688.301 54V46.3636H689.475V54H688.301ZM688.898 45.0909C688.669 45.0909 688.472 45.013 688.306 44.8572C688.144 44.7015 688.063 44.5142 688.063 44.2955C688.063 44.0767 688.144 43.8894 688.306 43.7337C688.472 43.5779 688.669 43.5 688.898 43.5C689.127 43.5 689.322 43.5779 689.485 43.7337C689.65 43.8894 689.733 44.0767 689.733 44.2955C689.733 44.5142 689.65 44.7015 689.485 44.8572C689.322 45.013 689.127 45.0909 688.898 45.0909ZM694.959 46.3636V47.358H691.001V46.3636H694.959ZM692.155 44.5341H693.328V51.8125C693.328 52.1439 693.376 52.3925 693.472 52.5582C693.572 52.7206 693.698 52.83 693.85 52.8864C694.006 52.9394 694.17 52.9659 694.342 52.9659C694.472 52.9659 694.578 52.9593 694.66 52.946C694.743 52.9295 694.81 52.9162 694.859 52.9062L695.098 53.9602C695.018 53.9901 694.907 54.0199 694.765 54.0497C694.622 54.0829 694.442 54.0994 694.223 54.0994C693.892 54.0994 693.567 54.0282 693.249 53.8857C692.934 53.7431 692.672 53.526 692.463 53.2344C692.258 52.9427 692.155 52.5748 692.155 52.1307V44.5341ZM698.075 49.4062V54H696.902V43.8182H698.075V47.5568H698.174C698.353 47.1624 698.622 46.8492 698.98 46.6172C699.341 46.3819 699.822 46.2642 700.422 46.2642C700.942 46.2642 701.398 46.3686 701.789 46.5774C702.18 46.7829 702.483 47.0994 702.699 47.527C702.917 47.9512 703.027 48.4915 703.027 49.1477V54H701.853V49.2273C701.853 48.6207 701.696 48.1518 701.381 47.8203C701.07 47.4856 700.637 47.3182 700.084 47.3182C699.699 47.3182 699.354 47.3994 699.049 47.5618C698.748 47.7242 698.509 47.9612 698.334 48.2727C698.161 48.5843 698.075 48.9621 698.075 49.4062ZM709.298 54V43.8182H710.531V52.9062H715.264V54H709.298ZM719.275 54.179C718.791 54.179 718.352 54.0878 717.957 53.9055C717.563 53.7199 717.25 53.4531 717.018 53.1051C716.786 52.7538 716.67 52.3295 716.67 51.8324C716.67 51.3949 716.756 51.0402 716.928 50.7685C717.101 50.4934 717.331 50.2779 717.619 50.1222C717.908 49.9664 718.226 49.8504 718.574 49.7741C718.925 49.6946 719.278 49.6316 719.633 49.5852C720.097 49.5256 720.473 49.4808 720.761 49.451C721.053 49.4179 721.265 49.3632 721.398 49.2869C721.534 49.2107 721.602 49.0781 721.602 48.8892V48.8494C721.602 48.3589 721.467 47.9777 721.199 47.706C720.934 47.4342 720.531 47.2983 719.991 47.2983C719.431 47.2983 718.992 47.4209 718.673 47.6662C718.355 47.9115 718.131 48.1733 718.002 48.4517L716.889 48.054C717.087 47.59 717.353 47.2287 717.684 46.9702C718.019 46.7083 718.383 46.526 718.778 46.4233C719.175 46.3172 719.567 46.2642 719.951 46.2642C720.196 46.2642 720.478 46.294 720.796 46.3537C721.118 46.41 721.428 46.5277 721.726 46.7067C722.027 46.8857 722.278 47.1558 722.477 47.517C722.675 47.8783 722.775 48.3622 722.775 48.9688V54H721.602V52.9659H721.542C721.462 53.1316 721.33 53.3089 721.144 53.4979C720.959 53.6868 720.712 53.8475 720.403 53.9801C720.095 54.1127 719.719 54.179 719.275 54.179ZM719.454 53.125C719.918 53.125 720.309 53.0339 720.627 52.8516C720.949 52.6693 721.191 52.4339 721.353 52.1456C721.519 51.8572 721.602 51.554 721.602 51.2358V50.1619C721.552 50.2216 721.443 50.2763 721.273 50.326C721.108 50.3724 720.916 50.4138 720.697 50.4503C720.481 50.4834 720.271 50.5133 720.065 50.5398C719.863 50.563 719.699 50.5829 719.573 50.5994C719.268 50.6392 718.983 50.7038 718.718 50.7933C718.456 50.8795 718.244 51.0104 718.082 51.1861C717.923 51.3584 717.843 51.5937 717.843 51.892C717.843 52.2997 717.994 52.608 718.295 52.8168C718.6 53.0223 718.987 53.125 719.454 53.125ZM726.104 49.4062V54H724.93V46.3636H726.064V47.5568H726.163C726.342 47.169 726.614 46.8575 726.979 46.6222C727.343 46.3835 727.814 46.2642 728.391 46.2642C728.908 46.2642 729.36 46.3703 729.748 46.5824C730.136 46.7912 730.437 47.1094 730.653 47.5369C730.868 47.9612 730.976 48.4981 730.976 49.1477V54H729.803V49.2273C729.803 48.6274 729.647 48.16 729.335 47.8253C729.024 47.4872 728.596 47.3182 728.053 47.3182C727.678 47.3182 727.343 47.3994 727.048 47.5618C726.757 47.7242 726.526 47.9612 726.357 48.2727C726.188 48.5843 726.104 48.9621 726.104 49.4062ZM736.455 46.3636V47.358H732.497V46.3636H736.455ZM733.651 44.5341H734.824V51.8125C734.824 52.1439 734.872 52.3925 734.968 52.5582C735.068 52.7206 735.194 52.83 735.346 52.8864C735.502 52.9394 735.666 52.9659 735.838 52.9659C735.968 52.9659 736.074 52.9593 736.157 52.946C736.239 52.9295 736.306 52.9162 736.355 52.9062L736.594 53.9602C736.515 53.9901 736.404 54.0199 736.261 54.0497C736.118 54.0829 735.938 54.0994 735.719 54.0994C735.388 54.0994 735.063 54.0282 734.745 53.8857C734.43 53.7431 734.168 53.526 733.959 53.2344C733.754 52.9427 733.651 52.5748 733.651 52.1307V44.5341ZM740.481 54.179C739.997 54.179 739.558 54.0878 739.163 53.9055C738.769 53.7199 738.456 53.4531 738.224 53.1051C737.992 52.7538 737.876 52.3295 737.876 51.8324C737.876 51.3949 737.962 51.0402 738.134 50.7685C738.307 50.4934 738.537 50.2779 738.825 50.1222C739.114 49.9664 739.432 49.8504 739.78 49.7741C740.131 49.6946 740.484 49.6316 740.839 49.5852C741.303 49.5256 741.679 49.4808 741.967 49.451C742.259 49.4179 742.471 49.3632 742.604 49.2869C742.74 49.2107 742.808 49.0781 742.808 48.8892V48.8494C742.808 48.3589 742.673 47.9777 742.405 47.706C742.14 47.4342 741.737 47.2983 741.197 47.2983C740.637 47.2983 740.198 47.4209 739.879 47.6662C739.561 47.9115 739.337 48.1733 739.208 48.4517L738.095 48.054C738.293 47.59 738.559 47.2287 738.89 46.9702C739.225 46.7083 739.589 46.526 739.984 46.4233C740.382 46.3172 740.773 46.2642 741.157 46.2642C741.402 46.2642 741.684 46.294 742.002 46.3537C742.324 46.41 742.634 46.5277 742.932 46.7067C743.234 46.8857 743.484 47.1558 743.683 47.517C743.882 47.8783 743.981 48.3622 743.981 48.9688V54H742.808V52.9659H742.748C742.668 53.1316 742.536 53.3089 742.35 53.4979C742.165 53.6868 741.918 53.8475 741.61 53.9801C741.301 54.1127 740.925 54.179 740.481 54.179ZM740.66 53.125C741.124 53.125 741.515 53.0339 741.833 52.8516C742.155 52.6693 742.397 52.4339 742.559 52.1456C742.725 51.8572 742.808 51.554 742.808 51.2358V50.1619C742.758 50.2216 742.649 50.2763 742.48 50.326C742.314 50.3724 742.122 50.4138 741.903 50.4503C741.687 50.4834 741.477 50.5133 741.271 50.5398C741.069 50.563 740.905 50.5829 740.779 50.5994C740.474 50.6392 740.189 50.7038 739.924 50.7933C739.662 50.8795 739.45 51.0104 739.288 51.1861C739.129 51.3584 739.049 51.5937 739.049 51.892C739.049 52.2997 739.2 52.608 739.502 52.8168C739.806 53.0223 740.193 53.125 740.66 53.125ZM747.31 49.4062V54H746.136V46.3636H747.27V47.5568H747.369C747.548 47.169 747.82 46.8575 748.185 46.6222C748.549 46.3835 749.02 46.2642 749.597 46.2642C750.114 46.2642 750.566 46.3703 750.954 46.5824C751.342 46.7912 751.643 47.1094 751.859 47.5369C752.074 47.9612 752.182 48.4981 752.182 49.1477V54H751.009V49.2273C751.009 48.6274 750.853 48.16 750.541 47.8253C750.23 47.4872 749.802 47.3182 749.259 47.3182C748.884 47.3182 748.549 47.3994 748.254 47.5618C747.963 47.7242 747.732 47.9612 747.563 48.2727C747.394 48.5843 747.31 48.9621 747.31 49.4062ZM755.195 54.0795C754.95 54.0795 754.739 53.9917 754.564 53.8161C754.388 53.6404 754.3 53.4299 754.3 53.1847C754.3 52.9394 754.388 52.7289 754.564 52.5533C754.739 52.3776 754.95 52.2898 755.195 52.2898C755.44 52.2898 755.651 52.3776 755.826 52.5533C756.002 52.7289 756.09 52.9394 756.09 53.1847C756.09 53.3471 756.048 53.4962 755.966 53.6321C755.886 53.768 755.778 53.8774 755.642 53.9602C755.51 54.0398 755.361 54.0795 755.195 54.0795ZM483.676 66.9119V65.8182H491.312V66.9119H488.111V76H486.878V66.9119H483.676ZM494.244 71.4062V76H493.07V65.8182H494.244V69.5568H494.343C494.522 69.1624 494.79 68.8492 495.148 68.6172C495.51 68.3819 495.99 68.2642 496.59 68.2642C497.111 68.2642 497.566 68.3686 497.957 68.5774C498.348 68.7829 498.652 69.0994 498.867 69.527C499.086 69.9512 499.195 70.4915 499.195 71.1477V76H498.022V71.2273C498.022 70.6207 497.865 70.1518 497.55 69.8203C497.238 69.4856 496.806 69.3182 496.252 69.3182C495.868 69.3182 495.523 69.3994 495.218 69.5618C494.916 69.7242 494.678 69.9612 494.502 70.2727C494.33 70.5843 494.244 70.9621 494.244 71.4062ZM504.557 76.1591C503.822 76.1591 503.187 75.9967 502.653 75.6719C502.123 75.3438 501.714 74.8864 501.425 74.2997C501.14 73.7098 500.998 73.0237 500.998 72.2415C500.998 71.4593 501.14 70.7699 501.425 70.1733C501.714 69.5734 502.115 69.1061 502.628 68.7713C503.146 68.4332 503.749 68.2642 504.438 68.2642C504.836 68.2642 505.229 68.3305 505.616 68.4631C506.004 68.5956 506.357 68.8111 506.675 69.1094C506.994 69.4044 507.247 69.7955 507.436 70.2827C507.625 70.7699 507.719 71.3698 507.719 72.0824V72.5795H501.833V71.5653H506.526C506.526 71.1345 506.44 70.75 506.268 70.4119C506.099 70.0739 505.857 69.8071 505.542 69.6115C505.23 69.416 504.862 69.3182 504.438 69.3182C503.971 69.3182 503.566 69.4342 503.225 69.6662C502.887 69.8949 502.627 70.1932 502.445 70.5611C502.262 70.929 502.171 71.3234 502.171 71.7443V72.4205C502.171 72.9972 502.271 73.486 502.469 73.8871C502.672 74.2848 502.952 74.5881 503.31 74.7969C503.668 75.0024 504.084 75.1051 504.557 75.1051C504.866 75.1051 505.144 75.062 505.393 74.9759C505.645 74.8864 505.862 74.7538 506.044 74.5781C506.226 74.3991 506.367 74.1771 506.467 73.9119L507.6 74.2301C507.481 74.6146 507.28 74.9527 506.999 75.2443C506.717 75.5327 506.369 75.758 505.954 75.9205C505.54 76.0795 505.075 76.1591 504.557 76.1591ZM513.629 76V65.8182H514.802V69.5767H514.902C514.988 69.4441 515.107 69.2751 515.259 69.0696C515.415 68.8608 515.637 68.6752 515.926 68.5128C516.217 68.3471 516.612 68.2642 517.109 68.2642C517.752 68.2642 518.319 68.425 518.809 68.7464C519.3 69.0679 519.683 69.5237 519.958 70.1136C520.233 70.7036 520.37 71.3996 520.37 72.2017C520.37 73.0104 520.233 73.7114 519.958 74.3047C519.683 74.8946 519.301 75.352 518.814 75.6768C518.327 75.9983 517.765 76.1591 517.129 76.1591C516.638 76.1591 516.246 76.0779 515.951 75.9155C515.656 75.7498 515.429 75.5625 515.269 75.3537C515.11 75.1416 514.988 74.9659 514.902 74.8267H514.762V76H513.629ZM514.782 72.1818C514.782 72.7585 514.867 73.2673 515.036 73.7081C515.205 74.1456 515.452 74.4886 515.777 74.7372C516.101 74.9825 516.499 75.1051 516.97 75.1051C517.46 75.1051 517.87 74.9759 518.198 74.7173C518.529 74.4555 518.778 74.1042 518.943 73.6634C519.112 73.2192 519.197 72.7254 519.197 72.1818C519.197 71.6449 519.114 71.161 518.948 70.7301C518.786 70.2959 518.539 69.9529 518.208 69.701C517.88 69.4458 517.467 69.3182 516.97 69.3182C516.492 69.3182 516.091 69.4392 515.767 69.6811C515.442 69.9197 515.197 70.2545 515.031 70.6854C514.865 71.1129 514.782 71.6117 514.782 72.1818ZM525.381 76.1591C524.645 76.1591 524.01 75.9967 523.477 75.6719C522.946 75.3438 522.537 74.8864 522.249 74.2997C521.964 73.7098 521.821 73.0237 521.821 72.2415C521.821 71.4593 521.964 70.7699 522.249 70.1733C522.537 69.5734 522.938 69.1061 523.452 68.7713C523.969 68.4332 524.572 68.2642 525.261 68.2642C525.659 68.2642 526.052 68.3305 526.44 68.4631C526.827 68.5956 527.18 68.8111 527.499 69.1094C527.817 69.4044 528.07 69.7955 528.259 70.2827C528.448 70.7699 528.543 71.3698 528.543 72.0824V72.5795H522.656V71.5653H527.349C527.349 71.1345 527.263 70.75 527.091 70.4119C526.922 70.0739 526.68 69.8071 526.365 69.6115C526.054 69.416 525.686 69.3182 525.261 69.3182C524.794 69.3182 524.39 69.4342 524.048 69.6662C523.71 69.8949 523.45 70.1932 523.268 70.5611C523.086 70.929 522.994 71.3234 522.994 71.7443V72.4205C522.994 72.9972 523.094 73.486 523.293 73.8871C523.495 74.2848 523.775 74.5881 524.133 74.7969C524.491 75.0024 524.907 75.1051 525.381 75.1051C525.689 75.1051 525.967 75.062 526.216 74.9759C526.468 74.8864 526.685 74.7538 526.867 74.5781C527.05 74.3991 527.19 74.1771 527.29 73.9119L528.423 74.2301C528.304 74.6146 528.103 74.9527 527.822 75.2443C527.54 75.5327 527.192 75.758 526.778 75.9205C526.363 76.0795 525.898 76.1591 525.381 76.1591ZM535.751 70.0739L534.697 70.3722C534.63 70.1965 534.533 70.0258 534.403 69.8601C534.277 69.6911 534.105 69.5518 533.886 69.4425C533.667 69.3331 533.387 69.2784 533.046 69.2784C532.579 69.2784 532.189 69.3861 531.878 69.6016C531.569 69.8137 531.415 70.0838 531.415 70.4119C531.415 70.7036 531.521 70.9339 531.734 71.103C531.946 71.272 532.277 71.4129 532.728 71.5256L533.861 71.804C534.544 71.9697 535.053 72.2232 535.388 72.5646C535.722 72.9027 535.89 73.3385 535.89 73.8722C535.89 74.3097 535.764 74.7008 535.512 75.0455C535.263 75.3902 534.915 75.6619 534.468 75.8608C534.02 76.0597 533.5 76.1591 532.907 76.1591C532.128 76.1591 531.483 75.9901 530.973 75.652C530.462 75.3139 530.139 74.8201 530.003 74.1705L531.117 73.892C531.223 74.303 531.424 74.6113 531.719 74.8168C532.017 75.0223 532.406 75.125 532.887 75.125C533.434 75.125 533.868 75.009 534.189 74.777C534.514 74.5417 534.677 74.2599 534.677 73.9318C534.677 73.6667 534.584 73.4446 534.398 73.2656C534.213 73.0833 533.928 72.9474 533.543 72.858L532.27 72.5597C531.571 72.3939 531.057 72.1371 530.729 71.7891C530.404 71.4377 530.242 70.9986 530.242 70.4716C530.242 70.0407 530.363 69.6596 530.605 69.3281C530.85 68.9967 531.183 68.7365 531.604 68.5476C532.028 68.3587 532.509 68.2642 533.046 68.2642C533.802 68.2642 534.395 68.4299 534.826 68.7614C535.26 69.0928 535.568 69.5303 535.751 70.0739ZM540.991 68.3636V69.358H537.034V68.3636H540.991ZM538.187 66.5341H539.36V73.8125C539.36 74.1439 539.408 74.3925 539.504 74.5582C539.604 74.7206 539.73 74.83 539.882 74.8864C540.038 74.9394 540.202 74.9659 540.374 74.9659C540.504 74.9659 540.61 74.9593 540.693 74.946C540.775 74.9295 540.842 74.9162 540.892 74.9062L541.13 75.9602C541.051 75.9901 540.94 76.0199 540.797 76.0497C540.655 76.0829 540.474 76.0994 540.255 76.0994C539.924 76.0994 539.599 76.0282 539.281 75.8857C538.966 75.7431 538.704 75.526 538.495 75.2344C538.29 74.9427 538.187 74.5748 538.187 74.1307V66.5341ZM546.721 78.8636V68.3636H547.855V69.5767H547.994C548.08 69.4441 548.2 69.2751 548.352 69.0696C548.508 68.8608 548.73 68.6752 549.018 68.5128C549.31 68.3471 549.704 68.2642 550.201 68.2642C550.844 68.2642 551.411 68.425 551.902 68.7464C552.392 69.0679 552.775 69.5237 553.05 70.1136C553.325 70.7036 553.463 71.3996 553.463 72.2017C553.463 73.0104 553.325 73.7114 553.05 74.3047C552.775 74.8946 552.394 75.352 551.907 75.6768C551.42 75.9983 550.858 76.1591 550.221 76.1591C549.731 76.1591 549.338 76.0779 549.043 75.9155C548.748 75.7498 548.521 75.5625 548.362 75.3537C548.203 75.1416 548.08 74.9659 547.994 74.8267H547.895V78.8636H546.721ZM547.875 72.1818C547.875 72.7585 547.959 73.2673 548.128 73.7081C548.297 74.1456 548.544 74.4886 548.869 74.7372C549.194 74.9825 549.592 75.1051 550.062 75.1051C550.553 75.1051 550.962 74.9759 551.29 74.7173C551.622 74.4555 551.87 74.1042 552.036 73.6634C552.205 73.2192 552.29 72.7254 552.29 72.1818C552.29 71.6449 552.207 71.161 552.041 70.7301C551.879 70.2959 551.632 69.9529 551.3 69.701C550.972 69.4458 550.559 69.3182 550.062 69.3182C549.585 69.3182 549.184 69.4392 548.859 69.6811C548.534 69.9197 548.289 70.2545 548.123 70.6854C547.958 71.1129 547.875 71.6117 547.875 72.1818ZM557.514 76.179C557.03 76.179 556.591 76.0878 556.196 75.9055C555.802 75.7199 555.489 75.4531 555.257 75.1051C555.025 74.7538 554.909 74.3295 554.909 73.8324C554.909 73.3949 554.995 73.0402 555.167 72.7685C555.34 72.4934 555.57 72.2779 555.858 72.1222C556.147 71.9664 556.465 71.8504 556.813 71.7741C557.164 71.6946 557.517 71.6316 557.872 71.5852C558.336 71.5256 558.712 71.4808 559 71.451C559.292 71.4179 559.504 71.3632 559.637 71.2869C559.773 71.2107 559.84 71.0781 559.84 70.8892V70.8494C559.84 70.3589 559.706 69.9777 559.438 69.706C559.173 69.4342 558.77 69.2983 558.23 69.2983C557.67 69.2983 557.23 69.4209 556.912 69.6662C556.594 69.9115 556.37 70.1733 556.241 70.4517L555.127 70.054C555.326 69.59 555.591 69.2287 555.923 68.9702C556.258 68.7083 556.622 68.526 557.017 68.4233C557.414 68.3172 557.805 68.2642 558.19 68.2642C558.435 68.2642 558.717 68.294 559.035 68.3537C559.357 68.41 559.666 68.5277 559.965 68.7067C560.266 68.8857 560.517 69.1558 560.715 69.517C560.914 69.8783 561.014 70.3622 561.014 70.9688V76H559.84V74.9659H559.781C559.701 75.1316 559.569 75.3089 559.383 75.4979C559.197 75.6868 558.951 75.8475 558.642 75.9801C558.334 76.1127 557.958 76.179 557.514 76.179ZM557.693 75.125C558.157 75.125 558.548 75.0339 558.866 74.8516C559.188 74.6693 559.429 74.4339 559.592 74.1456C559.758 73.8572 559.84 73.554 559.84 73.2358V72.1619C559.791 72.2216 559.681 72.2763 559.512 72.326C559.347 72.3724 559.154 72.4138 558.936 72.4503C558.72 72.4834 558.51 72.5133 558.304 72.5398C558.102 72.563 557.938 72.5829 557.812 72.5994C557.507 72.6392 557.222 72.7038 556.957 72.7933C556.695 72.8795 556.483 73.0104 556.321 73.1861C556.161 73.3584 556.082 73.5937 556.082 73.892C556.082 74.2997 556.233 74.608 556.534 74.8168C556.839 75.0223 557.225 75.125 557.693 75.125ZM563.169 76V68.3636H564.303V69.517H564.382C564.522 69.1392 564.773 68.8326 565.138 68.5973C565.503 68.362 565.914 68.2443 566.371 68.2443C566.457 68.2443 566.565 68.246 566.694 68.2493C566.823 68.2526 566.921 68.2576 566.987 68.2642V69.4574C566.948 69.4474 566.857 69.4325 566.714 69.4126C566.575 69.3894 566.427 69.3778 566.272 69.3778C565.9 69.3778 565.569 69.4557 565.277 69.6115C564.989 69.764 564.76 69.9761 564.591 70.2479C564.425 70.5163 564.343 70.8229 564.343 71.1676V76H563.169ZM572.192 68.3636V69.358H568.234V68.3636H572.192ZM569.388 66.5341H570.561V73.8125C570.561 74.1439 570.609 74.3925 570.705 74.5582C570.805 74.7206 570.931 74.83 571.083 74.8864C571.239 74.9394 571.403 74.9659 571.575 74.9659C571.705 74.9659 571.811 74.9593 571.893 74.946C571.976 74.9295 572.043 74.9162 572.092 74.9062L572.331 75.9602C572.251 75.9901 572.14 76.0199 571.998 76.0497C571.855 76.0829 571.675 76.0994 571.456 76.0994C571.125 76.0994 570.8 76.0282 570.482 75.8857C570.167 75.7431 569.905 75.526 569.696 75.2344C569.491 74.9427 569.388 74.5748 569.388 74.1307V66.5341ZM575.502 73.1364V73.0767C575.509 72.4437 575.575 71.9399 575.701 71.5653C575.827 71.1908 576.006 70.8875 576.238 70.6555C576.47 70.4235 576.748 70.2098 577.073 70.0142C577.269 69.8949 577.444 69.754 577.6 69.5916C577.756 69.4259 577.878 69.2353 577.968 69.0199C578.061 68.8045 578.107 68.5658 578.107 68.304C578.107 67.9792 578.031 67.6974 577.878 67.4588C577.726 67.2202 577.522 67.0362 577.267 66.907C577.012 66.7777 576.728 66.7131 576.417 66.7131C576.145 66.7131 575.883 66.7694 575.631 66.8821C575.379 66.9948 575.169 67.1721 575 67.4141C574.831 67.656 574.733 67.9725 574.707 68.3636H573.454C573.48 67.8002 573.626 67.3179 573.891 66.9169C574.16 66.5159 574.513 66.2093 574.95 65.9972C575.391 65.785 575.88 65.679 576.417 65.679C577 65.679 577.507 65.795 577.938 66.027C578.372 66.259 578.707 66.5772 578.942 66.9815C579.181 67.3859 579.3 67.8466 579.3 68.3636C579.3 68.7282 579.244 69.058 579.131 69.353C579.022 69.648 578.863 69.9115 578.654 70.1435C578.448 70.3755 578.2 70.581 577.908 70.7599C577.617 70.9422 577.383 71.1345 577.207 71.3366C577.032 71.5355 576.904 71.7725 576.824 72.0476C576.745 72.3227 576.702 72.6657 576.695 73.0767V73.1364H575.502ZM576.138 76.0795C575.893 76.0795 575.683 75.9917 575.507 75.8161C575.331 75.6404 575.243 75.4299 575.243 75.1847C575.243 74.9394 575.331 74.7289 575.507 74.5533C575.683 74.3776 575.893 74.2898 576.138 74.2898C576.384 74.2898 576.594 74.3776 576.77 74.5533C576.945 74.7289 577.033 74.9394 577.033 75.1847C577.033 75.3471 576.992 75.4962 576.909 75.6321C576.829 75.768 576.722 75.8774 576.586 75.9602C576.453 76.0398 576.304 76.0795 576.138 76.0795ZM586.424 65.8182V76H585.191V65.8182H586.424ZM592.072 68.3636V69.358H588.115V68.3636H592.072ZM589.268 66.5341H590.441V73.8125C590.441 74.1439 590.489 74.3925 590.586 74.5582C590.685 74.7206 590.811 74.83 590.963 74.8864C591.119 74.9394 591.283 74.9659 591.456 74.9659C591.585 74.9659 591.691 74.9593 591.774 74.946C591.857 74.9295 591.923 74.9162 591.973 74.9062L592.211 75.9602C592.132 75.9901 592.021 76.0199 591.878 76.0497C591.736 76.0829 591.555 76.0994 591.336 76.0994C591.005 76.0994 590.68 76.0282 590.362 75.8857C590.047 75.7431 589.785 75.526 589.576 75.2344C589.371 74.9427 589.268 74.5748 589.268 74.1307V66.5341ZM595.282 65.8182V66.7131C595.282 66.9848 595.232 67.2749 595.132 67.5831C595.036 67.888 594.894 68.1847 594.705 68.473C594.519 68.758 594.294 69.0066 594.029 69.2188L593.392 68.7017C593.601 68.4034 593.782 68.0935 593.934 67.772C594.09 67.4472 594.168 67.1009 594.168 66.733V65.8182H595.282ZM601.174 70.0739L600.12 70.3722C600.054 70.1965 599.956 70.0258 599.827 69.8601C599.701 69.6911 599.529 69.5518 599.31 69.4425C599.091 69.3331 598.811 69.2784 598.47 69.2784C598.003 69.2784 597.613 69.3861 597.302 69.6016C596.993 69.8137 596.839 70.0838 596.839 70.4119C596.839 70.7036 596.945 70.9339 597.157 71.103C597.369 71.272 597.701 71.4129 598.152 71.5256L599.285 71.804C599.968 71.9697 600.477 72.2232 600.811 72.5646C601.146 72.9027 601.314 73.3385 601.314 73.8722C601.314 74.3097 601.188 74.7008 600.936 75.0455C600.687 75.3902 600.339 75.6619 599.892 75.8608C599.444 76.0597 598.924 76.1591 598.331 76.1591C597.552 76.1591 596.907 75.9901 596.397 75.652C595.886 75.3139 595.563 74.8201 595.427 74.1705L596.541 73.892C596.647 74.303 596.847 74.6113 597.142 74.8168C597.441 75.0223 597.83 75.125 598.311 75.125C598.858 75.125 599.292 75.009 599.613 74.777C599.938 74.5417 600.101 74.2599 600.101 73.9318C600.101 73.6667 600.008 73.4446 599.822 73.2656C599.637 73.0833 599.351 72.9474 598.967 72.858L597.694 72.5597C596.995 72.3939 596.481 72.1371 596.153 71.7891C595.828 71.4377 595.666 70.9986 595.666 70.4716C595.666 70.0407 595.787 69.6596 596.029 69.3281C596.274 68.9967 596.607 68.7365 597.028 68.5476C597.452 68.3587 597.933 68.2642 598.47 68.2642C599.226 68.2642 599.819 68.4299 600.25 68.7614C600.684 69.0928 600.992 69.5303 601.174 70.0739ZM612.454 70.0739L611.4 70.3722C611.334 70.1965 611.236 70.0258 611.107 69.8601C610.981 69.6911 610.809 69.5518 610.59 69.4425C610.371 69.3331 610.091 69.2784 609.75 69.2784C609.282 69.2784 608.893 69.3861 608.581 69.6016C608.273 69.8137 608.119 70.0838 608.119 70.4119C608.119 70.7036 608.225 70.9339 608.437 71.103C608.649 71.272 608.981 71.4129 609.432 71.5256L610.565 71.804C611.248 71.9697 611.757 72.2232 612.091 72.5646C612.426 72.9027 612.594 73.3385 612.594 73.8722C612.594 74.3097 612.468 74.7008 612.216 75.0455C611.967 75.3902 611.619 75.6619 611.172 75.8608C610.724 76.0597 610.204 76.1591 609.611 76.1591C608.832 76.1591 608.187 75.9901 607.677 75.652C607.166 75.3139 606.843 74.8201 606.707 74.1705L607.821 73.892C607.927 74.303 608.127 74.6113 608.422 74.8168C608.721 75.0223 609.11 75.125 609.591 75.125C610.138 75.125 610.572 75.009 610.893 74.777C611.218 74.5417 611.38 74.2599 611.38 73.9318C611.38 73.6667 611.288 73.4446 611.102 73.2656C610.916 73.0833 610.631 72.9474 610.247 72.858L608.974 72.5597C608.275 72.3939 607.761 72.1371 607.433 71.7891C607.108 71.4377 606.946 70.9986 606.946 70.4716C606.946 70.0407 607.067 69.6596 607.309 69.3281C607.554 68.9967 607.887 68.7365 608.308 68.5476C608.732 68.3587 609.213 68.2642 609.75 68.2642C610.505 68.2642 611.099 68.4299 611.53 68.7614C611.964 69.0928 612.272 69.5303 612.454 70.0739ZM617.476 76.1591C616.787 76.1591 616.182 75.995 615.661 75.6669C615.144 75.3388 614.74 74.8797 614.448 74.2898C614.16 73.6998 614.016 73.0104 614.016 72.2216C614.016 71.4261 614.16 70.7318 614.448 70.1385C614.74 69.5452 615.144 69.0845 615.661 68.7564C616.182 68.4283 616.787 68.2642 617.476 68.2642C618.165 68.2642 618.769 68.4283 619.286 68.7564C619.806 69.0845 620.21 69.5452 620.499 70.1385C620.79 70.7318 620.936 71.4261 620.936 72.2216C620.936 73.0104 620.79 73.6998 620.499 74.2898C620.21 74.8797 619.806 75.3388 619.286 75.6669C618.769 75.995 618.165 76.1591 617.476 76.1591ZM617.476 75.1051C618 75.1051 618.431 74.9709 618.769 74.7024C619.107 74.4339 619.357 74.081 619.519 73.6435C619.682 73.206 619.763 72.732 619.763 72.2216C619.763 71.7112 619.682 71.2356 619.519 70.7947C619.357 70.3539 619.107 69.9976 618.769 69.7259C618.431 69.4541 618 69.3182 617.476 69.3182C616.952 69.3182 616.521 69.4541 616.183 69.7259C615.845 69.9976 615.595 70.3539 615.433 70.7947C615.27 71.2356 615.189 71.7112 615.189 72.2216C615.189 72.732 615.27 73.206 615.433 73.6435C615.595 74.081 615.845 74.4339 616.183 74.7024C616.521 74.9709 616.952 75.1051 617.476 75.1051ZM629.894 76.1591C629.159 76.1591 628.524 75.9967 627.99 75.6719C627.46 75.3438 627.051 74.8864 626.762 74.2997C626.477 73.7098 626.335 73.0237 626.335 72.2415C626.335 71.4593 626.477 70.7699 626.762 70.1733C627.051 69.5734 627.452 69.1061 627.965 68.7713C628.483 68.4332 629.086 68.2642 629.775 68.2642C630.173 68.2642 630.566 68.3305 630.953 68.4631C631.341 68.5956 631.694 68.8111 632.012 69.1094C632.331 69.4044 632.584 69.7955 632.773 70.2827C632.962 70.7699 633.056 71.3698 633.056 72.0824V72.5795H627.17V71.5653H631.863C631.863 71.1345 631.777 70.75 631.605 70.4119C631.436 70.0739 631.194 69.8071 630.879 69.6115C630.567 69.416 630.199 69.3182 629.775 69.3182C629.308 69.3182 628.903 69.4342 628.562 69.6662C628.224 69.8949 627.964 70.1932 627.782 70.5611C627.599 70.929 627.508 71.3234 627.508 71.7443V72.4205C627.508 72.9972 627.608 73.486 627.806 73.8871C628.009 74.2848 628.289 74.5881 628.647 74.7969C629.005 75.0024 629.42 75.1051 629.894 75.1051C630.203 75.1051 630.481 75.062 630.73 74.9759C630.982 74.8864 631.199 74.7538 631.381 74.5781C631.563 74.3991 631.704 74.1771 631.804 73.9119L632.937 74.2301C632.818 74.6146 632.617 74.9527 632.336 75.2443C632.054 75.5327 631.706 75.758 631.291 75.9205C630.877 76.0795 630.411 76.1591 629.894 76.1591ZM637.102 76.179C636.618 76.179 636.179 76.0878 635.785 75.9055C635.39 75.7199 635.077 75.4531 634.845 75.1051C634.613 74.7538 634.497 74.3295 634.497 73.8324C634.497 73.3949 634.583 73.0402 634.756 72.7685C634.928 72.4934 635.158 72.2779 635.447 72.1222C635.735 71.9664 636.053 71.8504 636.401 71.7741C636.753 71.6946 637.106 71.6316 637.46 71.5852C637.924 71.5256 638.3 71.4808 638.589 71.451C638.881 71.4179 639.093 71.3632 639.225 71.2869C639.361 71.2107 639.429 71.0781 639.429 70.8892V70.8494C639.429 70.3589 639.295 69.9777 639.026 69.706C638.761 69.4342 638.358 69.2983 637.818 69.2983C637.258 69.2983 636.819 69.4209 636.501 69.6662C636.183 69.9115 635.959 70.1733 635.83 70.4517L634.716 70.054C634.915 69.59 635.18 69.2287 635.511 68.9702C635.846 68.7083 636.211 68.526 636.605 68.4233C637.003 68.3172 637.394 68.2642 637.778 68.2642C638.024 68.2642 638.305 68.294 638.624 68.3537C638.945 68.41 639.255 68.5277 639.553 68.7067C639.855 68.8857 640.105 69.1558 640.304 69.517C640.503 69.8783 640.602 70.3622 640.602 70.9688V76H639.429V74.9659H639.369C639.29 75.1316 639.157 75.3089 638.972 75.4979C638.786 75.6868 638.539 75.8475 638.231 75.9801C637.923 76.1127 637.546 76.179 637.102 76.179ZM637.281 75.125C637.745 75.125 638.136 75.0339 638.455 74.8516C638.776 74.6693 639.018 74.4339 639.18 74.1456C639.346 73.8572 639.429 73.554 639.429 73.2358V72.1619C639.379 72.2216 639.27 72.2763 639.101 72.326C638.935 72.3724 638.743 72.4138 638.524 72.4503C638.309 72.4834 638.098 72.5133 637.893 72.5398C637.691 72.563 637.527 72.5829 637.401 72.5994C637.096 72.6392 636.811 72.7038 636.546 72.7933C636.284 72.8795 636.072 73.0104 635.909 73.1861C635.75 73.3584 635.671 73.5937 635.671 73.892C635.671 74.2997 635.821 74.608 636.123 74.8168C636.428 75.0223 636.814 75.125 637.281 75.125ZM648.167 70.0739L647.113 70.3722C647.047 70.1965 646.949 70.0258 646.82 69.8601C646.694 69.6911 646.521 69.5518 646.303 69.4425C646.084 69.3331 645.804 69.2784 645.462 69.2784C644.995 69.2784 644.606 69.3861 644.294 69.6016C643.986 69.8137 643.832 70.0838 643.832 70.4119C643.832 70.7036 643.938 70.9339 644.15 71.103C644.362 71.272 644.693 71.4129 645.144 71.5256L646.278 71.804C646.961 71.9697 647.469 72.2232 647.804 72.5646C648.139 72.9027 648.306 73.3385 648.306 73.8722C648.306 74.3097 648.18 74.7008 647.928 75.0455C647.68 75.3902 647.332 75.6619 646.884 75.8608C646.437 76.0597 645.916 76.1591 645.323 76.1591C644.544 76.1591 643.9 75.9901 643.389 75.652C642.879 75.3139 642.556 74.8201 642.42 74.1705L643.533 73.892C643.639 74.303 643.84 74.6113 644.135 74.8168C644.433 75.0223 644.823 75.125 645.303 75.125C645.85 75.125 646.284 75.009 646.606 74.777C646.931 74.5417 647.093 74.2599 647.093 73.9318C647.093 73.6667 647 73.4446 646.815 73.2656C646.629 73.0833 646.344 72.9474 645.96 72.858L644.687 72.5597C643.987 72.3939 643.474 72.1371 643.146 71.7891C642.821 71.4377 642.658 70.9986 642.658 70.4716C642.658 70.0407 642.779 69.6596 643.021 69.3281C643.267 68.9967 643.6 68.7365 644.021 68.5476C644.445 68.3587 644.925 68.2642 645.462 68.2642C646.218 68.2642 646.811 68.4299 647.242 68.7614C647.676 69.0928 647.985 69.5303 648.167 70.0739ZM650.842 78.8636C650.643 78.8636 650.466 78.8471 650.31 78.8139C650.154 78.7841 650.047 78.7543 649.987 78.7244L650.285 77.6903C650.57 77.7633 650.822 77.7898 651.041 77.7699C651.26 77.75 651.453 77.6522 651.623 77.4766C651.795 77.3042 651.952 77.0241 652.095 76.6364L652.314 76.0398L649.49 68.3636H650.762L652.87 74.4489H652.95L655.058 68.3636H656.331L653.089 77.1136C652.943 77.508 652.763 77.8345 652.547 78.093C652.332 78.3549 652.082 78.5488 651.797 78.6747C651.515 78.8007 651.197 78.8636 650.842 78.8636ZM659.165 74.608L659.085 75.1449C659.029 75.5227 658.943 75.9271 658.827 76.358C658.714 76.7888 658.596 77.1948 658.474 77.576C658.351 77.9571 658.25 78.2604 658.17 78.4858H657.276C657.319 78.2737 657.375 77.9936 657.445 77.6456C657.514 77.2976 657.584 76.9081 657.653 76.4773C657.726 76.0497 657.786 75.6122 657.832 75.1648L657.892 74.608H659.165ZM667.551 76.179C667.067 76.179 666.628 76.0878 666.234 75.9055C665.839 75.7199 665.526 75.4531 665.294 75.1051C665.062 74.7538 664.946 74.3295 664.946 73.8324C664.946 73.3949 665.032 73.0402 665.205 72.7685C665.377 72.4934 665.607 72.2779 665.896 72.1222C666.184 71.9664 666.502 71.8504 666.85 71.7741C667.202 71.6946 667.555 71.6316 667.909 71.5852C668.373 71.5256 668.749 71.4808 669.038 71.451C669.329 71.4179 669.542 71.3632 669.674 71.2869C669.81 71.2107 669.878 71.0781 669.878 70.8892V70.8494C669.878 70.3589 669.744 69.9777 669.475 69.706C669.21 69.4342 668.807 69.2983 668.267 69.2983C667.707 69.2983 667.268 69.4209 666.95 69.6662C666.632 69.9115 666.408 70.1733 666.279 70.4517L665.165 70.054C665.364 69.59 665.629 69.2287 665.96 68.9702C666.295 68.7083 666.66 68.526 667.054 68.4233C667.452 68.3172 667.843 68.2642 668.227 68.2642C668.473 68.2642 668.754 68.294 669.073 68.3537C669.394 68.41 669.704 68.5277 670.002 68.7067C670.304 68.8857 670.554 69.1558 670.753 69.517C670.952 69.8783 671.051 70.3622 671.051 70.9688V76H669.878V74.9659H669.818C669.739 75.1316 669.606 75.3089 669.421 75.4979C669.235 75.6868 668.988 75.8475 668.68 75.9801C668.372 76.1127 667.995 76.179 667.551 76.179ZM667.73 75.125C668.194 75.125 668.585 75.0339 668.904 74.8516C669.225 74.6693 669.467 74.4339 669.629 74.1456C669.795 73.8572 669.878 73.554 669.878 73.2358V72.1619C669.828 72.2216 669.719 72.2763 669.55 72.326C669.384 72.3724 669.192 72.4138 668.973 72.4503C668.758 72.4834 668.547 72.5133 668.342 72.5398C668.14 72.563 667.975 72.5829 667.85 72.5994C667.545 72.6392 667.26 72.7038 666.994 72.7933C666.733 72.8795 666.52 73.0104 666.358 73.1861C666.199 73.3584 666.119 73.5937 666.119 73.892C666.119 74.2997 666.27 74.608 666.572 74.8168C666.877 75.0223 667.263 75.125 667.73 75.125ZM674.38 71.4062V76H673.207V68.3636H674.34V69.5568H674.44C674.619 69.169 674.89 68.8575 675.255 68.6222C675.62 68.3835 676.09 68.2642 676.667 68.2642C677.184 68.2642 677.636 68.3703 678.024 68.5824C678.412 68.7912 678.714 69.1094 678.929 69.5369C679.144 69.9612 679.252 70.4981 679.252 71.1477V76H678.079V71.2273C678.079 70.6274 677.923 70.16 677.612 69.8253C677.3 69.4872 676.872 69.3182 676.329 69.3182C675.954 69.3182 675.62 69.3994 675.325 69.5618C675.033 69.7242 674.803 69.9612 674.634 70.2727C674.465 70.5843 674.38 70.9621 674.38 71.4062ZM684.294 76.1591C683.657 76.1591 683.096 75.9983 682.608 75.6768C682.121 75.352 681.74 74.8946 681.465 74.3047C681.19 73.7114 681.052 73.0104 681.052 72.2017C681.052 71.3996 681.19 70.7036 681.465 70.1136C681.74 69.5237 682.123 69.0679 682.613 68.7464C683.104 68.425 683.671 68.2642 684.314 68.2642C684.811 68.2642 685.204 68.3471 685.492 68.5128C685.784 68.6752 686.006 68.8608 686.158 69.0696C686.314 69.2751 686.435 69.4441 686.521 69.5767H686.62V65.8182H687.794V76H686.66V74.8267H686.521C686.435 74.9659 686.312 75.1416 686.153 75.3537C685.994 75.5625 685.767 75.7498 685.472 75.9155C685.177 76.0779 684.784 76.1591 684.294 76.1591ZM684.453 75.1051C684.923 75.1051 685.321 74.9825 685.646 74.7372C685.971 74.4886 686.218 74.1456 686.387 73.7081C686.556 73.2673 686.64 72.7585 686.64 72.1818C686.64 71.6117 686.557 71.1129 686.392 70.6854C686.226 70.2545 685.981 69.9197 685.656 69.6811C685.331 69.4392 684.93 69.3182 684.453 69.3182C683.956 69.3182 683.541 69.4458 683.21 69.701C682.882 69.9529 682.635 70.2959 682.469 70.7301C682.307 71.161 682.226 71.6449 682.226 72.1818C682.226 72.7254 682.308 73.2192 682.474 73.6634C682.643 74.1042 682.892 74.4555 683.22 74.7173C683.551 74.9759 683.962 75.1051 684.453 75.1051ZM695.463 65.8182V76H694.23V65.8182H695.463ZM704.844 76.1591C704.128 76.1591 703.511 75.9901 702.994 75.652C702.477 75.3139 702.08 74.8482 701.801 74.255C701.523 73.6617 701.384 72.9839 701.384 72.2216C701.384 71.446 701.526 70.7616 701.811 70.1683C702.1 69.5717 702.501 69.1061 703.014 68.7713C703.531 68.4332 704.135 68.2642 704.824 68.2642C705.361 68.2642 705.845 68.3636 706.276 68.5625C706.707 68.7614 707.06 69.0398 707.335 69.3977C707.61 69.7557 707.78 70.1733 707.847 70.6506H706.673C706.584 70.3026 706.385 69.9943 706.077 69.7259C705.772 69.4541 705.361 69.3182 704.844 69.3182C704.386 69.3182 703.985 69.4375 703.641 69.6761C703.299 69.9115 703.033 70.2446 702.84 70.6754C702.651 71.103 702.557 71.6051 702.557 72.1818C702.557 72.7718 702.65 73.2855 702.835 73.723C703.024 74.1605 703.289 74.5002 703.631 74.7422C703.976 74.9841 704.38 75.1051 704.844 75.1051C705.149 75.1051 705.426 75.0521 705.674 74.946C705.923 74.84 706.133 74.6875 706.306 74.4886C706.478 74.2898 706.601 74.0511 706.673 73.7727H707.847C707.78 74.2235 707.616 74.6295 707.355 74.9908C707.096 75.3487 706.753 75.6338 706.325 75.8459C705.901 76.0547 705.407 76.1591 704.844 76.1591ZM711.823 76.179C711.339 76.179 710.9 76.0878 710.506 75.9055C710.111 75.7199 709.798 75.4531 709.566 75.1051C709.334 74.7538 709.218 74.3295 709.218 73.8324C709.218 73.3949 709.304 73.0402 709.476 72.7685C709.649 72.4934 709.879 72.2779 710.168 72.1222C710.456 71.9664 710.774 71.8504 711.122 71.7741C711.473 71.6946 711.826 71.6316 712.181 71.5852C712.645 71.5256 713.021 71.4808 713.31 71.451C713.601 71.4179 713.813 71.3632 713.946 71.2869C714.082 71.2107 714.15 71.0781 714.15 70.8892V70.8494C714.15 70.3589 714.016 69.9777 713.747 69.706C713.482 69.4342 713.079 69.2983 712.539 69.2983C711.979 69.2983 711.54 69.4209 711.222 69.6662C710.903 69.9115 710.68 70.1733 710.55 70.4517L709.437 70.054C709.636 69.59 709.901 69.2287 710.232 68.9702C710.567 68.7083 710.931 68.526 711.326 68.4233C711.724 68.3172 712.115 68.2642 712.499 68.2642C712.744 68.2642 713.026 68.294 713.344 68.3537C713.666 68.41 713.976 68.5277 714.274 68.7067C714.576 68.8857 714.826 69.1558 715.025 69.517C715.224 69.8783 715.323 70.3622 715.323 70.9688V76H714.15V74.9659H714.09C714.011 75.1316 713.878 75.3089 713.692 75.4979C713.507 75.6868 713.26 75.8475 712.952 75.9801C712.643 76.1127 712.267 76.179 711.823 76.179ZM712.002 75.125C712.466 75.125 712.857 75.0339 713.175 74.8516C713.497 74.6693 713.739 74.4339 713.901 74.1456C714.067 73.8572 714.15 73.554 714.15 73.2358V72.1619C714.1 72.2216 713.991 72.2763 713.822 72.326C713.656 72.3724 713.464 72.4138 713.245 72.4503C713.03 72.4834 712.819 72.5133 712.614 72.5398C712.411 72.563 712.247 72.5829 712.121 72.5994C711.816 72.6392 711.531 72.7038 711.266 72.7933C711.004 72.8795 710.792 73.0104 710.63 73.1861C710.471 73.3584 710.391 73.5937 710.391 73.892C710.391 74.2997 710.542 74.608 710.844 74.8168C711.149 75.0223 711.535 75.125 712.002 75.125ZM718.652 71.4062V76H717.479V68.3636H718.612V69.5568H718.712C718.891 69.169 719.162 68.8575 719.527 68.6222C719.891 68.3835 720.362 68.2642 720.939 68.2642C721.456 68.2642 721.908 68.3703 722.296 68.5824C722.684 68.7912 722.985 69.1094 723.201 69.5369C723.416 69.9612 723.524 70.4981 723.524 71.1477V76H722.351V71.2273C722.351 70.6274 722.195 70.16 721.883 69.8253C721.572 69.4872 721.144 69.3182 720.601 69.3182C720.226 69.3182 719.891 69.3994 719.596 69.5618C719.305 69.7242 719.074 69.9612 718.905 70.2727C718.736 70.5843 718.652 70.9621 718.652 71.4062ZM732.955 68.3636V69.358H728.997V68.3636H732.955ZM730.151 66.5341H731.324V73.8125C731.324 74.1439 731.372 74.3925 731.468 74.5582C731.567 74.7206 731.693 74.83 731.846 74.8864C732.002 74.9394 732.166 74.9659 732.338 74.9659C732.467 74.9659 732.573 74.9593 732.656 74.946C732.739 74.9295 732.805 74.9162 732.855 74.9062L733.094 75.9602C733.014 75.9901 732.903 76.0199 732.761 76.0497C732.618 76.0829 732.438 76.0994 732.219 76.0994C731.887 76.0994 731.563 76.0282 731.244 75.8857C730.929 75.7431 730.668 75.526 730.459 75.2344C730.253 74.9427 730.151 74.5748 730.151 74.1307V66.5341ZM734.733 76V68.3636H735.867V69.517H735.947C736.086 69.1392 736.338 68.8326 736.702 68.5973C737.067 68.362 737.478 68.2443 737.935 68.2443C738.021 68.2443 738.129 68.246 738.258 68.2493C738.388 68.2526 738.485 68.2576 738.552 68.2642V69.4574C738.512 69.4474 738.421 69.4325 738.278 69.4126C738.139 69.3894 737.992 69.3778 737.836 69.3778C737.465 69.3778 737.133 69.4557 736.841 69.6115C736.553 69.764 736.324 69.9761 736.155 70.2479C735.99 70.5163 735.907 70.8229 735.907 71.1676V76H734.733ZM742.204 76.179C741.72 76.179 741.281 76.0878 740.886 75.9055C740.492 75.7199 740.179 75.4531 739.947 75.1051C739.715 74.7538 739.599 74.3295 739.599 73.8324C739.599 73.3949 739.685 73.0402 739.857 72.7685C740.029 72.4934 740.26 72.2779 740.548 72.1222C740.836 71.9664 741.155 71.8504 741.503 71.7741C741.854 71.6946 742.207 71.6316 742.562 71.5852C743.026 71.5256 743.402 71.4808 743.69 71.451C743.982 71.4179 744.194 71.3632 744.326 71.2869C744.462 71.2107 744.53 71.0781 744.53 70.8892V70.8494C744.53 70.3589 744.396 69.9777 744.128 69.706C743.862 69.4342 743.46 69.2983 742.92 69.2983C742.359 69.2983 741.92 69.4209 741.602 69.6662C741.284 69.9115 741.06 70.1733 740.931 70.4517L739.817 70.054C740.016 69.59 740.281 69.2287 740.613 68.9702C740.947 68.7083 741.312 68.526 741.706 68.4233C742.104 68.3172 742.495 68.2642 742.88 68.2642C743.125 68.2642 743.407 68.294 743.725 68.3537C744.046 68.41 744.356 68.5277 744.655 68.7067C744.956 68.8857 745.206 69.1558 745.405 69.517C745.604 69.8783 745.704 70.3622 745.704 70.9688V76H744.53V74.9659H744.471C744.391 75.1316 744.259 75.3089 744.073 75.4979C743.887 75.6868 743.64 75.8475 743.332 75.9801C743.024 76.1127 742.648 76.179 742.204 76.179ZM742.383 75.125C742.847 75.125 743.238 75.0339 743.556 74.8516C743.877 74.6693 744.119 74.4339 744.282 74.1456C744.447 73.8572 744.53 73.554 744.53 73.2358V72.1619C744.481 72.2216 744.371 72.2763 744.202 72.326C744.036 72.3724 743.844 72.4138 743.625 72.4503C743.41 72.4834 743.2 72.5133 742.994 72.5398C742.792 72.563 742.628 72.5829 742.502 72.5994C742.197 72.6392 741.912 72.7038 741.647 72.7933C741.385 72.8795 741.173 73.0104 741.01 73.1861C740.851 73.3584 740.772 73.5937 740.772 73.892C740.772 74.2997 740.923 74.608 741.224 74.8168C741.529 75.0223 741.915 75.125 742.383 75.125ZM750.961 76.1591C750.246 76.1591 749.629 75.9901 749.112 75.652C748.595 75.3139 748.197 74.8482 747.919 74.255C747.64 73.6617 747.501 72.9839 747.501 72.2216C747.501 71.446 747.644 70.7616 747.929 70.1683C748.217 69.5717 748.618 69.1061 749.132 68.7713C749.649 68.4332 750.252 68.2642 750.942 68.2642C751.478 68.2642 751.962 68.3636 752.393 68.5625C752.824 68.7614 753.177 69.0398 753.452 69.3977C753.727 69.7557 753.898 70.1733 753.964 70.6506H752.791C752.701 70.3026 752.503 69.9943 752.194 69.7259C751.889 69.4541 751.478 69.3182 750.961 69.3182C750.504 69.3182 750.103 69.4375 749.758 69.6761C749.417 69.9115 749.15 70.2446 748.958 70.6754C748.769 71.103 748.674 71.6051 748.674 72.1818C748.674 72.7718 748.767 73.2855 748.953 73.723C749.142 74.1605 749.407 74.5002 749.748 74.7422C750.093 74.9841 750.497 75.1051 750.961 75.1051C751.266 75.1051 751.543 75.0521 751.792 74.946C752.04 74.84 752.251 74.6875 752.423 74.4886C752.595 74.2898 752.718 74.0511 752.791 73.7727H753.964C753.898 74.2235 753.734 74.6295 753.472 74.9908C753.214 75.3487 752.871 75.6338 752.443 75.8459C752.019 76.0547 751.525 76.1591 750.961 76.1591ZM756.787 73.2159L756.767 71.7642H757.006L760.347 68.3636H761.799L758.239 71.9631H758.139L756.787 73.2159ZM755.693 76V65.8182H756.867V76H755.693ZM760.546 76L757.563 72.2216L758.398 71.4062L762.037 76H760.546ZM767.274 76V68.3636H768.408V69.5568H768.507C768.666 69.1491 768.923 68.8326 769.278 68.6072C769.632 68.3786 770.058 68.2642 770.555 68.2642C771.059 68.2642 771.478 68.3786 771.813 68.6072C772.151 68.8326 772.415 69.1491 772.604 69.5568H772.683C772.879 69.1624 773.172 68.8492 773.563 68.6172C773.954 68.3819 774.423 68.2642 774.97 68.2642C775.653 68.2642 776.211 68.478 776.646 68.9055C777.08 69.3298 777.297 69.991 777.297 70.8892V76H776.124V70.8892C776.124 70.3258 775.969 69.9231 775.661 69.6811C775.353 69.4392 774.99 69.3182 774.572 69.3182C774.036 69.3182 773.62 69.4806 773.325 69.8054C773.03 70.1269 772.882 70.5346 772.882 71.0284V76H771.689V70.7699C771.689 70.3357 771.548 69.986 771.266 69.7209C770.985 69.4524 770.622 69.3182 770.178 69.3182C769.873 69.3182 769.588 69.3994 769.322 69.5618C769.061 69.7242 768.849 69.9496 768.686 70.2379C768.527 70.523 768.447 70.8527 768.447 71.2273V76H767.274ZM779.938 78.8636C779.74 78.8636 779.562 78.8471 779.406 78.8139C779.251 78.7841 779.143 78.7543 779.083 78.7244L779.382 77.6903C779.667 77.7633 779.919 77.7898 780.137 77.7699C780.356 77.75 780.55 77.6522 780.719 77.4766C780.891 77.3042 781.049 77.0241 781.191 76.6364L781.41 76.0398L778.586 68.3636H779.859L781.967 74.4489H782.046L784.154 68.3636H785.427L782.186 77.1136C782.04 77.508 781.859 77.8345 781.644 78.093C781.428 78.3549 781.178 78.5488 780.893 78.6747C780.611 78.8007 780.293 78.8636 779.938 78.8636ZM487.276 98.1591C486.54 98.1591 485.905 97.9967 485.371 97.6719C484.841 97.3438 484.432 96.8864 484.143 96.2997C483.858 95.7098 483.716 95.0237 483.716 94.2415C483.716 93.4593 483.858 92.7699 484.143 92.1733C484.432 91.5734 484.833 91.1061 485.347 90.7713C485.864 90.4332 486.467 90.2642 487.156 90.2642C487.554 90.2642 487.947 90.3305 488.335 90.4631C488.722 90.5956 489.075 90.8111 489.393 91.1094C489.712 91.4044 489.965 91.7955 490.154 92.2827C490.343 92.7699 490.438 93.3698 490.438 94.0824V94.5795H484.551V93.5653H489.244C489.244 93.1345 489.158 92.75 488.986 92.4119C488.817 92.0739 488.575 91.8071 488.26 91.6115C487.948 91.416 487.58 91.3182 487.156 91.3182C486.689 91.3182 486.285 91.4342 485.943 91.6662C485.605 91.8949 485.345 92.1932 485.163 92.5611C484.98 92.929 484.889 93.3234 484.889 93.7443V94.4205C484.889 94.9972 484.989 95.486 485.188 95.8871C485.39 96.2848 485.67 96.5881 486.028 96.7969C486.386 97.0024 486.802 97.1051 487.276 97.1051C487.584 97.1051 487.862 97.062 488.111 96.9759C488.363 96.8864 488.58 96.7538 488.762 96.5781C488.944 96.3991 489.085 96.1771 489.185 95.9119L490.318 96.2301C490.199 96.6146 489.998 96.9527 489.717 97.2443C489.435 97.5327 489.087 97.758 488.673 97.9205C488.258 98.0795 487.793 98.1591 487.276 98.1591ZM494.483 98.179C494 98.179 493.56 98.0878 493.166 97.9055C492.772 97.7199 492.458 97.4531 492.226 97.1051C491.994 96.7538 491.878 96.3295 491.878 95.8324C491.878 95.3949 491.965 95.0402 492.137 94.7685C492.309 94.4934 492.54 94.2779 492.828 94.1222C493.116 93.9664 493.434 93.8504 493.782 93.7741C494.134 93.6946 494.487 93.6316 494.841 93.5852C495.305 93.5256 495.682 93.4808 495.97 93.451C496.262 93.4179 496.474 93.3632 496.606 93.2869C496.742 93.2107 496.81 93.0781 496.81 92.8892V92.8494C496.81 92.3589 496.676 91.9777 496.407 91.706C496.142 91.4342 495.74 91.2983 495.199 91.2983C494.639 91.2983 494.2 91.4209 493.882 91.6662C493.564 91.9115 493.34 92.1733 493.211 92.4517L492.097 92.054C492.296 91.59 492.561 91.2287 492.893 90.9702C493.227 90.7083 493.592 90.526 493.986 90.4233C494.384 90.3172 494.775 90.2642 495.16 90.2642C495.405 90.2642 495.687 90.294 496.005 90.3537C496.326 90.41 496.636 90.5277 496.934 90.7067C497.236 90.8857 497.486 91.1558 497.685 91.517C497.884 91.8783 497.983 92.3622 497.983 92.9688V98H496.81V96.9659H496.751C496.671 97.1316 496.538 97.3089 496.353 97.4979C496.167 97.6868 495.92 97.8475 495.612 97.9801C495.304 98.1127 494.928 98.179 494.483 98.179ZM494.662 97.125C495.126 97.125 495.518 97.0339 495.836 96.8516C496.157 96.6693 496.399 96.4339 496.562 96.1456C496.727 95.8572 496.81 95.554 496.81 95.2358V94.1619C496.76 94.2216 496.651 94.2763 496.482 94.326C496.316 94.3724 496.124 94.4138 495.905 94.4503C495.69 94.4834 495.479 94.5133 495.274 94.5398C495.072 94.563 494.908 94.5829 494.782 94.5994C494.477 94.6392 494.192 94.7038 493.927 94.7933C493.665 94.8795 493.453 95.0104 493.29 95.1861C493.131 95.3584 493.052 95.5937 493.052 95.892C493.052 96.2997 493.202 96.608 493.504 96.8168C493.809 97.0223 494.195 97.125 494.662 97.125ZM500.139 98V90.3636H501.272V91.517H501.352C501.491 91.1392 501.743 90.8326 502.108 90.5973C502.472 90.362 502.883 90.2443 503.341 90.2443C503.427 90.2443 503.535 90.246 503.664 90.2493C503.793 90.2526 503.891 90.2576 503.957 90.2642V91.4574C503.917 91.4474 503.826 91.4325 503.684 91.4126C503.545 91.3894 503.397 91.3778 503.241 91.3778C502.87 91.3778 502.539 91.4557 502.247 91.6115C501.959 91.764 501.73 91.9761 501.561 92.2479C501.395 92.5163 501.312 92.8229 501.312 93.1676V98H500.139ZM506.535 93.4062V98H505.362V90.3636H506.495V91.5568H506.595C506.774 91.169 507.046 90.8575 507.41 90.6222C507.775 90.3835 508.245 90.2642 508.822 90.2642C509.339 90.2642 509.792 90.3703 510.179 90.5824C510.567 90.7912 510.869 91.1094 511.084 91.5369C511.3 91.9612 511.407 92.4981 511.407 93.1477V98H510.234V93.2273C510.234 92.6274 510.078 92.16 509.767 91.8253C509.455 91.4872 509.028 91.3182 508.484 91.3182C508.11 91.3182 507.775 91.3994 507.48 91.5618C507.188 91.7242 506.958 91.9612 506.789 92.2727C506.62 92.5843 506.535 92.9621 506.535 93.4062ZM513.565 98V90.3636H514.739V98H513.565ZM514.162 89.0909C513.933 89.0909 513.736 89.013 513.57 88.8572C513.408 88.7015 513.327 88.5142 513.327 88.2955C513.327 88.0767 513.408 87.8894 513.57 87.7337C513.736 87.5779 513.933 87.5 514.162 87.5C514.391 87.5 514.586 87.5779 514.749 87.7337C514.914 87.8894 514.997 88.0767 514.997 88.2955C514.997 88.5142 514.914 88.7015 514.749 88.8572C514.586 89.013 514.391 89.0909 514.162 89.0909ZM518.075 93.4062V98H516.902V90.3636H518.035V91.5568H518.135C518.314 91.169 518.585 90.8575 518.95 90.6222C519.315 90.3835 519.785 90.2642 520.362 90.2642C520.879 90.2642 521.331 90.3703 521.719 90.5824C522.107 90.7912 522.409 91.1094 522.624 91.5369C522.839 91.9612 522.947 92.4981 522.947 93.1477V98H521.774V93.2273C521.774 92.6274 521.618 92.16 521.307 91.8253C520.995 91.4872 520.567 91.3182 520.024 91.3182C519.649 91.3182 519.315 91.3994 519.02 91.5618C518.728 91.7242 518.498 91.9612 518.329 92.2727C518.159 92.5843 518.075 92.9621 518.075 93.4062ZM528.188 101.023C527.621 101.023 527.134 100.95 526.726 100.804C526.318 100.661 525.978 100.473 525.707 100.237C525.438 100.005 525.224 99.7566 525.065 99.4915L526 98.8352C526.106 98.9744 526.24 99.1335 526.403 99.3125C526.565 99.4948 526.787 99.6522 527.069 99.7848C527.354 99.9207 527.727 99.9886 528.188 99.9886C528.804 99.9886 529.313 99.8395 529.714 99.5412C530.115 99.2429 530.315 98.7756 530.315 98.1392V96.5881H530.216C530.13 96.7273 530.007 96.8996 529.848 97.1051C529.692 97.3073 529.467 97.4879 529.172 97.647C528.88 97.8028 528.486 97.8807 527.989 97.8807C527.372 97.8807 526.819 97.7348 526.328 97.4432C525.841 97.1515 525.455 96.7273 525.17 96.1705C524.888 95.6136 524.747 94.9375 524.747 94.142C524.747 93.3598 524.885 92.6787 525.16 92.0987C525.435 91.5154 525.818 91.0646 526.308 90.7464C526.799 90.425 527.366 90.2642 528.009 90.2642C528.506 90.2642 528.9 90.3471 529.192 90.5128C529.487 90.6752 529.712 90.8608 529.868 91.0696C530.027 91.2751 530.15 91.4441 530.236 91.5767H530.355V90.3636H531.489V98.2188C531.489 98.875 531.34 99.4086 531.041 99.8196C530.746 100.234 530.349 100.537 529.848 100.729C529.351 100.925 528.797 101.023 528.188 101.023ZM528.148 96.8267C528.618 96.8267 529.016 96.719 529.341 96.5036C529.666 96.2881 529.913 95.9782 530.082 95.5739C530.251 95.1695 530.335 94.6856 530.335 94.1222C530.335 93.572 530.252 93.0864 530.087 92.6655C529.921 92.2446 529.676 91.9148 529.351 91.6761C529.026 91.4375 528.625 91.3182 528.148 91.3182C527.651 91.3182 527.236 91.4441 526.905 91.696C526.577 91.9479 526.33 92.286 526.164 92.7102C526.002 93.1345 525.92 93.6051 525.92 94.1222C525.92 94.6525 526.003 95.1214 526.169 95.5291C526.338 95.9335 526.587 96.2517 526.915 96.4837C527.246 96.7124 527.657 96.8267 528.148 96.8267ZM539.059 92.0739L538.005 92.3722C537.939 92.1965 537.841 92.0258 537.712 91.8601C537.586 91.6911 537.414 91.5518 537.195 91.4425C536.976 91.3331 536.696 91.2784 536.355 91.2784C535.888 91.2784 535.498 91.3861 535.187 91.6016C534.878 91.8137 534.724 92.0838 534.724 92.4119C534.724 92.7036 534.83 92.9339 535.042 93.103C535.255 93.272 535.586 93.4129 536.037 93.5256L537.17 93.804C537.853 93.9697 538.362 94.2232 538.697 94.5646C539.031 94.9027 539.199 95.3385 539.199 95.8722C539.199 96.3097 539.073 96.7008 538.821 97.0455C538.572 97.3902 538.224 97.6619 537.777 97.8608C537.329 98.0597 536.809 98.1591 536.216 98.1591C535.437 98.1591 534.792 97.9901 534.282 97.652C533.771 97.3139 533.448 96.8201 533.312 96.1705L534.426 95.892C534.532 96.303 534.733 96.6113 535.028 96.8168C535.326 97.0223 535.715 97.125 536.196 97.125C536.743 97.125 537.177 97.009 537.498 96.777C537.823 96.5417 537.986 96.2599 537.986 95.9318C537.986 95.6667 537.893 95.4446 537.707 95.2656C537.522 95.0833 537.237 94.9474 536.852 94.858L535.579 94.5597C534.88 94.3939 534.366 94.1371 534.038 93.7891C533.713 93.4377 533.551 92.9986 533.551 92.4716C533.551 92.0407 533.672 91.6596 533.914 91.3281C534.159 90.9967 534.492 90.7365 534.913 90.5476C535.337 90.3587 535.818 90.2642 536.355 90.2642C537.111 90.2642 537.704 90.4299 538.135 90.7614C538.569 91.0928 538.877 91.5303 539.059 92.0739ZM547.177 98.179C546.694 98.179 546.254 98.0878 545.86 97.9055C545.466 97.7199 545.152 97.4531 544.92 97.1051C544.688 96.7538 544.572 96.3295 544.572 95.8324C544.572 95.3949 544.659 95.0402 544.831 94.7685C545.003 94.4934 545.234 94.2779 545.522 94.1222C545.81 93.9664 546.128 93.8504 546.476 93.7741C546.828 93.6946 547.181 93.6316 547.535 93.5852C547.999 93.5256 548.376 93.4808 548.664 93.451C548.956 93.4179 549.168 93.3632 549.3 93.2869C549.436 93.2107 549.504 93.0781 549.504 92.8892V92.8494C549.504 92.3589 549.37 91.9777 549.101 91.706C548.836 91.4342 548.434 91.2983 547.893 91.2983C547.333 91.2983 546.894 91.4209 546.576 91.6662C546.258 91.9115 546.034 92.1733 545.905 92.4517L544.791 92.054C544.99 91.59 545.255 91.2287 545.587 90.9702C545.921 90.7083 546.286 90.526 546.68 90.4233C547.078 90.3172 547.469 90.2642 547.854 90.2642C548.099 90.2642 548.381 90.294 548.699 90.3537C549.02 90.41 549.33 90.5277 549.628 90.7067C549.93 90.8857 550.18 91.1558 550.379 91.517C550.578 91.8783 550.677 92.3622 550.677 92.9688V98H549.504V96.9659H549.445C549.365 97.1316 549.232 97.3089 549.047 97.4979C548.861 97.6868 548.614 97.8475 548.306 97.9801C547.998 98.1127 547.622 98.179 547.177 98.179ZM547.356 97.125C547.82 97.125 548.212 97.0339 548.53 96.8516C548.851 96.6693 549.093 96.4339 549.256 96.1456C549.421 95.8572 549.504 95.554 549.504 95.2358V94.1619C549.454 94.2216 549.345 94.2763 549.176 94.326C549.01 94.3724 548.818 94.4138 548.599 94.4503C548.384 94.4834 548.173 94.5133 547.968 94.5398C547.766 94.563 547.602 94.5829 547.476 94.5994C547.171 94.6392 546.886 94.7038 546.621 94.7933C546.359 94.8795 546.147 95.0104 545.984 95.1861C545.825 95.3584 545.746 95.5937 545.746 95.892C545.746 96.2997 545.896 96.608 546.198 96.8168C546.503 97.0223 546.889 97.125 547.356 97.125ZM554.006 93.4062V98H552.833V90.3636H553.967V91.5568H554.066C554.245 91.169 554.517 90.8575 554.881 90.6222C555.246 90.3835 555.717 90.2642 556.293 90.2642C556.81 90.2642 557.263 90.3703 557.65 90.5824C558.038 90.7912 558.34 91.1094 558.555 91.5369C558.771 91.9612 558.878 92.4981 558.878 93.1477V98H557.705V93.2273C557.705 92.6274 557.549 92.16 557.238 91.8253C556.926 91.4872 556.499 91.3182 555.955 91.3182C555.581 91.3182 555.246 91.3994 554.951 91.5618C554.659 91.7242 554.429 91.9612 554.26 92.2727C554.091 92.5843 554.006 92.9621 554.006 93.4062ZM561.519 100.864C561.32 100.864 561.143 100.847 560.987 100.814C560.831 100.784 560.723 100.754 560.664 100.724L560.962 99.6903C561.247 99.7633 561.499 99.7898 561.718 99.7699C561.936 99.75 562.13 99.6522 562.299 99.4766C562.472 99.3042 562.629 99.0241 562.772 98.6364L562.99 98.0398L560.166 90.3636H561.439L563.547 96.4489H563.627L565.735 90.3636H567.007L563.766 99.1136C563.62 99.508 563.439 99.8345 563.224 100.093C563.009 100.355 562.758 100.549 562.473 100.675C562.192 100.801 561.873 100.864 561.519 100.864ZM571.891 90.3636V91.358H567.934V90.3636H571.891ZM569.087 88.5341H570.26V95.8125C570.26 96.1439 570.308 96.3925 570.405 96.5582C570.504 96.7206 570.63 96.83 570.782 96.8864C570.938 96.9394 571.102 96.9659 571.275 96.9659C571.404 96.9659 571.51 96.9593 571.593 96.946C571.676 96.9295 571.742 96.9162 571.792 96.9062L572.03 97.9602C571.951 97.9901 571.84 98.0199 571.697 98.0497C571.555 98.0829 571.374 98.0994 571.155 98.0994C570.824 98.0994 570.499 98.0282 570.181 97.8857C569.866 97.7431 569.604 97.526 569.395 97.2344C569.19 96.9427 569.087 96.5748 569.087 96.1307V88.5341ZM573.67 98V90.3636H574.843V98H573.67ZM574.267 89.0909C574.038 89.0909 573.841 89.013 573.675 88.8572C573.512 88.7015 573.431 88.5142 573.431 88.2955C573.431 88.0767 573.512 87.8894 573.675 87.7337C573.841 87.5779 574.038 87.5 574.267 87.5C574.495 87.5 574.691 87.5779 574.853 87.7337C575.019 87.8894 575.102 88.0767 575.102 88.2955C575.102 88.5142 575.019 88.7015 574.853 88.8572C574.691 89.013 574.495 89.0909 574.267 89.0909ZM577.006 98V90.3636H578.14V91.5568H578.239C578.398 91.1491 578.655 90.8326 579.01 90.6072C579.364 90.3786 579.79 90.2642 580.287 90.2642C580.791 90.2642 581.21 90.3786 581.545 90.6072C581.883 90.8326 582.147 91.1491 582.336 91.5568H582.415C582.611 91.1624 582.904 90.8492 583.295 90.6172C583.686 90.3819 584.155 90.2642 584.702 90.2642C585.385 90.2642 585.943 90.478 586.378 90.9055C586.812 91.3298 587.029 91.991 587.029 92.8892V98H585.856V92.8892C585.856 92.3258 585.702 91.9231 585.393 91.6811C585.085 91.4392 584.722 91.3182 584.304 91.3182C583.768 91.3182 583.352 91.4806 583.057 91.8054C582.762 92.1269 582.614 92.5346 582.614 93.0284V98H581.421V92.7699C581.421 92.3357 581.28 91.986 580.998 91.7209C580.717 91.4524 580.354 91.3182 579.91 91.3182C579.605 91.3182 579.32 91.3994 579.054 91.5618C578.793 91.7242 578.581 91.9496 578.418 92.2379C578.259 92.523 578.179 92.8527 578.179 93.2273V98H577.006ZM592.39 98.1591C591.654 98.1591 591.019 97.9967 590.486 97.6719C589.955 97.3438 589.546 96.8864 589.258 96.2997C588.973 95.7098 588.83 95.0237 588.83 94.2415C588.83 93.4593 588.973 92.7699 589.258 92.1733C589.546 91.5734 589.947 91.1061 590.461 90.7713C590.978 90.4332 591.581 90.2642 592.271 90.2642C592.668 90.2642 593.061 90.3305 593.449 90.4631C593.837 90.5956 594.19 90.8111 594.508 91.1094C594.826 91.4044 595.079 91.7955 595.268 92.2827C595.457 92.7699 595.552 93.3698 595.552 94.0824V94.5795H589.665V93.5653H594.359C594.359 93.1345 594.272 92.75 594.1 92.4119C593.931 92.0739 593.689 91.8071 593.374 91.6115C593.063 91.416 592.695 91.3182 592.271 91.3182C591.803 91.3182 591.399 91.4342 591.057 91.6662C590.719 91.8949 590.459 92.1932 590.277 92.5611C590.095 92.929 590.004 93.3234 590.004 93.7443V94.4205C590.004 94.9972 590.103 95.486 590.302 95.8871C590.504 96.2848 590.784 96.5881 591.142 96.7969C591.5 97.0024 591.916 97.1051 592.39 97.1051C592.698 97.1051 592.977 97.062 593.225 96.9759C593.477 96.8864 593.694 96.7538 593.876 96.5781C594.059 96.3991 594.2 96.1771 594.299 95.9119L595.432 96.2301C595.313 96.6146 595.113 96.9527 594.831 97.2443C594.549 97.5327 594.201 97.758 593.787 97.9205C593.373 98.0795 592.907 98.1591 592.39 98.1591ZM598.206 98.0795C597.96 98.0795 597.75 97.9917 597.574 97.8161C597.399 97.6404 597.311 97.4299 597.311 97.1847C597.311 96.9394 597.399 96.7289 597.574 96.5533C597.75 96.3776 597.96 96.2898 598.206 96.2898C598.451 96.2898 598.661 96.3776 598.837 96.5533C599.013 96.7289 599.101 96.9394 599.101 97.1847C599.101 97.3471 599.059 97.4962 598.976 97.6321C598.897 97.768 598.789 97.8774 598.653 97.9602C598.521 98.0398 598.371 98.0795 598.206 98.0795Z" fill="white"/>
</g>
<defs>
<clipPath id="clip0_2083_4930">
<rect width="852" height="142" rx="8" fill="white"/>
</clipPath>
</defs>
</svg>
