<svg width="61" height="40" viewBox="0 0 61 40" fill="none" xmlns="http://www.w3.org/2000/svg">
<path d="M30.7475 10.759C29.5807 10.759 28.6343 9.81374 28.6343 8.64834V2.68974C28.6343 1.52434 29.5807 0.579102 30.7475 0.579102C31.9144 0.579102 32.8608 1.52434 32.8608 2.68974V8.64595C32.8608 9.81135 31.9144 10.7566 30.7475 10.7566V10.759Z" fill="#1B2D5A"/>
<path d="M17.6272 14.2603C16.8964 14.2603 16.1848 13.8822 15.7943 13.205L12.8137 8.04801C12.2291 7.03816 12.5765 5.74593 13.5876 5.16443C14.5987 4.58053 15.8925 4.92752 16.4748 5.93737L19.4553 11.0943C20.04 12.1042 19.6926 13.3964 18.6814 13.9803C18.3484 14.1717 17.9842 14.2627 17.6272 14.2627V14.2603Z" fill="#1B2D5A"/>
<path d="M8.01463 23.8462C7.65524 23.8462 7.29345 23.7553 6.9604 23.5638L1.79708 20.5869C0.785978 20.003 0.438561 18.7132 1.02318 17.701C1.6078 16.6911 2.89923 16.3465 3.91033 16.928L9.07365 19.9049C10.0848 20.4888 10.4322 21.7787 9.84755 22.7909C9.45701 23.4681 8.74541 23.8462 8.01463 23.8462Z" fill="#1B2D5A"/>
<path d="M53.4616 23.875C52.7308 23.875 52.0192 23.4969 51.6286 22.8197C51.044 21.8098 51.3914 20.5176 52.4025 19.9337L57.5659 16.9544C58.577 16.3729 59.8708 16.7175 60.453 17.7273C61.0376 18.7372 60.6902 20.0294 59.6791 20.6133L54.5158 23.5926C54.1828 23.784 53.8186 23.875 53.4616 23.875Z" fill="#1B2D5A"/>
<path d="M43.8608 14.2793C43.5014 14.2793 43.1396 14.1883 42.8066 13.9969C41.7955 13.413 41.4481 12.1232 42.0327 11.1109L45.0133 5.95397C45.5979 4.94412 46.8893 4.59714 47.9004 5.18103C48.9115 5.76493 49.259 7.05476 48.6743 8.06461L45.6938 13.2216C45.3032 13.8988 44.5916 14.2769 43.8608 14.2769V14.2793Z" fill="#1B2D5A"/>
<path d="M15.7273 39.9439C14.7976 39.9439 13.9423 39.7285 13.166 39.1901C11.103 37.7591 11.103 34.8635 11.103 33.9111C11.103 24.1237 20.0927 16.1621 31.1454 16.1621C42.198 16.1621 51.1877 24.1237 51.1877 33.9111C51.1877 34.8635 51.1877 37.7591 49.1248 39.1901C46.93 40.7144 44.0812 39.6543 40.7844 38.4243C37.902 37.3499 34.6339 36.1342 31.1454 36.1342C27.6568 36.1342 24.3911 37.3499 21.5064 38.4243C19.3739 39.2188 17.4284 39.9415 15.7273 39.9415V39.9439ZM15.744 35.5048C15.7632 35.5048 15.7824 35.5048 15.8039 35.5048C16.5946 35.5048 18.5162 34.7893 19.9514 34.2557C23.0278 33.1094 26.8542 31.6856 31.1454 31.6856C35.4366 31.6856 39.2629 33.1118 42.3394 34.2557C43.8129 34.8037 45.78 35.5383 46.5443 35.5024C46.6138 35.311 46.7312 34.8515 46.7312 33.9087C46.7312 26.5765 39.7397 20.6083 31.1454 20.6083C22.551 20.6083 15.5595 26.5741 15.5595 33.9087C15.5595 34.8515 15.6769 35.311 15.7464 35.5024L15.744 35.5048Z" fill="#1B2D5A"/>
</svg>
